SplineFontDB: 3.0
FontName: KikakuiSansPro
FullName: Kikakui Sans Pro
FamilyName: Kikakui Sans Pro
Weight: Book
Copyright: Copyright (c) 2016, Athinkra.\nOriginal font designed by Jay Glavy. Ported to Unicode and OpenType by \nEnabling Languages for Athinkra. Source font used iwth permission.
Version: 0.3
ItalicAngle: 0
UnderlinePosition: -292
UnderlineWidth: 40
Ascent: 1638
Descent: 410
InvalidEm: 0
sfntRevision: 0x00010000
LayerCount: 2
Layer: 0 1 "Back" 1
Layer: 1 1 "Fore" 0
XUID: [1021 984 -1507811681 11081177]
StyleMap: 0x0040
FSType: 0
OS2Version: 1
OS2_WeightWidthSlopeOnly: 0
OS2_UseTypoMetrics: 0
CreationTime: 1044361044
ModificationTime: 1496105810
PfmFamily: 81
TTFWeight: 400
TTFWidth: 5
LineGap: 0
VLineGap: 0
Panose: 0 0 4 0 0 0 0 0 0 0
OS2TypoAscent: 2007
OS2TypoAOffset: 0
OS2TypoDescent: -602
OS2TypoDOffset: 0
OS2TypoLinegap: 0
OS2WinAscent: 2007
OS2WinAOffset: 0
OS2WinDescent: 602
OS2WinDOffset: 0
HheadAscent: 2007
HheadAOffset: 0
HheadDescent: -602
HheadDOffset: 0
OS2SubXSize: 1434
OS2SubYSize: 1331
OS2SubXOff: 0
OS2SubYOff: 293
OS2SupXSize: 1434
OS2SupYSize: 1331
OS2SupXOff: 0
OS2SupYOff: 928
OS2StrikeYSize: 102
OS2StrikeYPos: 530
OS2Vendor: 'ELNG'
OS2CodePages: 00000001.00000000
OS2UnicodeRanges: 00000003.00000000.00000000.00000000
Lookup: 4 1 1 "'rlig' Required Ligatures lookup 0" { "'rlig' Required Ligatures lookup 0-1"  } ['rlig' ('DFLT' <'dflt' > ) ]
Lookup: 1 1 0 "'aalt' Access All Alternates lookup 7" { "'aalt' Access All Alternates lookup 7-1"  } ['aalt' ('DFLT' <'dflt' > ) ]
Lookup: 1 1 0 "'ss01' Style Set 1 lookup 8" { "'ss01' Style Set 1 lookup 8-1"  } ['ss01' ('DFLT' <'dflt' > ) ]
MarkAttachClasses: 1
DEI: 91125
TtTable: prep
NPUSHB
 63
 34
 34
 33
 33
 32
 32
 31
 31
 30
 30
 29
 29
 28
 28
 27
 27
 26
 26
 25
 25
 24
 24
 23
 23
 22
 22
 21
 21
 20
 20
 19
 19
 18
 18
 17
 17
 16
 16
 15
 15
 14
 14
 13
 13
 12
 12
 11
 11
 10
 10
 9
 9
 8
 8
 3
 3
 2
 2
 1
 1
 0
 0
 0
SCANTYPE
PUSHW_1
 511
SCANCTRL
RCVT
ROUND[Grey]
WCVTP
RCVT

StartChar: .notdef
Encoding: 507 -1 0
Width: 1024
Flags: W
LayerCount: 2
Fore
SplineSet
129 0 m 1,0,-1
 129 1638 l 1,1,-1
 897 1638 l 1,2,-1
 897 0 l 1,3,-1
 129 0 l 1,0,-1
256 129 m 1,4,-1
 768 129 l 1,5,-1
 768 1511 l 1,6,-1
 256 1511 l 1,7,-1
 256 129 l 1,4,-1
EndSplineSet
Validated: 1
EndChar

StartChar: exclam
Encoding: 1 33 4
Width: 479
Flags: W
LayerCount: 2
Fore
SplineSet
293 1004 m 1,0,-1
 268 459 l 1,1,-1
 211 459 l 1,2,-1
 186 1004 l 1,3,-1
 186 1235 l 1,4,-1
 293 1235 l 1,5,-1
 293 1004 l 1,0,-1
301 205 m 1,6,-1
 178 205 l 1,7,-1
 178 342 l 1,8,-1
 301 342 l 1,9,-1
 301 205 l 1,6,-1
EndSplineSet
Validated: 1
EndChar

StartChar: quotedbl
Encoding: 2 34 5
Width: 399
Flags: W
LayerCount: 2
Fore
SplineSet
348 1067 m 1,0,-1
 326 877 l 1,1,-1
 264 877 l 1,2,-1
 242 1067 l 1,3,-1
 242 1235 l 1,4,-1
 348 1235 l 1,5,-1
 348 1067 l 1,0,-1
162 1067 m 1,6,-1
 139 877 l 1,7,-1
 78 877 l 1,8,-1
 55 1067 l 1,9,-1
 55 1235 l 1,10,-1
 162 1235 l 1,11,-1
 162 1067 l 1,6,-1
EndSplineSet
Validated: 1
EndChar

StartChar: quotesingle
Encoding: 7 39 10
Width: 319
Flags: W
LayerCount: 2
Fore
SplineSet
209 1067 m 1,0,-1
 190 879 l 1,1,-1
 127 879 l 1,2,-1
 104 1067 l 1,3,-1
 104 1235 l 1,4,-1
 209 1235 l 1,5,-1
 209 1067 l 1,0,-1
EndSplineSet
Validated: 1
EndChar

StartChar: parenleft
Encoding: 8 40 11
Width: 479
Flags: W
LayerCount: 2
Fore
SplineSet
422 -98 m 1,0,-1
 352 -98 l 1,1,2
 108 238 108 238 109 571 c 0,3,4
 109 897 109 897 352 1251 c 1,5,-1
 418 1251 l 1,6,7
 201 911 201 911 201 567 c 0,8,9
 201 221 201 221 422 -98 c 1,0,-1
EndSplineSet
Validated: 33
EndChar

StartChar: parenright
Encoding: 9 41 12
Width: 479
Flags: W
LayerCount: 2
Fore
SplineSet
371 582 m 0,0,1
 371 256 371 256 127 -98 c 1,2,-1
 63 -98 l 1,3,4
 278 246 278 246 279 588 c 0,5,6
 279 934 279 934 57 1251 c 1,7,-1
 127 1251 l 1,8,9
 371 916 371 916 371 582 c 0,0,1
EndSplineSet
Validated: 1
EndChar

StartChar: plus
Encoding: 11 43 14
Width: 950
Flags: W
LayerCount: 2
Fore
SplineSet
848 678 m 1,0,-1
 506 678 l 1,1,-1
 506 334 l 1,2,-1
 440 334 l 1,3,-1
 440 678 l 1,4,-1
 96 678 l 1,5,-1
 96 743 l 1,6,-1
 440 743 l 1,7,-1
 440 1087 l 1,8,-1
 506 1087 l 1,9,-1
 506 743 l 1,10,-1
 848 743 l 1,11,-1
 848 678 l 1,0,-1
EndSplineSet
Validated: 1
EndChar

StartChar: comma
Encoding: 12 44 15
Width: 399
Flags: W
LayerCount: 2
Fore
SplineSet
266 205 m 2,0,1
 266 80 266 80 174 12 c 1,2,-1
 137 63 l 1,3,4
 178 94 178 94 190 125 c 0,5,6
 200 150 200 150 201 205 c 1,7,-1
 145 205 l 1,8,-1
 145 342 l 1,9,-1
 266 342 l 1,10,-1
 266 205 l 2,0,1
EndSplineSet
Validated: 1
EndChar

StartChar: hyphen
Encoding: 13 45 16
AltUni2: 002010.ffffffff.0
Width: 479
Flags: W
LayerCount: 2
Fore
SplineSet
428 530 m 1,0,-1
 51 530 l 1,1,-1
 51 623 l 1,2,-1
 428 623 l 1,3,-1
 428 530 l 1,0,-1
EndSplineSet
Validated: 1
EndChar

StartChar: period
Encoding: 14 46 17
Width: 399
Flags: W
LayerCount: 2
Fore
SplineSet
264 205 m 1,0,-1
 141 205 l 1,1,-1
 141 342 l 1,2,-1
 264 342 l 1,3,-1
 264 205 l 1,0,-1
EndSplineSet
Validated: 1
EndChar

StartChar: slash
Encoding: 15 47 18
Width: 399
Flags: W
LayerCount: 2
Fore
SplineSet
403 1251 m 1,0,-1
 68 178 l 1,1,-1
 0 178 l 1,2,-1
 338 1251 l 1,3,-1
 403 1251 l 1,0,-1
EndSplineSet
Validated: 1
EndChar

StartChar: zero
Encoding: 16 48 19
Width: 798
Flags: W
LayerCount: 2
Fore
SplineSet
721 711 m 0,0,1
 721 187 721 187 397 186 c 0,2,3
 71 186 71 186 72 692 c 0,4,5
 72 995 72 995 156 1110 c 0,6,7
 246 1235 246 1235 397 1235 c 0,8,9
 598 1235 598 1235 680 1034 c 0,10,11
 721 930 721 930 721 711 c 0,0,1
633 711 m 0,12,13
 633 1020 633 1020 530 1116 c 0,14,15
 479 1163 479 1163 397 1163 c 0,16,17
 235 1163 235 1163 186 973 c 0,18,19
 163 885 163 885 164 705 c 0,20,21
 164 457 164 457 225 352 c 0,22,23
 280 260 280 260 401 260 c 0,24,25
 633 260 633 260 633 711 c 0,12,13
EndSplineSet
Validated: 33
EndChar

StartChar: one
Encoding: 17 49 20
Width: 798
Flags: W
LayerCount: 2
Fore
SplineSet
510 205 m 1,0,-1
 424 205 l 1,1,-1
 424 1065 l 1,2,3
 307 954 307 954 164 899 c 1,4,-1
 164 977 l 1,5,6
 383 1098 383 1098 451 1235 c 1,7,-1
 510 1235 l 1,8,-1
 510 205 l 1,0,-1
EndSplineSet
Validated: 1
EndChar

StartChar: two
Encoding: 18 50 21
Width: 798
Flags: W
LayerCount: 2
Fore
SplineSet
717 205 m 1,0,-1
 51 205 l 1,1,2
 65 328 65 328 160 432 c 0,3,4
 217 495 217 495 347 594.5 c 128,-1,5
 477 694 477 694 530 750 c 0,6,7
 622 844 622 844 623 946 c 0,8,9
 623 1042 623 1042 559.5 1102.5 c 128,-1,10
 496 1163 496 1163 399 1163 c 0,11,12
 202 1163 202 1163 166 938 c 1,13,-1
 74 950 l 1,14,15
 90 1085 90 1085 178 1160 c 128,-1,16
 266 1235 266 1235 403 1235 c 0,17,18
 534 1235 534 1235 625.5 1157 c 128,-1,19
 717 1079 717 1079 717 950 c 0,20,21
 717 817 717 817 608 705 c 0,22,23
 555 652 555 652 389 524 c 0,24,25
 285 444 285 444 236 391 c 0,26,27
 201 352 201 352 166 287 c 1,28,-1
 717 287 l 1,29,-1
 717 205 l 1,0,-1
EndSplineSet
Validated: 1
EndChar

StartChar: three
Encoding: 19 51 22
Width: 798
Flags: W
LayerCount: 2
Fore
SplineSet
725 508 m 0,0,1
 725 363 725 363 631 274.5 c 128,-1,2
 537 186 537 186 391 186 c 0,3,4
 127 186 127 186 70 465 c 1,5,-1
 156 477 l 1,6,7
 205 260 205 260 391 260 c 0,8,9
 495 260 495 260 562 329.5 c 128,-1,10
 629 399 629 399 629 504 c 0,11,12
 629 604 629 604 566.5 661.5 c 128,-1,13
 504 719 504 719 403 719 c 0,14,15
 368 719 368 719 311 707 c 1,16,-1
 319 782 l 1,17,18
 487 782 487 782 549 868 c 0,19,20
 584 917 584 917 584 979 c 0,21,22
 584 1061 584 1061 527.5 1112 c 128,-1,23
 471 1163 471 1163 389 1163 c 0,24,25
 223 1163 223 1163 172 961 c 1,26,-1
 82 975 l 1,27,28
 148 1235 148 1235 389 1235 c 0,29,30
 508 1235 508 1235 592 1162.5 c 128,-1,31
 676 1090 676 1090 676 973 c 0,32,33
 676 867 676 867 600 801 c 0,34,35
 575 781 575 781 524 758 c 1,36,37
 583 746 583 746 614 725 c 0,38,39
 725 655 725 655 725 508 c 0,0,1
EndSplineSet
Validated: 1
EndChar

StartChar: four
Encoding: 20 52 23
Width: 798
Flags: W
LayerCount: 2
Fore
SplineSet
729 461 m 1,0,-1
 588 461 l 1,1,-1
 588 205 l 1,2,-1
 502 205 l 1,3,-1
 502 461 l 1,4,-1
 25 461 l 1,5,-1
 25 541 l 1,6,-1
 520 1235 l 1,7,-1
 588 1235 l 1,8,-1
 588 541 l 1,9,-1
 729 541 l 1,10,-1
 729 461 l 1,0,-1
502 541 m 1,11,-1
 502 1092 l 1,12,-1
 111 541 l 1,13,-1
 502 541 l 1,11,-1
EndSplineSet
Validated: 1
EndChar

StartChar: five
Encoding: 21 53 24
Width: 798
Flags: W
LayerCount: 2
Fore
SplineSet
731 543 m 0,0,1
 731 449 731 449 685 362.5 c 128,-1,2
 639 276 639 276 559 231 c 128,-1,3
 479 186 479 186 383 186 c 0,4,5
 137 186 137 186 70 459 c 1,6,-1
 158 469 l 1,7,8
 203 260 203 260 397 260 c 0,9,10
 506 260 506 260 575 344 c 0,11,12
 638 422 638 422 639 535 c 0,13,14
 639 644 639 644 573.5 717.5 c 128,-1,15
 508 791 508 791 401 791 c 0,16,17
 280 791 280 791 166 676 c 1,18,-1
 92 688 l 1,19,-1
 190 1221 l 1,20,-1
 684 1221 l 1,21,-1
 684 1139 l 1,22,-1
 254 1139 l 1,23,-1
 190 788 l 1,24,25
 303 868 303 868 416 868 c 0,26,27
 549 868 549 868 640 773 c 128,-1,28
 731 678 731 678 731 543 c 0,0,1
EndSplineSet
Validated: 1
EndChar

StartChar: six
Encoding: 22 54 25
Width: 798
Flags: W
LayerCount: 2
Fore
SplineSet
729 537 m 0,0,1
 729 390 729 390 641 291 c 0,2,3
 551 187 551 187 408 186 c 0,4,5
 189 186 189 186 104 399 c 0,6,7
 63 503 63 503 63 682 c 0,8,9
 63 1235 63 1235 428 1235 c 0,10,11
 653 1235 653 1235 705 995 c 1,12,-1
 618 987 l 1,13,14
 571 1161 571 1161 424 1161 c 0,15,16
 332 1161 332 1161 264 1094 c 0,17,18
 205 1035 205 1035 180 938 c 0,19,20
 162 858 162 858 152 705 c 1,21,22
 265 855 265 855 428 854 c 0,23,24
 563 854 563 854 646 763 c 128,-1,25
 729 672 729 672 729 537 c 0,0,1
633 526 m 256,26,27
 633 632 633 632 574.5 703 c 128,-1,28
 516 774 516 774 414 774 c 0,29,30
 310 774 310 774 242 706.5 c 128,-1,31
 174 639 174 639 174 537 c 0,32,33
 174 428 174 428 236 348 c 0,34,35
 304 260 304 260 410 260 c 0,36,37
 512 260 512 260 575 344 c 0,38,39
 633 420 633 420 633 526 c 256,26,27
EndSplineSet
Validated: 33
EndChar

StartChar: seven
Encoding: 23 55 26
Width: 798
Flags: W
LayerCount: 2
Fore
SplineSet
729 1163 m 1,0,1
 369 749 369 749 326 205 c 1,2,-1
 231 205 l 1,3,4
 254 561 254 561 414 848 c 0,5,6
 475 957 475 957 616 1143 c 1,7,-1
 78 1143 l 1,8,-1
 78 1221 l 1,9,-1
 729 1221 l 1,10,-1
 729 1163 l 1,0,1
EndSplineSet
Validated: 1
EndChar

StartChar: eight
Encoding: 24 56 27
Width: 798
Flags: W
LayerCount: 2
Fore
SplineSet
729 502 m 0,0,1
 729 305 729 305 565 225 c 0,2,3
 487 186 487 186 397 186 c 0,4,5
 194 186 194 186 109 338 c 0,6,7
 66 414 66 414 66 502 c 0,8,9
 66 690 66 690 254 760 c 1,10,11
 107 826 107 826 106 969 c 0,12,13
 106 1088 106 1088 195 1163 c 0,14,15
 277 1235 277 1235 397 1235 c 256,16,17
 518 1235 518 1235 602 1161 c 128,-1,18
 686 1087 686 1087 686 969 c 0,19,20
 686 826 686 826 541 760 c 1,21,22
 729 690 729 690 729 502 c 0,0,1
598 969 m 0,23,24
 598 1055 598 1055 540.5 1109 c 128,-1,25
 483 1163 483 1163 395 1163 c 0,26,27
 309 1163 309 1163 252 1109 c 128,-1,28
 195 1055 195 1055 195 969 c 0,29,30
 195 889 195 889 254 840 c 128,-1,31
 313 791 313 791 395 791 c 0,32,33
 479 791 479 791 538.5 839 c 128,-1,34
 598 887 598 887 598 969 c 0,23,24
637 494 m 0,35,36
 637 600 637 600 570.5 658.5 c 128,-1,37
 504 717 504 717 395 717 c 0,38,39
 289 717 289 717 222.5 658.5 c 128,-1,40
 156 600 156 600 156 494 c 256,41,42
 156 388 156 388 222.5 324 c 128,-1,43
 289 260 289 260 395 260 c 0,44,45
 504 260 504 260 570.5 322.5 c 128,-1,46
 637 385 637 385 637 494 c 0,35,36
EndSplineSet
Validated: 1
EndChar

StartChar: nine
Encoding: 25 57 28
Width: 798
Flags: W
LayerCount: 2
Fore
SplineSet
731 739 m 0,0,1
 731 186 731 186 367 186 c 0,2,3
 140 186 140 186 90 426 c 1,4,-1
 176 434 l 1,5,6
 223 258 223 258 371 258 c 0,7,8
 463 258 463 258 530 328 c 0,9,10
 591 389 591 389 614 483 c 0,11,12
 632 561 632 561 643 715 c 1,13,14
 530 568 530 568 367 567 c 0,15,16
 232 567 232 567 149 658.5 c 128,-1,17
 66 750 66 750 66 885 c 0,18,19
 66 1032 66 1032 155 1133.5 c 128,-1,20
 244 1235 244 1235 389 1235 c 0,21,22
 606 1235 606 1235 690 1020 c 0,23,24
 731 917 731 917 731 739 c 0,0,1
621 885 m 0,25,26
 621 994 621 994 559 1073 c 0,27,28
 491 1161 491 1161 385 1161 c 0,29,30
 283 1161 283 1161 219 1077 c 0,31,32
 162 1001 162 1001 162 895 c 256,33,34
 162 789 162 789 217 721 c 0,35,36
 278 647 278 647 381 647 c 0,37,38
 485 647 485 647 553 715 c 128,-1,39
 621 783 621 783 621 885 c 0,25,26
EndSplineSet
Validated: 1
EndChar

StartChar: colon
Encoding: 26 58 29
Width: 399
Flags: W
LayerCount: 2
Fore
SplineSet
264 813 m 1,0,-1
 141 813 l 1,1,-1
 141 950 l 1,2,-1
 264 950 l 1,3,-1
 264 813 l 1,0,-1
264 205 m 1,4,-1
 141 205 l 1,5,-1
 141 342 l 1,6,-1
 264 342 l 1,7,-1
 264 205 l 1,4,-1
EndSplineSet
Validated: 1
EndChar

StartChar: semicolon
Encoding: 27 59 30
Width: 399
Flags: W
LayerCount: 2
Fore
SplineSet
266 813 m 1,0,-1
 145 813 l 1,1,-1
 145 950 l 1,2,-1
 266 950 l 1,3,-1
 266 813 l 1,0,-1
266 205 m 2,4,5
 266 80 266 80 174 12 c 1,6,-1
 137 63 l 1,7,8
 178 94 178 94 190 125 c 0,9,10
 200 150 200 150 201 205 c 1,11,-1
 145 205 l 1,12,-1
 145 342 l 1,13,-1
 266 342 l 1,14,-1
 266 205 l 2,4,5
EndSplineSet
Validated: 1
EndChar

StartChar: less
Encoding: 28 60 31
Width: 950
Flags: W
LayerCount: 2
Fore
SplineSet
848 362 m 1,0,-1
 94 680 l 1,1,-1
 94 739 l 1,2,-1
 848 1059 l 1,3,-1
 848 987 l 1,4,-1
 180 711 l 1,5,-1
 848 434 l 1,6,-1
 848 362 l 1,0,-1
EndSplineSet
Validated: 1
EndChar

StartChar: equal
Encoding: 29 61 32
Width: 950
Flags: W
LayerCount: 2
Fore
SplineSet
848 852 m 1,0,-1
 94 852 l 1,1,-1
 94 913 l 1,2,-1
 848 913 l 1,3,-1
 848 852 l 1,0,-1
848 506 m 1,4,-1
 94 506 l 1,5,-1
 94 571 l 1,6,-1
 848 571 l 1,7,-1
 848 506 l 1,4,-1
EndSplineSet
Validated: 1
EndChar

StartChar: greater
Encoding: 30 62 33
Width: 950
Flags: W
LayerCount: 2
Fore
SplineSet
848 682 m 1,0,-1
 94 362 l 1,1,-1
 94 434 l 1,2,-1
 762 711 l 1,3,-1
 94 987 l 1,4,-1
 94 1059 l 1,5,-1
 848 741 l 1,6,-1
 848 682 l 1,0,-1
EndSplineSet
Validated: 1
EndChar

StartChar: question
Encoding: 31 63 34
Width: 718
Flags: W
LayerCount: 2
Fore
SplineSet
662 979 m 256,0,1
 662 854 662 854 518 719 c 0,2,3
 440 645 440 645 418 604 c 0,4,5
 393 555 393 555 393 459 c 1,6,-1
 303 459 l 1,7,8
 303 486 303 486 303 496 c 0,9,10
 303 592 303 592 334 651 c 0,11,12
 361 704 361 704 438 772 c 0,13,14
 565 887 565 887 565 977 c 0,15,16
 565 1059 565 1059 507 1115 c 128,-1,17
 449 1171 449 1171 367 1171 c 0,18,19
 209 1171 209 1171 158 963 c 1,20,-1
 61 977 l 1,21,22
 127 1251 127 1251 375 1251 c 0,23,24
 500 1251 500 1251 581 1177.5 c 128,-1,25
 662 1104 662 1104 662 979 c 256,0,1
414 205 m 1,26,-1
 293 205 l 1,27,-1
 293 340 l 1,28,-1
 414 340 l 1,29,-1
 414 205 l 1,26,-1
EndSplineSet
Validated: 1
EndChar

StartChar: at
Encoding: 32 64 35
Width: 1150
Flags: W
LayerCount: 2
Fore
SplineSet
1155 238 m 1,0,1
 1042 70 1042 70 856 2 c 0,2,3
 743 -39 743 -39 610 -39 c 0,4,5
 438 -39 438 -39 301 31 c 0,6,7
 151 107 151 107 75.5 251 c 128,-1,8
 0 395 0 395 0 565 c 0,9,10
 0 805 0 805 133 971 c 0,11,12
 303 1184 303 1184 608 1184 c 0,13,14
 882 1184 882 1184 1020 1006 c 0,15,16
 1133 865 1133 865 1133 674 c 0,17,18
 1133 391 1133 391 918 256 c 0,19,20
 840 205 840 205 770 205 c 0,21,22
 684 205 684 205 684 279 c 0,23,24
 684 299 684 299 690 334 c 1,25,26
 579 205 579 205 451 205 c 0,27,28
 338 205 338 205 268 299 c 0,29,30
 207 383 207 383 207 502 c 0,31,32
 207 611 207 611 259 719 c 128,-1,33
 311 827 311 827 399 883 c 0,34,35
 481 934 481 934 565 934 c 0,36,37
 704 934 704 934 780 799 c 1,38,-1
 805 915 l 1,39,-1
 891 915 l 1,40,-1
 772 352 l 2,41,42
 764 313 764 313 764 297 c 0,43,44
 764 268 764 268 797 268 c 0,45,46
 863 268 863 268 934 336 c 0,47,48
 993 393 993 393 1026 463 c 0,49,50
 1073 561 1073 561 1073 674 c 0,51,52
 1073 799 1073 799 1015.5 908.5 c 128,-1,53
 958 1018 958 1018 854 1072 c 128,-1,54
 750 1126 750 1126 604 1126 c 0,55,56
 362 1126 362 1126 209.5 967.5 c 128,-1,57
 57 809 57 809 57 565 c 0,58,59
 57 317 57 317 211 166.5 c 128,-1,60
 365 16 365 16 612 16 c 0,61,62
 907 16 907 16 1083 238 c 1,63,-1
 1155 238 l 1,0,1
748 672 m 0,64,65
 748 756 748 756 698.5 814 c 128,-1,66
 649 872 649 872 567 872 c 0,67,68
 442 872 442 872 365 741 c 0,69,70
 297 628 297 628 297 496 c 0,71,72
 297 406 297 406 340 342 c 0,73,74
 389 270 389 270 477 270 c 0,75,76
 573 270 573 270 653 385 c 0,77,78
 748 516 748 516 748 672 c 0,64,65
EndSplineSet
Validated: 1
EndChar

StartChar: A
Encoding: 33 65 36
Width: 958
Flags: W
LayerCount: 2
Fore
SplineSet
958 205 m 1,0,-1
 848 205 l 1,1,-1
 715 532 l 1,2,-1
 236 532 l 1,3,-1
 104 205 l 1,4,-1
 0 205 l 1,5,-1
 418 1235 l 1,6,-1
 520 1235 l 1,7,-1
 958 205 l 1,0,-1
682 614 m 1,8,-1
 469 1133 l 1,9,-1
 264 614 l 1,10,-1
 682 614 l 1,8,-1
EndSplineSet
Validated: 1
EndChar

StartChar: B
Encoding: 34 66 37
Width: 958
Flags: W
LayerCount: 2
Fore
SplineSet
879 494 m 0,0,1
 879 412 879 412 837 341 c 128,-1,2
 795 270 795 270 722 237.5 c 128,-1,3
 649 205 649 205 555 205 c 2,4,-1
 123 205 l 1,5,-1
 123 1235 l 1,6,-1
 512 1235 l 2,7,8
 647 1235 647 1235 733 1174 c 0,9,10
 829 1104 829 1104 829 973 c 0,11,12
 829 830 829 830 682 745 c 1,13,14
 879 680 879 680 879 494 c 0,0,1
733 969 m 0,15,16
 733 1147 733 1147 473 1147 c 2,17,-1
 223 1147 l 1,18,-1
 223 780 l 1,19,-1
 524 780 l 2,20,21
 616 780 616 780 674.5 829.5 c 128,-1,22
 733 879 733 879 733 969 c 0,15,16
778 494 m 0,23,24
 778 590 778 590 711 645 c 0,25,26
 648 694 648 694 549 694 c 2,27,-1
 223 694 l 1,28,-1
 223 287 l 1,29,-1
 545 287 l 2,30,31
 647 287 647 287 712.5 340.5 c 128,-1,32
 778 394 778 394 778 494 c 0,23,24
EndSplineSet
Validated: 1
EndChar

StartChar: C
Encoding: 35 67 38
Width: 1038
Flags: W
LayerCount: 2
Fore
SplineSet
975 528 m 1,0,1
 873 186 873 186 549 186 c 0,2,3
 248 186 248 186 133 446 c 0,4,5
 78 573 78 573 78 719 c 0,6,7
 78 944 78 944 201 1094 c 0,8,9
 330 1252 330 1252 551 1251 c 0,10,11
 850 1251 850 1251 961 950 c 1,12,-1
 868 926 l 1,13,14
 782 1172 782 1172 559 1171 c 0,15,16
 377 1171 377 1171 272 1030 c 0,17,18
 180 905 180 905 180 717 c 0,19,20
 180 434 180 434 352 322 c 0,21,22
 436 269 436 269 543 268 c 0,23,24
 801 268 801 268 887 553 c 1,25,-1
 975 528 l 1,0,1
EndSplineSet
Validated: 33
EndChar

StartChar: D
Encoding: 36 68 39
Width: 1038
Flags: W
LayerCount: 2
Fore
SplineSet
956 725 m 0,0,1
 956 485 956 485 848 350 c 0,2,3
 799 287 799 287 735 254 c 0,4,5
 645 205 645 205 520 205 c 2,6,-1
 125 205 l 1,7,-1
 125 1235 l 1,8,-1
 520 1235 l 2,9,10
 710 1235 710 1235 823 1116 c 0,11,12
 956 977 956 977 956 725 c 0,0,1
854 733 m 0,13,14
 854 932 854 932 760 1042 c 0,15,16
 670 1146 670 1146 465 1147 c 2,17,-1
 223 1147 l 1,18,-1
 223 291 l 1,19,-1
 465 291 l 2,20,21
 569 291 569 291 629 309 c 0,22,23
 705 332 705 332 762 399 c 0,24,25
 854 508 854 508 854 733 c 0,13,14
EndSplineSet
Validated: 1
EndChar

StartChar: E
Encoding: 37 69 40
Width: 878
Flags: W
LayerCount: 2
Fore
SplineSet
809 205 m 1,0,-1
 129 205 l 1,1,-1
 129 1235 l 1,2,-1
 788 1235 l 1,3,-1
 788 1147 l 1,4,-1
 227 1147 l 1,5,-1
 227 778 l 1,6,-1
 745 778 l 1,7,-1
 745 692 l 1,8,-1
 227 692 l 1,9,-1
 227 289 l 1,10,-1
 809 289 l 1,11,-1
 809 205 l 1,0,-1
EndSplineSet
Validated: 1
EndChar

StartChar: F
Encoding: 38 70 41
Width: 798
Flags: W
LayerCount: 2
Fore
SplineSet
733 1149 m 1,0,-1
 223 1149 l 1,1,-1
 223 774 l 1,2,-1
 657 774 l 1,3,-1
 657 690 l 1,4,-1
 223 690 l 1,5,-1
 223 205 l 1,6,-1
 125 205 l 1,7,-1
 125 1235 l 1,8,-1
 733 1235 l 1,9,-1
 733 1149 l 1,0,-1
EndSplineSet
Validated: 1
EndChar

StartChar: G
Encoding: 39 71 42
Width: 1118
Flags: W
LayerCount: 2
Fore
SplineSet
1028 336 m 1,0,1
 823 189 823 189 600 188 c 0,2,3
 367 188 367 188 224.5 329.5 c 128,-1,4
 82 471 82 471 82 707 c 0,5,6
 82 955 82 955 216 1103 c 128,-1,7
 350 1251 350 1251 594 1251 c 0,8,9
 842 1251 842 1251 952 1092 c 0,10,11
 989 1041 989 1041 1012 958 c 1,12,-1
 918 930 l 1,13,14
 838 1172 838 1172 588 1171 c 0,15,16
 395 1171 395 1171 285 1038 c 0,17,18
 183 915 183 915 182 717 c 0,19,20
 182 522 182 522 289 399 c 0,21,22
 400 268 400 268 590 268 c 0,23,24
 778 268 778 268 932 381 c 1,25,-1
 932 633 l 1,26,-1
 604 633 l 1,27,-1
 604 717 l 1,28,-1
 1028 717 l 1,29,-1
 1028 336 l 1,0,1
EndSplineSet
Validated: 33
EndChar

StartChar: H
Encoding: 40 72 43
Width: 1038
Flags: W
LayerCount: 2
Fore
SplineSet
911 205 m 1,0,-1
 815 205 l 1,1,-1
 815 705 l 1,2,-1
 219 705 l 1,3,-1
 219 205 l 1,4,-1
 123 205 l 1,5,-1
 123 1235 l 1,6,-1
 219 1235 l 1,7,-1
 219 791 l 1,8,-1
 815 791 l 1,9,-1
 815 1235 l 1,10,-1
 911 1235 l 1,11,-1
 911 205 l 1,0,-1
EndSplineSet
Validated: 1
EndChar

StartChar: I
Encoding: 41 73 44
Width: 399
Flags: W
LayerCount: 2
Fore
SplineSet
250 205 m 1,0,-1
 154 205 l 1,1,-1
 154 1235 l 1,2,-1
 250 1235 l 1,3,-1
 250 205 l 1,0,-1
EndSplineSet
Validated: 1
EndChar

StartChar: J
Encoding: 42 74 45
Width: 718
Flags: W
LayerCount: 2
Fore
SplineSet
592 498 m 2,0,1
 592 189 592 189 303 188 c 0,2,3
 49 188 49 188 35 489 c 1,4,-1
 123 498 l 1,5,6
 139 269 139 269 313 268 c 0,7,8
 495 268 495 268 496 498 c 2,9,-1
 496 1235 l 1,10,-1
 592 1235 l 1,11,-1
 592 498 l 2,0,1
EndSplineSet
Validated: 1
EndChar

StartChar: K
Encoding: 43 75 46
Width: 958
Flags: W
LayerCount: 2
Fore
SplineSet
956 205 m 1,0,-1
 827 205 l 1,1,-1
 410 754 l 1,2,-1
 223 586 l 1,3,-1
 223 205 l 1,4,-1
 127 205 l 1,5,-1
 127 1235 l 1,6,-1
 223 1235 l 1,7,-1
 223 696 l 1,8,-1
 805 1235 l 1,9,-1
 938 1235 l 1,10,-1
 473 813 l 1,11,-1
 956 205 l 1,0,-1
EndSplineSet
Validated: 1
EndChar

StartChar: L
Encoding: 44 76 47
Width: 798
Flags: W
LayerCount: 2
Fore
SplineSet
741 205 m 1,0,-1
 125 205 l 1,1,-1
 125 1235 l 1,2,-1
 221 1235 l 1,3,-1
 221 289 l 1,4,-1
 741 289 l 1,5,-1
 741 205 l 1,0,-1
EndSplineSet
Validated: 1
EndChar

StartChar: M
Encoding: 45 77 48
Width: 1198
Flags: W
LayerCount: 2
Fore
SplineSet
1069 205 m 1,0,-1
 973 205 l 1,1,-1
 989 1128 l 1,2,-1
 637 205 l 1,3,-1
 555 205 l 1,4,-1
 209 1128 l 1,5,-1
 223 205 l 1,6,-1
 127 205 l 1,7,-1
 127 1235 l 1,8,-1
 264 1235 l 1,9,-1
 596 344 l 1,10,-1
 932 1235 l 1,11,-1
 1069 1235 l 1,12,-1
 1069 205 l 1,0,-1
EndSplineSet
Validated: 1
EndChar

StartChar: N
Encoding: 46 78 49
Width: 1038
Flags: W
LayerCount: 2
Fore
SplineSet
909 205 m 1,0,-1
 807 205 l 1,1,-1
 213 1081 l 1,2,-1
 221 205 l 1,3,-1
 123 205 l 1,4,-1
 123 1235 l 1,5,-1
 221 1235 l 1,6,-1
 821 346 l 1,7,-1
 813 1235 l 1,8,-1
 909 1235 l 1,9,-1
 909 205 l 1,0,-1
EndSplineSet
Validated: 1
EndChar

StartChar: O
Encoding: 47 79 50
Width: 1118
Flags: W
LayerCount: 2
Fore
SplineSet
1040 719 m 0,0,1
 1040 514 1040 514 942 371 c 0,2,3
 817 187 817 187 561 186 c 0,4,5
 332 186 332 186 203 342 c 0,6,7
 82 487 82 487 82 719 c 0,8,9
 82 952 82 952 203 1096 c 0,10,11
 332 1252 332 1252 561 1251 c 256,12,13
 790 1251 790 1251 920 1098 c 0,14,15
 1040 952 1040 952 1040 719 c 0,0,1
940 719 m 0,16,17
 940 1014 940 1014 748 1122 c 0,18,19
 660 1171 660 1171 561 1171 c 0,20,21
 334 1171 334 1171 236 967 c 0,22,23
 185 863 185 863 184 719 c 0,24,25
 184 428 184 428 375 319 c 0,26,27
 467 268 467 268 561 268 c 0,28,29
 667 268 667 268 755.5 323.5 c 128,-1,30
 844 379 844 379 891 475 c 0,31,32
 940 580 940 580 940 719 c 0,16,17
EndSplineSet
Validated: 33
EndChar

StartChar: P
Encoding: 48 80 51
Width: 878
Flags: W
LayerCount: 2
Fore
SplineSet
819 940 m 0,0,1
 819 854 819 854 776 779.5 c 128,-1,2
 733 705 733 705 658.5 673 c 128,-1,3
 584 641 584 641 487 641 c 2,4,-1
 227 641 l 1,5,-1
 227 205 l 1,6,-1
 129 205 l 1,7,-1
 129 1235 l 1,8,-1
 487 1235 l 2,9,10
 637 1235 637 1235 725 1163 c 0,11,12
 819 1085 819 1085 819 940 c 0,0,1
717 936 m 0,13,14
 717 1145 717 1145 461 1145 c 2,15,-1
 227 1145 l 1,16,-1
 227 725 l 1,17,-1
 461 725 l 2,18,19
 717 725 717 725 717 936 c 0,13,14
EndSplineSet
Validated: 1
EndChar

StartChar: Q
Encoding: 49 81 52
Width: 1118
Flags: W
LayerCount: 2
Fore
SplineSet
1063 205 m 1,0,-1
 1036 137 l 1,1,2
 944 170 944 170 823 256 c 1,3,4
 712 186 712 186 561 186 c 0,5,6
 307 186 307 186 180 373 c 0,7,8
 82 514 82 514 82 719 c 0,9,10
 82 952 82 952 203 1096 c 0,11,12
 332 1252 332 1252 561 1251 c 0,13,14
 817 1251 817 1251 942 1067 c 0,15,16
 1040 926 1040 926 1040 719 c 0,17,18
 1040 459 1040 459 889 307 c 1,19,20
 977 246 977 246 1063 205 c 1,0,-1
940 719 m 0,21,22
 940 1010 940 1010 750 1120 c 0,23,24
 658 1171 658 1171 561 1171 c 0,25,26
 457 1171 457 1171 368 1115 c 128,-1,27
 279 1059 279 1059 233 963 c 0,28,29
 184 861 184 861 184 719 c 0,30,31
 184 428 184 428 375 319 c 0,32,33
 467 268 467 268 561 268 c 256,34,35
 655 268 655 268 741 315 c 1,36,37
 667 372 667 372 569 403 c 1,38,-1
 592 475 l 1,39,40
 694 452 694 452 809 362 c 1,41,42
 940 486 940 486 940 719 c 0,21,22
EndSplineSet
Validated: 33
EndChar

StartChar: R
Encoding: 50 82 53
Width: 958
Flags: W
LayerCount: 2
Fore
SplineSet
956 205 m 1,0,-1
 834 205 l 1,1,-1
 694 422 l 2,2,3
 602 565 602 565 567 600 c 0,4,5
 487 678 487 678 373 678 c 2,6,-1
 225 678 l 1,7,-1
 225 205 l 1,8,-1
 127 205 l 1,9,-1
 127 1235 l 1,10,-1
 559 1235 l 2,11,12
 698 1235 698 1235 780 1167 c 0,13,14
 870 1095 870 1095 870 961 c 0,15,16
 870 715 870 715 571 686 c 1,17,18
 682 629 682 629 762 508 c 2,19,-1
 956 205 l 1,0,-1
768 958 m 0,20,21
 768 1062 768 1062 684 1114 c 0,22,23
 631 1147 631 1147 500 1147 c 2,24,-1
 225 1147 l 1,25,-1
 225 762 l 1,26,-1
 496 762 l 2,27,28
 768 761 768 761 768 958 c 0,20,21
EndSplineSet
Validated: 33
EndChar

StartChar: S
Encoding: 51 83 54
Width: 878
Flags: W
LayerCount: 2
Fore
SplineSet
811 489 m 0,0,1
 811 344 811 344 698 260 c 0,2,3
 600 186 600 186 446 186 c 0,4,5
 96 186 96 186 66 514 c 1,6,-1
 162 522 l 1,7,8
 180 362 180 362 295 301 c 0,9,10
 358 268 358 268 440 268 c 0,11,12
 620 268 620 268 686 377 c 0,13,14
 717 428 717 428 717 483 c 0,15,16
 717 639 717 639 449 688 c 0,17,18
 291 717 291 717 215 768 c 0,19,20
 106 842 106 842 106 977 c 0,21,22
 106 1110 106 1110 207 1184 c 0,23,24
 297 1252 297 1252 434 1251 c 0,25,26
 762 1251 762 1251 780 963 c 1,27,-1
 684 958 l 1,28,29
 668 1171 668 1171 442 1171 c 0,30,31
 346 1171 346 1171 281 1128 c 0,32,33
 203 1077 203 1077 203 985 c 0,34,35
 203 838 203 838 449 788 c 0,36,37
 570 763 570 763 627 741 c 0,38,39
 725 702 725 702 772 633 c 0,40,41
 811 573 811 573 811 489 c 0,0,1
EndSplineSet
Validated: 33
EndChar

StartChar: T
Encoding: 52 84 55
Width: 798
Flags: W
LayerCount: 2
Fore
SplineSet
762 1145 m 1,0,-1
 444 1145 l 1,1,-1
 444 205 l 1,2,-1
 346 205 l 1,3,-1
 346 1145 l 1,4,-1
 33 1145 l 1,5,-1
 33 1235 l 1,6,-1
 762 1235 l 1,7,-1
 762 1145 l 1,0,-1
EndSplineSet
Validated: 1
EndChar

StartChar: U
Encoding: 53 85 56
Width: 1038
Flags: W
LayerCount: 2
Fore
SplineSet
911 584 m 2,0,1
 911 385 911 385 810 285.5 c 128,-1,2
 709 186 709 186 520 186 c 0,3,4
 123 186 123 186 123 582 c 2,5,-1
 123 1235 l 1,6,-1
 221 1235 l 1,7,-1
 221 575 l 2,8,9
 221 268 221 268 518 268 c 0,10,11
 811 268 811 268 811 573 c 2,12,-1
 811 1235 l 1,13,-1
 911 1235 l 1,14,-1
 911 584 l 2,0,1
EndSplineSet
Validated: 1
EndChar

StartChar: V
Encoding: 54 86 57
Width: 878
Flags: W
LayerCount: 2
Fore
SplineSet
872 1235 m 1,0,-1
 489 205 l 1,1,-1
 387 205 l 1,2,-1
 10 1235 l 1,3,-1
 115 1235 l 1,4,-1
 440 309 l 1,5,-1
 774 1235 l 1,6,-1
 872 1235 l 1,0,-1
EndSplineSet
Validated: 1
EndChar

StartChar: W
Encoding: 55 87 58
Width: 1277
Flags: W
LayerCount: 2
Fore
SplineSet
1260 1235 m 1,0,-1
 983 205 l 1,1,-1
 885 205 l 1,2,-1
 639 1124 l 1,3,-1
 385 205 l 1,4,-1
 289 205 l 1,5,-1
 14 1235 l 1,6,-1
 115 1235 l 1,7,-1
 338 342 l 1,8,-1
 578 1235 l 1,9,-1
 696 1235 l 1,10,-1
 934 348 l 1,11,-1
 1165 1235 l 1,12,-1
 1260 1235 l 1,0,-1
EndSplineSet
Validated: 1
EndChar

StartChar: X
Encoding: 56 88 59
Width: 878
Flags: W
LayerCount: 2
Fore
SplineSet
877 205 m 1,0,-1
 758 205 l 1,1,-1
 449 664 l 1,2,-1
 125 205 l 1,3,-1
 8 205 l 1,4,-1
 395 741 l 1,5,-1
 63 1235 l 1,6,-1
 178 1235 l 1,7,-1
 449 821 l 1,8,-1
 745 1235 l 1,9,-1
 846 1235 l 1,10,-1
 506 752 l 1,11,-1
 877 205 l 1,0,-1
EndSplineSet
Validated: 1
EndChar

StartChar: Y
Encoding: 57 89 60
Width: 878
Flags: W
LayerCount: 2
Fore
SplineSet
872 1235 m 1,0,-1
 485 649 l 1,1,-1
 485 205 l 1,2,-1
 387 205 l 1,3,-1
 387 649 l 1,4,-1
 12 1235 l 1,5,-1
 127 1235 l 1,6,-1
 440 741 l 1,7,-1
 762 1235 l 1,8,-1
 872 1235 l 1,0,-1
EndSplineSet
Validated: 1
EndChar

StartChar: Z
Encoding: 58 90 61
Width: 878
Flags: W
LayerCount: 2
Fore
SplineSet
836 205 m 1,0,-1
 35 205 l 1,1,-1
 35 295 l 1,2,-1
 700 1151 l 1,3,-1
 94 1151 l 1,4,-1
 94 1235 l 1,5,-1
 821 1235 l 1,6,-1
 821 1151 l 1,7,-1
 150 289 l 1,8,-1
 836 289 l 1,9,-1
 836 205 l 1,0,-1
EndSplineSet
Validated: 1
EndChar

StartChar: bracketleft
Encoding: 59 91 62
Width: 479
Flags: W
LayerCount: 2
Fore
SplineSet
442 -84 m 1,0,-1
 111 -84 l 1,1,-1
 111 1235 l 1,2,-1
 442 1235 l 1,3,-1
 442 1161 l 1,4,-1
 199 1161 l 1,5,-1
 199 -10 l 1,6,-1
 442 -10 l 1,7,-1
 442 -84 l 1,0,-1
EndSplineSet
Validated: 1
EndChar

StartChar: backslash
Encoding: 60 92 63
Width: 399
Flags: W
LayerCount: 2
Fore
SplineSet
403 178 m 1,0,-1
 338 178 l 1,1,-1
 0 1251 l 1,2,-1
 68 1251 l 1,3,-1
 403 178 l 1,0,-1
EndSplineSet
Validated: 1
EndChar

StartChar: bracketright
Encoding: 61 93 64
Width: 479
Flags: W
LayerCount: 2
Fore
SplineSet
369 -84 m 1,0,-1
 37 -84 l 1,1,-1
 37 -10 l 1,2,-1
 281 -10 l 1,3,-1
 281 1161 l 1,4,-1
 37 1161 l 1,5,-1
 37 1235 l 1,6,-1
 369 1235 l 1,7,-1
 369 -84 l 1,0,-1
EndSplineSet
Validated: 1
EndChar

StartChar: asciicircum
Encoding: 62 94 65
Width: 878
Flags: W
LayerCount: 2
Fore
SplineSet
879 -2 m 0,0,1
 879 -27 879 -27 859.5 -44 c 128,-1,2
 840 -61 840 -61 815 -61 c 0,3,4
 780 -61 780 -61 762 -27 c 2,5,-1
 512 477 l 1,6,-1
 260 -27 l 2,7,8
 242 -62 242 -62 207 -61 c 0,9,10
 182 -61 182 -61 162.5 -44 c 128,-1,11
 143 -27 143 -27 143 -2 c 0,12,13
 143 12 143 12 150 27 c 2,14,-1
 451 631 l 2,15,16
 474 676 474 676 512 676 c 0,17,18
 549 676 549 676 571 631 c 2,19,-1
 872 27 l 2,20,21
 879 12 879 12 879 -2 c 0,0,1
EndSplineSet
Validated: 1
EndChar

StartChar: underscore
Encoding: 63 95 66
Width: 718
Flags: W
LayerCount: 2
Fore
SplineSet
727 25 m 1,0,-1
 -8 25 l 1,1,-1
 -8 96 l 1,2,-1
 727 96 l 1,3,-1
 727 25 l 1,0,-1
EndSplineSet
Validated: 1
EndChar

StartChar: grave
Encoding: 64 96 67
Width: 479
Flags: W
LayerCount: 2
Fore
SplineSet
319 1049 m 1,0,-1
 248 1049 l 1,1,-1
 90 1235 l 1,2,-1
 229 1235 l 1,3,-1
 319 1049 l 1,0,-1
EndSplineSet
Validated: 1
EndChar

StartChar: a
Encoding: 65 97 68
Width: 798
Flags: W
LayerCount: 2
Fore
SplineSet
729 205 m 1,0,-1
 633 205 l 1,1,2
 613 258 613 258 606 319 c 1,3,4
 485 188 485 188 301 188 c 0,5,6
 199 188 199 188 135 240 c 0,7,8
 65 295 65 295 66 395 c 0,9,10
 66 532 66 532 193 588 c 0,11,12
 248 613 248 613 392.5 632 c 128,-1,13
 537 651 537 651 598 674 c 1,14,15
 598 762 598 762 592 788 c 0,16,17
 580 845 580 845 531.5 872 c 128,-1,18
 483 899 483 899 403 899 c 0,19,20
 208 899 208 899 170 733 c 1,21,-1
 82 748 l 1,22,23
 105 871 105 871 193 924 c 0,24,25
 267 967 267 967 401 967 c 0,26,27
 620 967 620 967 666 844 c 0,28,29
 689 783 689 783 686 651 c 2,30,-1
 684 440 l 2,31,32
 682 305 682 305 729 205 c 1,0,-1
598 557 m 2,33,-1
 598 606 l 1,34,35
 524 577 524 577 362 549 c 0,36,37
 241 529 241 529 207 504 c 0,38,39
 158 467 158 467 158 401 c 0,40,41
 158 338 158 338 205 302 c 128,-1,42
 252 266 252 266 319 266 c 0,43,44
 393 266 393 266 461 299 c 0,45,46
 539 336 539 336 568.5 393.5 c 128,-1,47
 598 451 598 451 598 557 c 2,33,-1
EndSplineSet
Validated: 33
EndChar

StartChar: b
Encoding: 66 98 69
Width: 878
Flags: W
LayerCount: 2
Fore
SplineSet
815 584 m 0,0,1
 815 414 815 414 733 305 c 0,2,3
 641 188 641 188 475 188 c 0,4,5
 311 188 311 188 203 317 c 1,6,-1
 203 205 l 1,7,-1
 117 205 l 1,8,-1
 117 1235 l 1,9,-1
 203 1235 l 1,10,-1
 203 829 l 1,11,12
 316 966 316 966 483 967 c 0,13,14
 645 967 645 967 733 852 c 0,15,16
 815 748 815 748 815 584 c 0,0,1
723 575 m 0,17,18
 723 706 723 706 666 793 c 0,19,20
 598 895 598 895 473 895 c 0,21,22
 338 895 338 895 266 795 c 0,23,24
 203 709 203 709 203 565 c 0,25,26
 203 432 203 432 266 350 c 0,27,28
 338 260 338 260 469 260 c 0,29,30
 592 260 592 260 662 360 c 0,31,32
 723 448 723 448 723 575 c 0,17,18
EndSplineSet
Validated: 1
EndChar

StartChar: c
Encoding: 67 99 70
Width: 798
Flags: W
LayerCount: 2
Fore
SplineSet
733 446 m 1,0,1
 696 288 696 288 573 225 c 0,2,3
 501 188 501 188 399 188 c 0,4,5
 233 188 233 188 145 301 c 0,6,7
 63 405 63 405 63 578 c 0,8,9
 63 775 63 775 166 877 c 0,10,11
 256 967 256 967 403 967 c 0,12,13
 647 967 647 967 721 739 c 1,14,-1
 631 725 l 1,15,16
 582 893 582 893 399 893 c 0,17,18
 276 893 276 893 213 799 c 0,19,20
 156 717 156 717 156 588 c 0,21,22
 156 453 156 453 211 365 c 0,23,24
 277 259 277 259 403 258 c 0,25,26
 573 258 573 258 645 459 c 1,27,-1
 733 446 l 1,0,1
EndSplineSet
Validated: 1
EndChar

StartChar: d
Encoding: 68 100 71
Width: 878
Flags: W
LayerCount: 2
Fore
SplineSet
768 205 m 1,0,-1
 680 205 l 1,1,-1
 680 317 l 1,2,3
 563 188 563 188 399 188 c 0,4,5
 239 188 239 188 150 309 c 0,6,7
 70 418 70 418 70 584 c 256,8,9
 70 750 70 750 150 854 c 0,10,11
 240 967 240 967 401 967 c 0,12,13
 575 967 575 967 680 829 c 1,14,-1
 680 1235 l 1,15,-1
 768 1235 l 1,16,-1
 768 205 l 1,0,-1
682 580 m 0,17,18
 682 715 682 715 614 801 c 0,19,20
 540 895 540 895 410 895 c 0,21,22
 287 895 287 895 219 793 c 0,23,24
 160 705 160 705 160 575 c 0,25,26
 160 448 160 448 223 360 c 0,27,28
 293 260 293 260 416 260 c 0,29,30
 551 260 551 260 621 356 c 0,31,32
 682 441 682 441 682 580 c 0,17,18
EndSplineSet
Validated: 1
EndChar

StartChar: e
Encoding: 69 101 72
Width: 798
Flags: W
LayerCount: 2
Fore
SplineSet
731 567 m 1,0,-1
 158 567 l 1,1,2
 160 434 160 434 217 352 c 0,3,4
 283 260 283 260 410 260 c 0,5,6
 572 260 572 260 637 440 c 1,7,-1
 723 426 l 1,8,9
 637 188 637 188 403 188 c 0,10,11
 237 188 237 188 147 303 c 0,12,13
 67 405 67 405 68 578 c 256,14,15
 68 750 68 750 150 854 c 0,16,17
 238 967 238 967 406 967 c 0,18,19
 729 966 729 966 731 567 c 1,0,-1
637 639 m 1,20,21
 617 897 617 897 403 897 c 0,22,23
 294 897 294 897 229 819 c 0,24,25
 172 751 172 751 160 639 c 1,26,-1
 637 639 l 1,20,21
EndSplineSet
Validated: 33
EndChar

StartChar: f
Encoding: 70 102 73
Width: 399
Flags: W
LayerCount: 2
Fore
SplineSet
434 1235 m 1,0,-1
 418 1163 l 1,1,2
 369 1171 369 1171 346 1171 c 0,3,4
 272 1171 272 1171 248 1128 c 0,5,6
 230 1095 230 1095 229 1016 c 2,7,-1
 229 950 l 1,8,-1
 387 950 l 1,9,-1
 387 885 l 1,10,-1
 229 885 l 1,11,-1
 229 205 l 1,12,-1
 143 205 l 1,13,-1
 143 885 l 1,14,-1
 25 885 l 1,15,-1
 25 950 l 1,16,-1
 143 950 l 1,17,-1
 143 1028 l 2,18,19
 143 1141 143 1141 176 1184 c 0,20,21
 225 1252 225 1252 326 1251 c 0,22,23
 362 1251 362 1251 434 1235 c 1,0,-1
EndSplineSet
Validated: 33
EndChar

StartChar: g
Encoding: 71 103 74
Width: 878
Flags: W
LayerCount: 2
Fore
SplineSet
766 264 m 2,0,1
 766 78 766 78 680 -10 c 128,-1,2
 594 -98 594 -98 408 -98 c 0,3,4
 117 -98 117 -98 100 123 c 1,5,-1
 186 106 l 1,6,7
 215 -27 215 -27 393 -27 c 0,8,9
 680 -27 680 -27 680 246 c 2,10,-1
 680 319 l 1,11,12
 574 188 574 188 401 188 c 0,13,14
 241 188 241 188 154 305 c 0,15,16
 72 411 72 411 72 575 c 256,17,18
 72 739 72 739 152 848 c 0,19,20
 242 967 242 967 401 967 c 0,21,22
 579 967 579 967 680 825 c 1,23,-1
 680 950 l 1,24,-1
 766 950 l 1,25,-1
 766 264 l 2,0,1
680 569 m 0,26,27
 680 704 680 704 618 793 c 0,28,29
 548 893 548 893 420 893 c 256,30,31
 291 893 291 893 221 797 c 0,32,33
 162 711 162 711 162 578 c 0,34,35
 162 447 162 447 223 358 c 0,36,37
 293 258 293 258 418 258 c 0,38,39
 547 258 547 258 616 352 c 0,40,41
 680 436 680 436 680 569 c 0,26,27
EndSplineSet
Validated: 1
EndChar

StartChar: h
Encoding: 72 104 75
Width: 798
Flags: W
LayerCount: 2
Fore
SplineSet
692 205 m 1,0,-1
 602 205 l 1,1,-1
 602 668 l 2,2,3
 602 820 602 820 526 864 c 0,4,5
 485 891 485 891 430 891 c 0,6,7
 346 891 346 891 282.5 834.5 c 128,-1,8
 219 778 219 778 207 694 c 0,9,10
 199 633 199 633 199 528 c 2,11,-1
 199 205 l 1,12,-1
 111 205 l 1,13,-1
 111 1235 l 1,14,-1
 199 1235 l 1,15,-1
 199 840 l 1,16,17
 299 967 299 967 438 967 c 0,18,19
 692 967 692 967 692 692 c 2,20,-1
 692 205 l 1,0,-1
EndSplineSet
Validated: 1
EndChar

StartChar: i
Encoding: 73 105 76
Width: 319
Flags: W
LayerCount: 2
Fore
SplineSet
201 1102 m 1,0,-1
 115 1102 l 1,1,-1
 115 1235 l 1,2,-1
 201 1235 l 1,3,-1
 201 1102 l 1,0,-1
201 205 m 1,4,-1
 115 205 l 1,5,-1
 115 950 l 1,6,-1
 201 950 l 1,7,-1
 201 205 l 1,4,-1
EndSplineSet
Validated: 1
EndChar

StartChar: j
Encoding: 74 106 77
Width: 319
Flags: W
LayerCount: 2
Fore
SplineSet
201 1106 m 1,0,-1
 115 1106 l 1,1,-1
 115 1235 l 1,2,-1
 201 1235 l 1,3,-1
 201 1106 l 1,0,-1
201 145 m 2,4,5
 201 55 201 55 195 25 c 0,6,7
 183 -43 183 -43 135 -74 c 0,8,9
 96 -99 96 -99 45 -98 c 0,10,11
 16 -98 16 -98 -45 -82 c 1,12,-1
 -27 -6 l 1,13,14
 4 -14 4 -14 29 -14 c 0,15,16
 88 -14 88 -14 104 35 c 0,17,18
 114 60 114 60 115 135 c 2,19,-1
 115 950 l 1,20,-1
 201 950 l 1,21,-1
 201 145 l 2,4,5
EndSplineSet
Validated: 33
EndChar

StartChar: k
Encoding: 75 107 78
Width: 718
Flags: W
LayerCount: 2
Fore
SplineSet
713 205 m 1,0,-1
 598 205 l 1,1,-1
 315 612 l 1,2,-1
 203 512 l 1,3,-1
 203 205 l 1,4,-1
 115 205 l 1,5,-1
 115 1235 l 1,6,-1
 203 1235 l 1,7,-1
 203 604 l 1,8,-1
 567 950 l 1,9,-1
 690 950 l 1,10,-1
 379 672 l 1,11,-1
 713 205 l 1,0,-1
EndSplineSet
Validated: 1
EndChar

StartChar: l
Encoding: 76 108 79
Width: 319
Flags: W
LayerCount: 2
Fore
SplineSet
201 205 m 1,0,-1
 115 205 l 1,1,-1
 115 1235 l 1,2,-1
 201 1235 l 1,3,-1
 201 205 l 1,0,-1
EndSplineSet
Validated: 1
EndChar

StartChar: m
Encoding: 77 109 80
Width: 1198
Flags: W
LayerCount: 2
Fore
SplineSet
1083 205 m 1,0,-1
 995 205 l 1,1,-1
 995 668 l 2,2,3
 995 785 995 785 973 825 c 0,4,5
 934 893 934 893 844 893 c 0,6,7
 738 893 738 893 684 799 c 0,8,9
 643 731 643 731 643 571 c 2,10,-1
 643 205 l 1,11,-1
 561 205 l 1,12,-1
 561 676 l 2,13,14
 561 782 561 782 537 825 c 0,15,16
 498 888 498 888 414 889 c 0,17,18
 314 889 314 889 258.5 812 c 128,-1,19
 203 735 203 735 203 602 c 2,20,-1
 203 205 l 1,21,-1
 115 205 l 1,22,-1
 115 950 l 1,23,-1
 203 950 l 1,24,-1
 203 844 l 1,25,26
 295 967 295 967 430 967 c 0,27,28
 573 967 573 967 629 844 c 1,29,30
 729 967 729 967 862 967 c 0,31,32
 1083 967 1083 967 1083 713 c 2,33,-1
 1083 205 l 1,0,-1
EndSplineSet
Validated: 1
EndChar

StartChar: n
Encoding: 78 110 81
Width: 798
Flags: W
LayerCount: 2
Fore
SplineSet
692 205 m 1,0,-1
 602 205 l 1,1,-1
 602 668 l 2,2,3
 602 820 602 820 526 864 c 0,4,5
 485 891 485 891 430 891 c 0,6,7
 346 891 346 891 282.5 834.5 c 128,-1,8
 219 778 219 778 207 694 c 0,9,10
 199 633 199 633 199 528 c 2,11,-1
 199 205 l 1,12,-1
 111 205 l 1,13,-1
 111 950 l 1,14,-1
 199 950 l 1,15,-1
 199 840 l 1,16,17
 299 967 299 967 438 967 c 0,18,19
 692 967 692 967 692 692 c 2,20,-1
 692 205 l 1,0,-1
EndSplineSet
Validated: 1
EndChar

StartChar: o
Encoding: 79 111 82
Width: 798
Flags: W
LayerCount: 2
Fore
SplineSet
729 575 m 256,0,1
 729 401 729 401 651 301 c 0,2,3
 563 188 563 188 395 188 c 0,4,5
 235 188 235 188 145 303 c 0,6,7
 63 409 63 409 63 573 c 0,8,9
 63 747 63 747 143 852 c 0,10,11
 229 967 229 967 395 967 c 0,12,13
 565 967 565 967 653 852 c 0,14,15
 729 749 729 749 729 575 c 256,0,1
639 575 m 0,16,17
 639 708 639 708 586 793 c 0,18,19
 523 895 523 895 399 895 c 0,20,21
 274 895 274 895 209 797 c 0,22,23
 156 711 156 711 156 580 c 256,24,25
 156 449 156 449 211 362 c 0,26,27
 277 258 277 258 399 258 c 256,28,29
 522 258 522 258 586 360 c 0,30,31
 639 446 639 446 639 575 c 0,16,17
EndSplineSet
Validated: 1
EndChar

StartChar: p
Encoding: 80 112 83
Width: 878
Flags: W
LayerCount: 2
Fore
SplineSet
815 584 m 0,0,1
 815 414 815 414 733 305 c 0,2,3
 641 188 641 188 475 188 c 0,4,5
 311 188 311 188 203 317 c 1,6,-1
 203 -80 l 1,7,-1
 117 -80 l 1,8,-1
 117 950 l 1,9,-1
 203 950 l 1,10,-1
 203 829 l 1,11,12
 318 966 318 966 483 967 c 0,13,14
 645 967 645 967 733 852 c 0,15,16
 815 750 815 750 815 584 c 0,0,1
723 575 m 0,17,18
 723 706 723 706 666 793 c 0,19,20
 598 893 598 893 473 893 c 0,21,22
 338 893 338 893 266 795 c 0,23,24
 203 709 203 709 203 565 c 0,25,26
 203 432 203 432 266 350 c 0,27,28
 338 260 338 260 469 260 c 0,29,30
 592 260 592 260 662 360 c 0,31,32
 723 448 723 448 723 575 c 0,17,18
EndSplineSet
Validated: 1
EndChar

StartChar: q
Encoding: 81 113 84
Width: 878
Flags: W
LayerCount: 2
Fore
SplineSet
768 -80 m 1,0,-1
 680 -80 l 1,1,-1
 680 317 l 1,2,3
 563 188 563 188 401 188 c 256,4,5
 239 188 239 188 150 309 c 0,6,7
 70 415 70 415 70 584 c 0,8,9
 70 750 70 750 150 854 c 0,10,11
 240 967 240 967 401 967 c 0,12,13
 575 967 575 967 680 829 c 1,14,-1
 680 950 l 1,15,-1
 768 950 l 1,16,-1
 768 -80 l 1,0,-1
682 580 m 0,17,18
 682 715 682 715 614 801 c 0,19,20
 540 895 540 895 410 895 c 0,21,22
 287 895 287 895 219 793 c 0,23,24
 160 705 160 705 160 575 c 0,25,26
 160 448 160 448 223 360 c 0,27,28
 293 260 293 260 416 260 c 0,29,30
 551 260 551 260 621 356 c 0,31,32
 682 441 682 441 682 580 c 0,17,18
EndSplineSet
Validated: 1
EndChar

StartChar: r
Encoding: 82 114 85
Width: 479
Flags: W
LayerCount: 2
Fore
SplineSet
498 922 m 1,0,-1
 465 846 l 1,1,2
 397 875 397 875 365 874 c 0,3,4
 306 874 306 874 266.5 832.5 c 128,-1,5
 227 791 227 791 217 729 c 0,6,7
 203 635 203 635 203 555 c 2,8,-1
 203 205 l 1,9,-1
 115 205 l 1,10,-1
 115 950 l 1,11,-1
 193 950 l 1,12,-1
 193 799 l 1,13,14
 248 967 248 967 367 967 c 0,15,16
 426 967 426 967 498 922 c 1,0,-1
EndSplineSet
Validated: 33
EndChar

StartChar: s
Encoding: 83 115 86
Width: 718
Flags: W
LayerCount: 2
Fore
SplineSet
649 416 m 0,0,1
 649 301 649 301 557 240 c 0,2,3
 479 187 479 187 358 186 c 0,4,5
 106 186 106 186 53 408 c 1,6,-1
 143 422 l 1,7,8
 170 320 170 320 250 281 c 0,9,10
 295 258 295 258 360 258 c 0,11,12
 436 258 436 258 492 293 c 0,13,14
 558 332 558 332 557 403 c 0,15,16
 557 473 557 473 473 510 c 0,17,18
 434 528 434 528 332 549 c 0,19,20
 76 602 76 602 76 758 c 0,21,22
 76 860 76 860 160 918 c 0,23,24
 234 967 234 967 340 967 c 0,25,26
 457 967 457 967 520 926 c 0,27,28
 590 879 590 879 616 770 c 1,29,-1
 532 758 l 1,30,31
 507 836 507 836 466.5 865.5 c 128,-1,32
 426 895 426 895 342 895 c 0,33,34
 274 895 274 895 225 870 c 0,35,36
 166 837 166 837 166 774 c 0,37,38
 166 706 166 706 248 668 c 0,39,40
 287 652 287 652 391 629 c 0,41,42
 649 574 649 574 649 416 c 0,0,1
EndSplineSet
Validated: 33
EndChar

StartChar: t
Encoding: 84 116 87
Width: 399
Flags: W
LayerCount: 2
Fore
SplineSet
387 205 m 1,0,1
 330 193 330 193 295 193 c 0,2,3
 201 193 201 193 160 248 c 0,4,5
 135 283 135 283 135 385 c 2,6,-1
 135 885 l 1,7,-1
 31 885 l 1,8,-1
 31 950 l 1,9,-1
 135 950 l 1,10,-1
 135 1141 l 1,11,-1
 223 1198 l 1,12,-1
 223 950 l 1,13,-1
 365 950 l 1,14,-1
 365 885 l 1,15,-1
 223 885 l 1,16,-1
 223 395 l 2,17,18
 223 329 223 329 233 305 c 0,19,20
 251 266 251 266 307 266 c 0,21,22
 332 266 332 266 377 276 c 1,23,-1
 387 205 l 1,0,1
EndSplineSet
Validated: 1
EndChar

StartChar: u
Encoding: 85 117 88
Width: 798
Flags: W
LayerCount: 2
Fore
SplineSet
684 205 m 1,0,-1
 596 205 l 1,1,-1
 596 315 l 1,2,3
 498 188 498 188 354 188 c 0,4,5
 102 188 102 188 102 465 c 2,6,-1
 102 950 l 1,7,-1
 190 950 l 1,8,-1
 190 487 l 2,9,10
 190 335 190 335 266 291 c 0,11,12
 309 264 309 264 365 264 c 0,13,14
 449 264 449 264 512 320.5 c 128,-1,15
 575 377 575 377 588 461 c 0,16,17
 596 520 596 520 596 627 c 2,18,-1
 596 950 l 1,19,-1
 684 950 l 1,20,-1
 684 205 l 1,0,-1
EndSplineSet
Validated: 1
EndChar

StartChar: v
Encoding: 86 118 89
Width: 718
Flags: W
LayerCount: 2
Fore
SplineSet
698 950 m 1,0,-1
 399 205 l 1,1,-1
 319 205 l 1,2,-1
 20 950 l 1,3,-1
 115 950 l 1,4,-1
 358 311 l 1,5,-1
 606 950 l 1,6,-1
 698 950 l 1,0,-1
EndSplineSet
Validated: 1
EndChar

StartChar: w
Encoding: 87 119 90
Width: 1038
Flags: W
LayerCount: 2
Fore
SplineSet
1026 950 m 1,0,-1
 778 205 l 1,1,-1
 686 205 l 1,2,-1
 516 817 l 1,3,-1
 346 205 l 1,4,-1
 256 205 l 1,5,-1
 6 950 l 1,6,-1
 98 950 l 1,7,-1
 299 313 l 1,8,-1
 477 950 l 1,9,-1
 557 950 l 1,10,-1
 735 313 l 1,11,-1
 936 950 l 1,12,-1
 1026 950 l 1,0,-1
EndSplineSet
Validated: 1
EndChar

StartChar: x
Encoding: 88 120 91
Width: 718
Flags: W
LayerCount: 2
Fore
SplineSet
707 205 m 1,0,-1
 598 205 l 1,1,-1
 360 528 l 1,2,-1
 121 205 l 1,3,-1
 12 205 l 1,4,-1
 309 594 l 1,5,-1
 33 950 l 1,6,-1
 143 950 l 1,7,-1
 360 666 l 1,8,-1
 575 950 l 1,9,-1
 686 950 l 1,10,-1
 410 602 l 1,11,-1
 707 205 l 1,0,-1
EndSplineSet
Validated: 1
EndChar

StartChar: y
Encoding: 89 121 92
Width: 718
Flags: W
LayerCount: 2
Fore
SplineSet
707 950 m 1,0,-1
 354 57 l 2,1,2
 293 -99 293 -99 182 -98 c 0,3,4
 153 -98 153 -98 98 -84 c 1,5,-1
 88 4 l 1,6,7
 141 -8 141 -8 168 -8 c 0,8,9
 211 -8 211 -8 231 12 c 0,10,11
 247 26 247 26 266 74 c 2,12,-1
 319 205 l 1,13,-1
 25 950 l 1,14,-1
 121 950 l 1,15,-1
 367 305 l 1,16,-1
 621 950 l 1,17,-1
 707 950 l 1,0,-1
EndSplineSet
Validated: 33
EndChar

StartChar: z
Encoding: 90 122 93
Width: 718
Flags: W
LayerCount: 2
Fore
SplineSet
686 205 m 1,0,-1
 31 205 l 1,1,-1
 31 281 l 1,2,-1
 541 877 l 1,3,-1
 59 877 l 1,4,-1
 59 950 l 1,5,-1
 664 950 l 1,6,-1
 664 891 l 1,7,-1
 145 281 l 1,8,-1
 686 281 l 1,9,-1
 686 205 l 1,0,-1
EndSplineSet
Validated: 1
EndChar

StartChar: braceleft
Encoding: 91 123 94
Width: 479
Flags: W
LayerCount: 2
Fore
SplineSet
412 -98 m 1,0,1
 275 -98 275 -98 229 -6 c 0,2,3
 204 43 204 43 205 145 c 2,4,-1
 207 295 l 2,5,6
 209 467 209 467 145 510 c 0,7,8
 116 530 116 530 70 530 c 1,9,-1
 70 623 l 1,10,11
 209 623 209 623 207 856 c 2,12,-1
 205 940 l 2,13,14
 205 1051 205 1051 211 1092 c 0,15,16
 225 1178 225 1178 281 1219 c 0,17,18
 326 1254 326 1254 387 1253 c 0,19,20
 397 1253 397 1253 412 1251 c 1,21,-1
 412 1171 l 1,22,23
 359 1171 359 1171 338 1161 c 0,24,25
 307 1147 307 1147 295 1106 c 0,26,27
 281 1055 281 1055 283 936 c 0,28,29
 285 803 285 803 279 760 c 0,30,31
 267 672 267 672 211 618 c 0,32,33
 188 595 188 595 145 578 c 1,34,35
 247 531 247 531 274 418 c 0,36,37
 284 375 284 375 285 254 c 2,38,-1
 285 193 l 2,39,40
 285 23 285 23 326 -2 c 0,41,42
 346 -16 346 -16 412 -18 c 1,43,-1
 412 -98 l 1,0,1
EndSplineSet
Validated: 33
EndChar

StartChar: bar
Encoding: 92 124 95
Width: 319
Flags: W
LayerCount: 2
Fore
SplineSet
193 -80 m 1,0,-1
 121 -80 l 1,1,-1
 121 1235 l 1,2,-1
 193 1235 l 1,3,-1
 193 -80 l 1,0,-1
EndSplineSet
Validated: 1
EndChar

StartChar: braceright
Encoding: 93 125 96
Width: 479
Flags: W
LayerCount: 2
Fore
SplineSet
410 530 m 1,0,1
 273 530 273 530 272 299 c 2,2,-1
 272 213 l 2,3,4
 272 98 272 98 268 63 c 0,5,6
 254 -23 254 -23 199 -63 c 0,7,8
 152 -98 152 -98 92 -98 c 0,9,10
 80 -98 80 -98 68 -96 c 1,11,-1
 68 -18 l 1,12,13
 121 -16 121 -16 141 -6 c 0,14,15
 172 6 172 6 185.5 52 c 128,-1,16
 199 98 199 98 197 217 c 0,17,18
 195 352 195 352 201 395 c 0,19,20
 213 485 213 485 268 537 c 0,21,22
 291 557 291 557 334 578 c 1,23,24
 232 625 232 625 205 737 c 0,25,26
 193 786 193 786 195 899 c 2,27,-1
 195 963 l 2,28,29
 197 1129 197 1129 154 1157 c 0,30,31
 131 1169 131 1169 68 1174 c 1,32,-1
 68 1251 l 1,33,34
 207 1251 207 1251 250 1161 c 0,35,36
 275 1112 275 1112 274 1010 c 2,37,-1
 272 860 l 2,38,39
 272 688 272 688 334 643 c 0,40,41
 363 625 363 625 410 625 c 1,42,-1
 410 530 l 1,0,1
EndSplineSet
Validated: 33
EndChar

StartChar: asciitilde
Encoding: 94 126 97
Width: 950
Flags: W
LayerCount: 2
Fore
SplineSet
848 700 m 1,0,1
 768 649 768 649 735 637 c 0,2,3
 692 621 692 621 651 621 c 0,4,5
 620 621 620 621 575 633 c 0,6,7
 548 641 548 641 465 680 c 0,8,9
 350 733 350 733 297 733 c 0,10,11
 211 733 211 733 96 639 c 1,12,-1
 96 717 l 1,13,14
 211 801 211 801 293 801 c 0,15,16
 330 801 330 801 371 791 c 0,17,18
 400 783 400 783 475 745 c 0,19,20
 596 688 596 688 651 688 c 0,21,22
 731 688 731 688 848 784 c 1,23,-1
 848 700 l 1,0,1
EndSplineSet
Validated: 1
EndChar

StartChar: uE000
Encoding: 152 57344 163
Width: 1380
Flags: W
LayerCount: 2
Fore
SplineSet
1380 207 m 0,0,1
 1380 94 1380 94 1302.5 16.5 c 128,-1,2
 1225 -61 1225 -61 1114 -61 c 0,3,4
 1001 -61 1001 -61 923.5 16.5 c 128,-1,5
 846 94 846 94 846 207 c 0,6,7
 846 299 846 299 904.5 371.5 c 128,-1,8
 963 444 963 444 1053 467 c 1,9,-1
 1053 664 l 1,10,-1
 473 664 l 1,11,-1
 473 205 l 2,12,13
 473 144 473 144 412 143 c 256,14,15
 351 143 351 143 350 205 c 2,16,-1
 350 969 l 1,17,18
 260 992 260 992 201.5 1064.5 c 128,-1,19
 143 1137 143 1137 143 1231 c 0,20,21
 143 1342 143 1342 221 1419.5 c 128,-1,22
 299 1497 299 1497 412 1497 c 0,23,24
 523 1497 523 1497 600.5 1419 c 128,-1,25
 678 1341 678 1341 678 1231 c 0,26,27
 678 1137 678 1137 619.5 1064 c 128,-1,28
 561 991 561 991 473 969 c 1,29,-1
 473 786 l 1,30,-1
 1053 786 l 1,31,-1
 1053 1229 l 2,32,33
 1053 1290 1053 1290 1114 1290 c 256,34,35
 1175 1290 1175 1290 1176 1229 c 2,36,-1
 1176 467 l 1,37,38
 1264 444 1264 444 1322 371.5 c 128,-1,39
 1380 299 1380 299 1380 207 c 0,0,1
555 1231 m 0,40,41
 555 1290 555 1290 513 1332 c 128,-1,42
 471 1374 471 1374 412 1374 c 0,43,44
 351 1374 351 1374 308.5 1332 c 128,-1,45
 266 1290 266 1290 266 1231 c 0,46,47
 266 1170 266 1170 308 1127.5 c 128,-1,48
 350 1085 350 1085 412 1085 c 0,49,50
 471 1085 471 1085 513 1127.5 c 128,-1,51
 555 1170 555 1170 555 1231 c 0,40,41
1257 207 m 0,52,53
 1257 266 1257 266 1215.5 308 c 128,-1,54
 1174 350 1174 350 1114 350 c 0,55,56
 1053 350 1053 350 1011 308 c 128,-1,57
 969 266 969 266 969 207 c 0,58,59
 969 146 969 146 1011 103.5 c 128,-1,60
 1053 61 1053 61 1114 61 c 0,61,62
 1173 61 1173 61 1215 103.5 c 128,-1,63
 1257 146 1257 146 1257 207 c 0,52,53
EndSplineSet
Validated: 1
EndChar

StartChar: uE001
Encoding: 153 57345 164
Width: 1380
Flags: W
LayerCount: 2
Fore
SplineSet
1380 1233 m 0,0,1
 1380 1139 1380 1139 1322 1066 c 128,-1,2
 1264 993 1264 993 1176 973 c 1,3,-1
 1176 209 l 2,4,5
 1176 148 1176 148 1114 147 c 256,6,7
 1053 147 1053 147 1053 209 c 2,8,-1
 1053 651 l 1,9,-1
 473 651 l 1,10,-1
 473 469 l 1,11,12
 561 449 561 449 619.5 376 c 128,-1,13
 678 303 678 303 678 209 c 0,14,15
 678 98 678 98 600 19.5 c 128,-1,16
 522 -59 522 -59 412 -59 c 0,17,18
 299 -59 299 -59 221 19.5 c 128,-1,19
 143 98 143 98 143 209 c 0,20,21
 143 303 143 303 201.5 376 c 128,-1,22
 260 449 260 449 350 469 c 1,23,-1
 350 1233 l 2,24,25
 350 1294 350 1294 412 1294 c 256,26,27
 473 1294 473 1294 473 1233 c 2,28,-1
 473 774 l 1,29,-1
 1053 774 l 1,30,-1
 1053 973 l 1,31,32
 963 993 963 993 904.5 1066 c 128,-1,33
 846 1139 846 1139 846 1233 c 0,34,35
 846 1344 846 1344 923.5 1421.5 c 128,-1,36
 1001 1499 1001 1499 1114 1499 c 0,37,38
 1225 1499 1225 1499 1302.5 1421.5 c 128,-1,39
 1380 1344 1380 1344 1380 1233 c 0,0,1
1257 1233 m 256,40,41
 1257 1292 1257 1292 1215.5 1334 c 128,-1,42
 1174 1376 1174 1376 1114 1376 c 0,43,44
 1053 1376 1053 1376 1011 1334 c 128,-1,45
 969 1292 969 1292 969 1233 c 256,46,47
 969 1174 969 1174 1011 1130.5 c 128,-1,48
 1053 1087 1053 1087 1114 1087 c 0,49,50
 1173 1087 1173 1087 1215 1130.5 c 128,-1,51
 1257 1174 1257 1174 1257 1233 c 256,40,41
555 209 m 256,52,53
 555 268 555 268 513 310 c 128,-1,54
 471 352 471 352 412 352 c 0,55,56
 351 352 351 352 308.5 310 c 128,-1,57
 266 268 266 268 266 209 c 256,58,59
 266 150 266 150 308 106.5 c 128,-1,60
 350 63 350 63 412 63 c 0,61,62
 471 63 471 63 513 106.5 c 128,-1,63
 555 150 555 150 555 209 c 256,52,53
EndSplineSet
Validated: 1
EndChar

StartChar: uE002
Encoding: 154 57346 165
Width: 1495
Flags: W
LayerCount: 2
Fore
SplineSet
1489 1409 m 2,0,-1
 879 164 l 2,1,2
 859 121 859 121 819 121 c 256,3,4
 780 121 780 121 760 164 c 2,5,-1
 150 1409 l 2,6,7
 144 1423 144 1423 143 1438 c 0,8,9
 143 1463 143 1463 162.5 1480 c 128,-1,10
 182 1497 182 1497 207 1497 c 0,11,12
 244 1497 244 1497 260 1462 c 2,13,-1
 819 319 l 1,14,-1
 1378 1462 l 2,15,16
 1394 1497 1394 1497 1432 1497 c 0,17,18
 1457 1497 1457 1497 1476 1479.5 c 128,-1,19
 1495 1462 1495 1462 1495 1438 c 0,20,21
 1495 1423 1495 1423 1489 1409 c 2,0,-1
942 -227 m 256,22,23
 942 -278 942 -278 906 -314 c 128,-1,24
 870 -350 870 -350 819 -350 c 256,25,26
 768 -350 768 -350 732 -314.5 c 128,-1,27
 696 -279 696 -279 696 -227 c 256,28,29
 696 -176 696 -176 732 -140 c 128,-1,30
 768 -104 768 -104 819 -104 c 256,31,32
 870 -104 870 -104 906 -140 c 128,-1,33
 942 -176 942 -176 942 -227 c 256,22,23
EndSplineSet
Validated: 1
EndChar

StartChar: uE003
Encoding: 155 57347 166
Width: 1282
Flags: W
LayerCount: 2
Fore
SplineSet
1282 344 m 2,0,1
 1282 176 1282 176 1163 57.5 c 128,-1,2
 1044 -61 1044 -61 877 -61 c 256,3,4
 709 -61 709 -61 590 57.5 c 128,-1,5
 471 176 471 176 471 344 c 2,6,-1
 471 791 l 1,7,-1
 434 791 l 2,8,9
 313 791 313 791 228 877 c 128,-1,10
 143 963 143 963 143 1083 c 2,11,-1
 143 1313 l 2,12,13
 143 1374 143 1374 205 1374 c 256,14,15
 266 1374 266 1374 266 1313 c 2,16,-1
 266 1083 l 2,17,18
 266 1011 266 1011 315.5 962 c 128,-1,19
 365 913 365 913 434 913 c 2,20,-1
 471 913 l 1,21,-1
 471 1436 l 2,22,23
 471 1497 471 1497 532 1497 c 256,24,25
 593 1497 593 1497 594 1436 c 2,26,-1
 594 344 l 2,27,28
 594 227 594 227 677 144 c 128,-1,29
 760 61 760 61 877 61 c 256,30,31
 994 61 994 61 1076.5 144 c 128,-1,32
 1159 227 1159 227 1159 344 c 2,33,-1
 1159 1436 l 2,34,35
 1159 1497 1159 1497 1221 1497 c 256,36,37
 1282 1497 1282 1497 1282 1436 c 2,38,-1
 1282 344 l 2,0,1
EndSplineSet
Validated: 1
EndChar

StartChar: uE004
Encoding: 156 57348 167
Width: 954
Flags: W
LayerCount: 2
Fore
SplineSet
954 549 m 2,0,1
 954 381 954 381 835.5 262 c 128,-1,2
 717 143 717 143 549 143 c 256,3,4
 381 143 381 143 262 262 c 128,-1,5
 143 381 143 381 143 549 c 2,6,-1
 143 1436 l 2,7,8
 143 1497 143 1497 205 1497 c 256,9,10
 266 1497 266 1497 266 1436 c 2,11,-1
 266 549 l 2,12,13
 266 432 266 432 349 349 c 128,-1,14
 432 266 432 266 549 266 c 256,15,16
 666 266 666 266 748.5 349 c 128,-1,17
 831 432 831 432 831 549 c 2,18,-1
 831 1436 l 2,19,20
 831 1497 831 1497 893 1497 c 256,21,22
 954 1497 954 1497 954 1436 c 2,23,-1
 954 549 l 2,0,1
893 -61 m 2,24,-1
 205 -61 l 2,25,26
 144 -61 144 -61 143 0 c 256,27,28
 143 61 143 61 205 61 c 2,29,-1
 893 61 l 2,30,31
 954 61 954 61 954 0 c 256,32,33
 954 -61 954 -61 893 -61 c 2,24,-1
EndSplineSet
Validated: 1
EndChar

StartChar: uE005
Encoding: 157 57349 168
Width: 1210
Flags: W
LayerCount: 2
Fore
SplineSet
625 1495 m 256,0,1
 625 1444 625 1444 589 1408 c 128,-1,2
 553 1372 553 1372 502 1372 c 256,3,4
 451 1372 451 1372 415 1408 c 128,-1,5
 379 1444 379 1444 379 1495 c 256,6,7
 379 1546 379 1546 415 1582 c 128,-1,8
 451 1618 451 1618 502 1618 c 256,9,10
 553 1618 553 1618 589 1582 c 128,-1,11
 625 1546 625 1546 625 1495 c 256,0,1
1202 1176 m 2,12,-1
 864 737 l 1,13,-1
 864 0 l 2,14,15
 864 -61 864 -61 803 -61 c 256,16,17
 742 -61 742 -61 741 0 c 2,18,-1
 741 692 l 1,19,-1
 487 692 l 1,20,-1
 264 -18 l 2,21,22
 250 -61 250 -61 207 -61 c 0,23,24
 144 -61 144 -61 143 -2 c 0,25,26
 143 8 143 8 145 18 c 2,27,-1
 362 702 l 1,28,29
 266 729 266 729 204.5 809 c 128,-1,30
 143 889 143 889 143 991 c 0,31,32
 143 1114 143 1114 231 1202 c 128,-1,33
 319 1290 319 1290 442 1290 c 2,34,-1
 741 1290 l 1,35,-1
 741 1436 l 2,36,37
 741 1497 741 1497 803 1497 c 256,38,39
 864 1497 864 1497 864 1436 c 2,40,-1
 864 938 l 1,41,-1
 1104 1249 l 2,42,43
 1124 1276 1124 1276 1151 1276 c 0,44,45
 1176 1276 1176 1276 1196.5 1257.5 c 128,-1,46
 1217 1239 1217 1239 1217 1212 c 0,47,48
 1216 1194 1216 1194 1202 1176 c 2,12,-1
741 815 m 1,49,-1
 741 1167 l 1,50,-1
 442 1167 l 2,51,52
 368 1167 368 1167 317 1116 c 128,-1,53
 266 1065 266 1065 266 991 c 256,54,55
 266 917 266 917 317.5 866 c 128,-1,56
 369 815 369 815 442 815 c 2,57,-1
 741 815 l 1,49,-1
EndSplineSet
Validated: 1
EndChar

StartChar: uE006
Encoding: 158 57350 169
Width: 878
Flags: W
LayerCount: 2
Fore
SplineSet
879 0 m 2,0,1
 879 -61 879 -61 817 -61 c 256,2,3
 756 -61 756 -61 756 0 c 2,4,-1
 756 612 l 1,5,-1
 475 717 l 1,6,-1
 475 133 l 2,7,8
 475 57 475 57 429 -2 c 128,-1,9
 383 -61 383 -61 309 -61 c 256,10,11
 235 -61 235 -61 189 -2 c 128,-1,12
 143 57 143 57 143 133 c 0,13,14
 143 194 143 194 205 195 c 256,15,16
 266 195 266 195 266 133 c 0,17,18
 266 61 266 61 309 61 c 256,19,20
 352 61 352 61 352 133 c 2,21,-1
 352 762 l 1,22,-1
 193 819 l 2,23,24
 146 837 146 837 145 881 c 0,25,26
 145 916 145 916 178 938 c 2,27,-1
 756 1323 l 1,28,-1
 756 1436 l 2,29,30
 756 1497 756 1497 817 1497 c 256,31,32
 878 1497 878 1497 879 1436 c 2,33,-1
 879 0 l 2,0,1
756 743 m 1,34,-1
 756 1176 l 1,35,-1
 338 897 l 1,36,-1
 756 743 l 1,34,-1
EndSplineSet
Validated: 1
EndChar

StartChar: uE007
Encoding: 159 57351 170
Width: 1619
Flags: W
LayerCount: 2
Fore
SplineSet
1618 231 m 2,0,1
 1624 217 1624 217 1624 203 c 0,2,3
 1624 178 1624 178 1604.5 160.5 c 128,-1,4
 1585 143 1585 143 1561 143 c 0,5,6
 1524 143 1524 143 1507 178 c 2,7,-1
 1241 711 l 1,8,-1
 655 711 l 1,9,-1
 389 178 l 2,10,11
 371 143 371 143 336 143 c 0,12,13
 311 143 311 143 290.5 160.5 c 128,-1,14
 270 178 270 178 270 203 c 0,15,16
 270 217 270 217 279 231 c 2,17,-1
 887 1452 l 2,18,19
 910 1495 910 1495 948 1495 c 256,20,21
 987 1495 987 1495 1008 1452 c 2,22,-1
 1618 231 l 2,0,1
1010 0 m 2,23,24
 1010 -61 1010 -61 948 -61 c 2,25,-1
 205 -61 l 2,26,27
 144 -61 144 -61 143 0 c 256,28,29
 143 61 143 61 205 61 c 2,30,-1
 887 61 l 1,31,-1
 887 410 l 2,32,33
 887 471 887 471 948 471 c 256,34,35
 1009 471 1009 471 1010 410 c 2,36,-1
 1010 0 l 2,23,24
1180 834 m 1,37,-1
 948 1298 l 1,38,-1
 717 834 l 1,39,-1
 1180 834 l 1,37,-1
EndSplineSet
Validated: 1
EndChar

StartChar: uE008
Encoding: 160 57352 171
Width: 1314
Flags: W
LayerCount: 2
Fore
SplineSet
1309 414 m 2,0,1
 1315 398 1315 398 1315 383 c 0,2,3
 1315 358 1315 358 1295.5 341 c 128,-1,4
 1276 324 1276 324 1251 324 c 0,5,6
 1216 324 1216 324 1198 358 c 2,7,-1
 973 809 l 1,8,-1
 485 809 l 1,9,-1
 260 358 l 2,10,11
 242 323 242 323 207 324 c 0,12,13
 182 324 182 324 162.5 341 c 128,-1,14
 143 358 143 358 143 383 c 0,15,16
 143 397 143 397 150 414 c 2,17,-1
 670 1452 l 2,18,19
 690 1495 690 1495 729 1495 c 256,20,21
 768 1495 768 1495 788 1452 c 2,22,-1
 1309 414 l 2,0,1
791 131 m 2,23,24
 791 51 791 51 734.5 -5 c 128,-1,25
 678 -61 678 -61 598 -61 c 256,26,27
 518 -61 518 -61 462 -5 c 128,-1,28
 406 51 406 51 406 131 c 0,29,30
 406 192 406 192 467 193 c 256,31,32
 528 193 528 193 528 131 c 0,33,34
 528 102 528 102 548.5 81.5 c 128,-1,35
 569 61 569 61 598 61 c 256,36,37
 627 61 627 61 647.5 81.5 c 128,-1,38
 668 102 668 102 668 131 c 2,39,-1
 668 662 l 2,40,41
 668 723 668 723 729 723 c 256,42,43
 790 723 790 723 791 662 c 2,44,-1
 791 131 l 2,23,24
911 932 m 1,45,-1
 729 1298 l 1,46,-1
 547 932 l 1,47,-1
 911 932 l 1,45,-1
EndSplineSet
Validated: 1
EndChar

StartChar: uE009
Encoding: 161 57353 172
Width: 1292
Flags: W
LayerCount: 2
Fore
SplineSet
1231 1167 m 2,0,-1
 985 1167 l 1,1,-1
 985 0 l 2,2,3
 985 -61 985 -61 924 -61 c 256,4,5
 863 -61 863 -61 862 0 c 2,6,-1
 862 653 l 1,7,8
 610 630 610 630 438 443 c 128,-1,9
 266 256 266 256 266 0 c 0,10,11
 266 -61 266 -61 205 -61 c 256,12,13
 144 -61 144 -61 143 0 c 0,14,15
 143 238 143 238 276 436 c 0,16,17
 405 626 405 626 618 719 c 1,18,19
 405 809 405 809 276 999 c 0,20,21
 143 1198 143 1198 143 1436 c 0,22,23
 143 1497 143 1497 205 1497 c 256,24,25
 266 1497 266 1497 266 1436 c 0,26,27
 266 1180 266 1180 438 992.5 c 128,-1,28
 610 805 610 805 862 782 c 1,29,-1
 862 1167 l 1,30,-1
 616 1167 l 2,31,32
 555 1167 555 1167 555 1229 c 256,33,34
 555 1290 555 1290 616 1290 c 2,35,-1
 862 1290 l 1,36,-1
 862 1436 l 2,37,38
 862 1497 862 1497 924 1497 c 256,39,40
 985 1497 985 1497 985 1436 c 2,41,-1
 985 1290 l 1,42,-1
 1231 1290 l 2,43,44
 1290 1290 1290 1290 1290 1229 c 256,45,46
 1290 1167 1290 1167 1231 1167 c 2,0,-1
EndSplineSet
Validated: 1
EndChar

StartChar: uE00A
Encoding: 162 57354 173
Width: 1292
Flags: W
LayerCount: 2
Fore
SplineSet
1229 1374 m 2,0,-1
 1085 1374 l 1,1,-1
 1085 0 l 2,2,3
 1085 -61 1085 -61 1024 -61 c 256,4,5
 963 -61 963 -61 963 0 c 2,6,-1
 963 819 l 1,7,-1
 399 819 l 2,8,9
 344 819 344 819 305 780 c 128,-1,10
 266 741 266 741 266 686 c 256,11,12
 266 631 266 631 305 592 c 128,-1,13
 344 553 344 553 402.5 553 c 128,-1,14
 461 553 461 553 461 492 c 256,15,16
 461 431 461 431 399 430 c 0,17,18
 293 430 293 430 218 505 c 128,-1,19
 143 580 143 580 143 686 c 0,20,21
 143 805 143 805 233 881 c 1,22,23
 143 957 143 957 143 1075 c 0,24,25
 143 1181 143 1181 218 1256 c 128,-1,26
 293 1331 293 1331 399 1331 c 0,27,28
 460 1331 460 1331 461 1270 c 256,29,30
 461 1209 461 1209 402.5 1208.5 c 128,-1,31
 344 1208 344 1208 305 1169 c 128,-1,32
 266 1130 266 1130 266 1075 c 256,33,34
 266 1020 266 1020 305 981 c 128,-1,35
 344 942 344 942 399 942 c 2,36,-1
 963 942 l 1,37,-1
 963 1374 l 1,38,-1
 819 1374 l 2,39,40
 758 1374 758 1374 758 1436 c 256,41,42
 758 1497 758 1497 819 1497 c 2,43,-1
 1229 1497 l 2,44,45
 1290 1497 1290 1497 1290 1436 c 256,46,47
 1290 1374 1290 1374 1229 1374 c 2,0,-1
EndSplineSet
Validated: 1
EndChar

StartChar: uE00B
Encoding: 163 57355 174
Width: 1699
Flags: W
LayerCount: 2
Fore
SplineSet
1700 307 m 2,0,1
 1700 246 1700 246 1638 246 c 2,2,-1
 670 246 l 1,3,4
 647 158 647 158 575.5 99.5 c 128,-1,5
 504 41 504 41 410 41 c 0,6,7
 299 41 299 41 221 119 c 128,-1,8
 143 197 143 197 143 307 c 256,9,10
 143 418 143 418 221 495.5 c 128,-1,11
 299 573 299 573 410 573 c 0,12,13
 504 573 504 573 575.5 515 c 128,-1,14
 647 457 647 457 670 369 c 1,15,-1
 1577 369 l 1,16,-1
 1577 1067 l 1,17,-1
 670 1067 l 1,18,19
 647 979 647 979 575.5 920.5 c 128,-1,20
 504 862 504 862 410 862 c 0,21,22
 299 862 299 862 221 940 c 128,-1,23
 143 1018 143 1018 143 1128 c 256,24,25
 143 1239 143 1239 221 1317 c 128,-1,26
 299 1395 299 1395 410 1395 c 0,27,28
 504 1395 504 1395 575.5 1336.5 c 128,-1,29
 647 1278 647 1278 670 1190 c 1,30,-1
 1638 1190 l 2,31,32
 1699 1190 1699 1190 1700 1128 c 2,33,-1
 1700 307 l 2,0,1
553 1128 m 256,34,35
 553 1187 553 1187 511 1229.5 c 128,-1,36
 469 1272 469 1272 410 1272 c 256,37,38
 351 1272 351 1272 308.5 1230 c 128,-1,39
 266 1188 266 1188 266 1128 c 256,40,41
 266 1069 266 1069 308 1027 c 128,-1,42
 350 985 350 985 410 985 c 256,43,44
 469 985 469 985 511 1027 c 128,-1,45
 553 1069 553 1069 553 1128 c 256,34,35
553 307 m 256,46,47
 553 366 553 366 511 408.5 c 128,-1,48
 469 451 469 451 410 451 c 256,49,50
 351 451 351 451 308.5 409 c 128,-1,51
 266 367 266 367 266 307 c 256,52,53
 266 248 266 248 308 206 c 128,-1,54
 350 164 350 164 410 164 c 256,55,56
 469 164 469 164 511 206 c 128,-1,57
 553 248 553 248 553 307 c 256,46,47
EndSplineSet
Validated: 1
EndChar

StartChar: uE00C
Encoding: 164 57356 175
Width: 1699
Flags: W
LayerCount: 2
Fore
SplineSet
1708 307 m 256,0,1
 1708 196 1708 196 1630 118.5 c 128,-1,2
 1552 41 1552 41 1442 41 c 0,3,4
 1348 41 1348 41 1275 99.5 c 128,-1,5
 1202 158 1202 158 1182 246 c 1,6,-1
 211 246 l 2,7,8
 152 246 152 246 152 307 c 2,9,-1
 152 1128 l 2,10,11
 152 1189 152 1189 211 1190 c 2,12,-1
 1182 1190 l 1,13,14
 1202 1278 1202 1278 1275 1336.5 c 128,-1,15
 1348 1395 1348 1395 1442 1395 c 0,16,17
 1553 1395 1553 1395 1630.5 1317 c 128,-1,18
 1708 1239 1708 1239 1708 1128 c 256,19,20
 1708 1017 1708 1017 1630 939.5 c 128,-1,21
 1552 862 1552 862 1442 862 c 0,22,23
 1348 862 1348 862 1275 920.5 c 128,-1,24
 1202 979 1202 979 1182 1067 c 1,25,-1
 274 1067 l 1,26,-1
 274 369 l 1,27,-1
 1182 369 l 1,28,29
 1202 457 1202 457 1275 515 c 128,-1,30
 1348 573 1348 573 1442 573 c 0,31,32
 1553 573 1553 573 1630.5 495.5 c 128,-1,33
 1708 418 1708 418 1708 307 c 256,0,1
1585 1128 m 256,34,35
 1585 1187 1585 1187 1543 1229.5 c 128,-1,36
 1501 1272 1501 1272 1442 1272 c 256,37,38
 1383 1272 1383 1272 1340.5 1230 c 128,-1,39
 1298 1188 1298 1188 1298 1128 c 256,40,41
 1298 1069 1298 1069 1340 1027 c 128,-1,42
 1382 985 1382 985 1442 985 c 256,43,44
 1501 985 1501 985 1543 1027 c 128,-1,45
 1585 1069 1585 1069 1585 1128 c 256,34,35
1585 307 m 256,46,47
 1585 366 1585 366 1543 408.5 c 128,-1,48
 1501 451 1501 451 1442 451 c 256,49,50
 1383 451 1383 451 1340.5 409 c 128,-1,51
 1298 367 1298 367 1298 307 c 256,52,53
 1298 248 1298 248 1340 206 c 128,-1,54
 1382 164 1382 164 1442 164 c 256,55,56
 1501 164 1501 164 1543 206 c 128,-1,57
 1585 248 1585 248 1585 307 c 256,46,47
EndSplineSet
Validated: 1
EndChar

StartChar: uE00D
Encoding: 165 57357 176
Width: 1904
Flags: W
LayerCount: 2
Fore
SplineSet
1905 1243 m 256,0,1
 1905 1139 1905 1139 1830 1064 c 128,-1,2
 1755 989 1755 989 1651 989 c 0,3,4
 1635 989 1635 989 1618 991 c 1,5,6
 1280 -62 1280 -62 1024 -61 c 0,7,8
 838 -61 838 -61 614 473 c 1,9,-1
 371 258 l 2,10,11
 353 242 353 242 330 242 c 0,12,13
 305 242 305 242 285.5 261.5 c 128,-1,14
 266 281 266 281 266 305 c 0,15,16
 266 332 266 332 289 350 c 2,17,-1
 567 596 l 1,18,19
 510 743 510 743 430 991 c 1,20,21
 414 989 414 989 397 989 c 0,22,23
 293 989 293 989 218 1064 c 128,-1,24
 143 1139 143 1139 143 1243 c 256,25,26
 143 1347 143 1347 218 1422 c 128,-1,27
 293 1497 293 1497 397 1497 c 256,28,29
 501 1497 501 1497 576 1422.5 c 128,-1,30
 651 1348 651 1348 651 1243 c 0,31,32
 651 1112 651 1112 545 1036 c 1,33,34
 611 843 611 843 670 686 c 1,35,-1
 905 893 l 2,36,37
 923 909 923 909 944 909 c 0,38,39
 971 909 971 909 989.5 889.5 c 128,-1,40
 1008 870 1008 870 1008 846 c 0,41,42
 1008 819 1008 819 985 801 c 2,43,-1
 717 563 l 1,44,45
 918 61 918 61 1024 61 c 0,46,47
 1178 61 1178 61 1503 1036 c 1,48,49
 1397 1112 1397 1112 1397 1243 c 0,50,51
 1397 1347 1397 1347 1471.5 1422 c 128,-1,52
 1546 1497 1546 1497 1651 1497 c 256,53,54
 1755 1497 1755 1497 1830 1422 c 128,-1,55
 1905 1347 1905 1347 1905 1243 c 256,0,1
1782 1243 m 0,56,57
 1782 1298 1782 1298 1744 1336 c 128,-1,58
 1706 1374 1706 1374 1651 1374 c 0,59,60
 1598 1374 1598 1374 1559 1336 c 128,-1,61
 1520 1298 1520 1298 1520 1243 c 0,62,63
 1520 1190 1520 1190 1558.5 1151 c 128,-1,64
 1597 1112 1597 1112 1651 1112 c 0,65,66
 1706 1112 1706 1112 1744 1151 c 128,-1,67
 1782 1190 1782 1190 1782 1243 c 0,56,57
528 1243 m 0,68,69
 528 1298 528 1298 489.5 1336 c 128,-1,70
 451 1374 451 1374 397 1374 c 0,71,72
 342 1374 342 1374 304 1336 c 128,-1,73
 266 1298 266 1298 266 1243 c 0,74,75
 266 1190 266 1190 304 1151 c 128,-1,76
 342 1112 342 1112 397 1112 c 0,77,78
 450 1112 450 1112 489 1151 c 128,-1,79
 528 1190 528 1190 528 1243 c 0,68,69
EndSplineSet
Validated: 33
EndChar

StartChar: uE00E
Encoding: 166 57358 177
Width: 1904
Flags: W
LayerCount: 2
Fore
SplineSet
1905 1243 m 256,0,1
 1905 1139 1905 1139 1830 1064 c 128,-1,2
 1755 989 1755 989 1651 989 c 0,3,4
 1635 989 1635 989 1618 991 c 1,5,6
 1581 874 1581 874 1481 596 c 1,7,-1
 1759 350 l 2,8,9
 1782 332 1782 332 1782 305 c 0,10,11
 1782 280 1782 280 1762.5 261 c 128,-1,12
 1743 242 1743 242 1718 242 c 0,13,14
 1695 242 1695 242 1677 258 c 2,15,-1
 1434 473 l 1,16,17
 1211 -62 1211 -62 1024 -61 c 0,18,19
 768 -61 768 -61 430 991 c 1,20,21
 414 989 414 989 397 989 c 0,22,23
 293 989 293 989 218 1064 c 128,-1,24
 143 1139 143 1139 143 1243 c 256,25,26
 143 1347 143 1347 218 1422 c 128,-1,27
 293 1497 293 1497 397 1497 c 256,28,29
 501 1497 501 1497 576 1422.5 c 128,-1,30
 651 1348 651 1348 651 1243 c 0,31,32
 651 1112 651 1112 545 1036 c 1,33,34
 871 61 871 61 1024 61 c 0,35,36
 1130 61 1130 61 1331 563 c 1,37,-1
 1063 801 l 2,38,39
 1040 819 1040 819 1040 846 c 0,40,41
 1040 871 1040 871 1058.5 890 c 128,-1,42
 1077 909 1077 909 1104 909 c 0,43,44
 1124 909 1124 909 1143 893 c 2,45,-1
 1378 686 l 1,46,47
 1437 844 1437 844 1503 1036 c 1,48,49
 1397 1112 1397 1112 1397 1243 c 0,50,51
 1397 1347 1397 1347 1471.5 1422 c 128,-1,52
 1546 1497 1546 1497 1651 1497 c 256,53,54
 1755 1497 1755 1497 1830 1422 c 128,-1,55
 1905 1347 1905 1347 1905 1243 c 256,0,1
1782 1243 m 0,56,57
 1782 1298 1782 1298 1744 1336 c 128,-1,58
 1706 1374 1706 1374 1651 1374 c 0,59,60
 1598 1374 1598 1374 1559 1336 c 128,-1,61
 1520 1298 1520 1298 1520 1243 c 0,62,63
 1520 1190 1520 1190 1558.5 1151 c 128,-1,64
 1597 1112 1597 1112 1651 1112 c 0,65,66
 1706 1112 1706 1112 1744 1151 c 128,-1,67
 1782 1190 1782 1190 1782 1243 c 0,56,57
528 1243 m 0,68,69
 528 1298 528 1298 489.5 1336 c 128,-1,70
 451 1374 451 1374 397 1374 c 0,71,72
 342 1374 342 1374 304 1336 c 128,-1,73
 266 1298 266 1298 266 1243 c 0,74,75
 266 1190 266 1190 304 1151 c 128,-1,76
 342 1112 342 1112 397 1112 c 0,77,78
 450 1112 450 1112 489 1151 c 128,-1,79
 528 1190 528 1190 528 1243 c 0,68,69
EndSplineSet
Validated: 33
EndChar

StartChar: uE00F
Encoding: 167 57359 178
Width: 1433
Flags: W
LayerCount: 2
Fore
SplineSet
1434 659 m 0,0,1
 1434 344 1434 344 1225 141.5 c 128,-1,2
 1016 -61 1016 -61 702 -61 c 0,3,4
 512 -61 512 -61 346 39 c 0,5,6
 143 162 143 162 143 365 c 0,7,8
 143 508 143 508 295 588 c 0,9,10
 414 651 414 651 541 651 c 0,11,12
 688 651 688 651 819 575 c 0,13,14
 966 491 966 491 1010 350 c 0,15,16
 1014 340 1014 340 1014 330 c 0,17,18
 1014 271 1014 271 950 270 c 0,19,20
 907 270 907 270 893 313 c 0,21,22
 864 407 864 407 759.5 467.5 c 128,-1,23
 655 528 655 528 541 528 c 0,24,25
 439 528 439 528 352.5 479 c 128,-1,26
 266 430 266 430 266 365 c 0,27,28
 266 234 266 234 410 143 c 0,29,30
 543 61 543 61 702 61 c 0,31,32
 966 61 966 61 1138.5 229 c 128,-1,33
 1311 397 1311 397 1311 659 c 0,34,35
 1311 1374 1311 1374 702 1374 c 0,36,37
 614 1374 614 1374 495.5 1317 c 128,-1,38
 377 1260 377 1260 319 1192 c 0,39,40
 299 1167 299 1167 274 1167 c 0,41,42
 247 1167 247 1167 228 1186.5 c 128,-1,43
 209 1206 209 1206 209 1231 c 0,44,45
 209 1251 209 1251 225 1270 c 0,46,47
 301 1360 301 1360 444.5 1428.5 c 128,-1,48
 588 1497 588 1497 702 1497 c 0,49,50
 1079 1497 1079 1497 1268 1251 c 0,51,52
 1434 1034 1434 1034 1434 659 c 0,0,1
EndSplineSet
Validated: 1
EndChar

StartChar: uE010
Encoding: 168 57360 179
Width: 1085
Flags: W
LayerCount: 2
Fore
SplineSet
1085 348 m 2,0,1
 1085 160 1085 160 926 41 c 0,2,3
 787 -61 787 -61 614 -61 c 0,4,5
 467 -61 467 -61 311 61 c 0,6,7
 143 192 143 192 143 344 c 0,8,9
 143 450 143 450 223 533 c 128,-1,10
 303 616 303 616 410 616 c 0,11,12
 514 616 514 616 608 561 c 0,13,14
 712 504 712 504 743 410 c 0,15,16
 747 398 747 398 748 387 c 0,17,18
 748 328 748 328 684 328 c 0,19,20
 643 328 643 328 629 369 c 0,21,22
 611 418 611 418 547 456 c 128,-1,23
 483 494 483 494 410 494 c 0,24,25
 355 494 355 494 310.5 447.5 c 128,-1,26
 266 401 266 401 266 344 c 0,27,28
 266 254 266 254 386 157.5 c 128,-1,29
 506 61 506 61 614 61 c 0,30,31
 749 61 749 61 852 139 c 0,32,33
 963 223 963 223 963 348 c 2,34,-1
 963 1436 l 2,35,36
 963 1497 963 1497 1024 1497 c 256,37,38
 1085 1497 1085 1497 1085 1436 c 2,39,-1
 1085 348 l 2,0,1
EndSplineSet
Validated: 1
EndChar

StartChar: uE011
Encoding: 169 57361 180
Width: 1433
Flags: W
LayerCount: 2
Fore
SplineSet
999 877 m 256,0,1
 999 826 999 826 963.5 790 c 128,-1,2
 928 754 928 754 877 754 c 256,3,4
 826 754 826 754 790 789.5 c 128,-1,5
 754 825 754 825 754 877 c 256,6,7
 754 928 754 928 789.5 963.5 c 128,-1,8
 825 999 825 999 877 999 c 256,9,10
 928 999 928 999 963.5 963.5 c 128,-1,11
 999 928 999 928 999 877 c 256,0,1
1434 659 m 0,12,13
 1434 344 1434 344 1225 141.5 c 128,-1,14
 1016 -61 1016 -61 702 -61 c 0,15,16
 512 -61 512 -61 346 39 c 0,17,18
 143 162 143 162 143 365 c 0,19,20
 143 508 143 508 295 588 c 0,21,22
 414 651 414 651 541 651 c 0,23,24
 688 651 688 651 819 575 c 0,25,26
 966 491 966 491 1010 350 c 0,27,28
 1014 340 1014 340 1014 330 c 0,29,30
 1014 271 1014 271 950 270 c 0,31,32
 907 270 907 270 893 313 c 0,33,34
 864 407 864 407 759.5 467.5 c 128,-1,35
 655 528 655 528 541 528 c 0,36,37
 439 528 439 528 352.5 479 c 128,-1,38
 266 430 266 430 266 365 c 0,39,40
 266 234 266 234 410 143 c 0,41,42
 543 61 543 61 702 61 c 0,43,44
 966 61 966 61 1138.5 229 c 128,-1,45
 1311 397 1311 397 1311 659 c 0,46,47
 1311 1374 1311 1374 702 1374 c 0,48,49
 614 1374 614 1374 495.5 1317 c 128,-1,50
 377 1260 377 1260 319 1192 c 0,51,52
 299 1167 299 1167 274 1167 c 0,53,54
 247 1167 247 1167 228 1186.5 c 128,-1,55
 209 1206 209 1206 209 1231 c 0,56,57
 209 1251 209 1251 225 1270 c 0,58,59
 301 1360 301 1360 444.5 1428.5 c 128,-1,60
 588 1497 588 1497 702 1497 c 0,61,62
 1079 1497 1079 1497 1268 1251 c 0,63,64
 1434 1034 1434 1034 1434 659 c 0,12,13
EndSplineSet
Validated: 1
EndChar

StartChar: uE012
Encoding: 170 57362 181
Width: 1085
Flags: W
LayerCount: 2
Fore
SplineSet
776 877 m 256,0,1
 776 826 776 826 740.5 790 c 128,-1,2
 705 754 705 754 653 754 c 256,3,4
 602 754 602 754 566 789.5 c 128,-1,5
 530 825 530 825 530 877 c 256,6,7
 530 928 530 928 566 963.5 c 128,-1,8
 602 999 602 999 653 999 c 256,9,10
 704 999 704 999 740 963.5 c 128,-1,11
 776 928 776 928 776 877 c 256,0,1
1085 348 m 2,12,13
 1085 160 1085 160 926 41 c 0,14,15
 787 -61 787 -61 614 -61 c 0,16,17
 467 -61 467 -61 311 61 c 0,18,19
 143 192 143 192 143 344 c 0,20,21
 143 450 143 450 223 533 c 128,-1,22
 303 616 303 616 410 616 c 0,23,24
 514 616 514 616 608 561 c 0,25,26
 712 504 712 504 743 410 c 0,27,28
 747 398 747 398 748 387 c 0,29,30
 748 328 748 328 684 328 c 0,31,32
 643 328 643 328 629 369 c 0,33,34
 611 418 611 418 547 456 c 128,-1,35
 483 494 483 494 410 494 c 0,36,37
 355 494 355 494 310.5 447.5 c 128,-1,38
 266 401 266 401 266 344 c 0,39,40
 266 254 266 254 386 157.5 c 128,-1,41
 506 61 506 61 614 61 c 0,42,43
 749 61 749 61 852 139 c 0,44,45
 963 223 963 223 963 348 c 2,46,-1
 963 1436 l 2,47,48
 963 1497 963 1497 1024 1497 c 256,49,50
 1085 1497 1085 1497 1085 1436 c 2,51,-1
 1085 348 l 2,12,13
EndSplineSet
Validated: 1
EndChar

StartChar: uE013
Encoding: 171 57363 182
Width: 1433
Flags: W
LayerCount: 2
Fore
SplineSet
999 877 m 256,0,1
 999 826 999 826 963.5 790 c 128,-1,2
 928 754 928 754 877 754 c 256,3,4
 826 754 826 754 790 789.5 c 128,-1,5
 754 825 754 825 754 877 c 256,6,7
 754 928 754 928 789.5 963.5 c 128,-1,8
 825 999 825 999 877 999 c 256,9,10
 928 999 928 999 963.5 963.5 c 128,-1,11
 999 928 999 928 999 877 c 256,0,1
1434 659 m 0,12,13
 1434 344 1434 344 1225 141.5 c 128,-1,14
 1016 -61 1016 -61 702 -61 c 0,15,16
 512 -61 512 -61 346 39 c 0,17,18
 143 162 143 162 143 365 c 0,19,20
 143 508 143 508 295 588 c 0,21,22
 414 651 414 651 541 651 c 0,23,24
 688 651 688 651 819 575 c 0,25,26
 966 491 966 491 1010 350 c 0,27,28
 1014 340 1014 340 1014 330 c 0,29,30
 1014 271 1014 271 950 270 c 0,31,32
 907 270 907 270 893 313 c 0,33,34
 864 407 864 407 759.5 467.5 c 128,-1,35
 655 528 655 528 541 528 c 0,36,37
 439 528 439 528 352.5 479 c 128,-1,38
 266 430 266 430 266 365 c 0,39,40
 266 234 266 234 410 143 c 0,41,42
 543 61 543 61 702 61 c 0,43,44
 966 61 966 61 1138.5 229 c 128,-1,45
 1311 397 1311 397 1311 659 c 0,46,47
 1311 1374 1311 1374 702 1374 c 0,48,49
 614 1374 614 1374 495.5 1317 c 128,-1,50
 377 1260 377 1260 319 1192 c 0,51,52
 299 1167 299 1167 274 1167 c 0,53,54
 247 1167 247 1167 228 1186.5 c 128,-1,55
 209 1206 209 1206 209 1231 c 0,56,57
 209 1251 209 1251 225 1270 c 0,58,59
 301 1360 301 1360 444.5 1428.5 c 128,-1,60
 588 1497 588 1497 702 1497 c 0,61,62
 1079 1497 1079 1497 1268 1251 c 0,63,64
 1434 1034 1434 1034 1434 659 c 0,12,13
621 877 m 256,65,66
 621 826 621 826 584 790 c 128,-1,67
 547 754 547 754 496 754 c 0,68,69
 447 754 447 754 410 789.5 c 128,-1,70
 373 825 373 825 373 877 c 256,71,72
 373 928 373 928 409.5 963.5 c 128,-1,73
 446 999 446 999 496 999 c 0,74,75
 547 999 547 999 584 963.5 c 128,-1,76
 621 928 621 928 621 877 c 256,65,66
EndSplineSet
Validated: 1
EndChar

StartChar: uE014
Encoding: 172 57364 183
Width: 1085
Flags: W
LayerCount: 2
Fore
SplineSet
877 877 m 256,0,1
 877 826 877 826 841 790 c 128,-1,2
 805 754 805 754 754 754 c 256,3,4
 703 754 703 754 667 789.5 c 128,-1,5
 631 825 631 825 631 877 c 256,6,7
 631 928 631 928 666.5 963.5 c 128,-1,8
 702 999 702 999 754 999 c 256,9,10
 805 999 805 999 841 963.5 c 128,-1,11
 877 928 877 928 877 877 c 256,0,1
1085 348 m 2,12,13
 1085 160 1085 160 926 41 c 0,14,15
 787 -61 787 -61 614 -61 c 0,16,17
 467 -61 467 -61 311 61 c 0,18,19
 143 192 143 192 143 344 c 0,20,21
 143 450 143 450 223 533 c 128,-1,22
 303 616 303 616 410 616 c 0,23,24
 514 616 514 616 608 561 c 0,25,26
 712 504 712 504 743 410 c 0,27,28
 747 398 747 398 748 387 c 0,29,30
 748 328 748 328 684 328 c 0,31,32
 643 328 643 328 629 369 c 0,33,34
 611 418 611 418 547 456 c 128,-1,35
 483 494 483 494 410 494 c 0,36,37
 355 494 355 494 310.5 447.5 c 128,-1,38
 266 401 266 401 266 344 c 0,39,40
 266 254 266 254 386 157.5 c 128,-1,41
 506 61 506 61 614 61 c 0,42,43
 749 61 749 61 852 139 c 0,44,45
 963 223 963 223 963 348 c 2,46,-1
 963 1436 l 2,47,48
 963 1497 963 1497 1024 1497 c 256,49,50
 1085 1497 1085 1497 1085 1436 c 2,51,-1
 1085 348 l 2,12,13
498 877 m 256,52,53
 498 826 498 826 461 790 c 128,-1,54
 424 754 424 754 373 754 c 0,55,56
 324 754 324 754 287 789.5 c 128,-1,57
 250 825 250 825 250 877 c 256,58,59
 250 928 250 928 287 963.5 c 128,-1,60
 324 999 324 999 373 999 c 0,61,62
 424 999 424 999 461 963.5 c 128,-1,63
 498 928 498 928 498 877 c 256,52,53
EndSplineSet
Validated: 1
EndChar

StartChar: uE015
Encoding: 173 57365 184
Width: 1638
Flags: W
LayerCount: 2
Fore
SplineSet
963 1147 m 256,0,1
 963 1096 963 1096 927 1060 c 128,-1,2
 891 1024 891 1024 840 1024 c 256,3,4
 789 1024 789 1024 753 1060 c 128,-1,5
 717 1096 717 1096 717 1147 c 256,6,7
 717 1198 717 1198 752.5 1234 c 128,-1,8
 788 1270 788 1270 840 1270 c 256,9,10
 891 1270 891 1270 927 1234 c 128,-1,11
 963 1198 963 1198 963 1147 c 256,0,1
1638 1167 m 0,12,13
 1638 1013 1638 1013 1530.5 906 c 128,-1,14
 1423 799 1423 799 1270 799 c 2,15,-1
 266 799 l 1,16,-1
 266 164 l 2,17,18
 266 103 266 103 205 102 c 256,19,20
 144 102 144 102 143 164 c 2,21,-1
 143 1270 l 2,22,23
 143 1331 143 1331 205 1331 c 256,24,25
 266 1331 266 1331 266 1270 c 2,26,-1
 266 922 l 1,27,-1
 1270 922 l 2,28,29
 1372 922 1372 922 1444 993.5 c 128,-1,30
 1516 1065 1516 1065 1516 1167 c 0,31,32
 1516 1228 1516 1228 1577 1229 c 256,33,34
 1638 1228 1638 1228 1638 1167 c 0,12,13
963 543 m 256,35,36
 963 492 963 492 927 456 c 128,-1,37
 891 420 891 420 840 420 c 256,38,39
 789 420 789 420 753 456 c 128,-1,40
 717 492 717 492 717 543 c 256,41,42
 717 594 717 594 752.5 630 c 128,-1,43
 788 666 788 666 840 666 c 256,44,45
 891 666 891 666 927 630 c 128,-1,46
 963 594 963 594 963 543 c 256,35,36
EndSplineSet
Validated: 1
EndChar

StartChar: uE016
Encoding: 174 57366 185
Width: 2754
Flags: W
LayerCount: 2
Fore
SplineSet
2140 936 m 2,0,-1
 1546 936 l 2,1,2
 1485 936 1485 936 1485 997 c 256,3,4
 1485 1058 1485 1058 1546 1059 c 2,5,-1
 2140 1059 l 2,6,7
 2201 1059 2201 1059 2202 997 c 256,8,9
 2201 936 2201 936 2140 936 c 2,0,-1
2755 1126 m 0,10,11
 2755 913 2755 913 2605.5 763.5 c 128,-1,12
 2456 614 2456 614 2243 614 c 2,13,-1
 1444 614 l 2,14,15
 1301 614 1301 614 1181 687 c 128,-1,16
 1061 760 1061 760 993 883 c 1,17,18
 927 760 927 760 807.5 687 c 128,-1,19
 688 614 688 614 545 614 c 2,20,-1
 205 614 l 2,21,22
 144 614 144 614 143 676 c 256,23,24
 143 737 143 737 205 737 c 2,25,-1
 545 737 l 2,26,27
 705 737 705 737 818.5 851 c 128,-1,28
 932 965 932 965 932 1126 c 0,29,30
 932 1187 932 1187 993 1188 c 256,31,32
 1054 1188 1054 1188 1055 1126 c 0,33,34
 1055 964 1055 964 1168.5 850.5 c 128,-1,35
 1282 737 1282 737 1444 737 c 2,36,-1
 2243 737 l 2,37,38
 2405 737 2405 737 2518.5 851 c 128,-1,39
 2632 965 2632 965 2632 1126 c 0,40,41
 2632 1187 2632 1187 2693 1188 c 256,42,43
 2755 1187 2755 1187 2755 1126 c 0,10,11
2140 305 m 2,44,-1
 1546 305 l 2,45,46
 1485 305 1485 305 1485 367 c 256,47,48
 1485 428 1485 428 1546 428 c 2,49,-1
 2140 428 l 2,50,51
 2201 428 2201 428 2202 367 c 256,52,53
 2201 305 2201 305 2140 305 c 2,44,-1
EndSplineSet
Validated: 1
EndChar

StartChar: uE017
Encoding: 175 57367 186
Width: 1675
Flags: W
LayerCount: 2
Fore
SplineSet
1223 373 m 0,0,1
 1170 348 1170 348 1112 348 c 0,2,3
 1008 348 1008 348 935 422 c 128,-1,4
 862 496 862 496 862 598 c 0,5,6
 862 702 862 702 935 776 c 128,-1,7
 1008 850 1008 850 1112 850 c 0,8,9
 1249 850 1249 850 1249 770 c 0,10,11
 1249 711 1249 711 1190 711 c 0,12,13
 1178 711 1178 711 1153 719 c 128,-1,14
 1128 727 1128 727 1112 727 c 0,15,16
 1059 727 1059 727 1022 689 c 128,-1,17
 985 651 985 651 985 598 c 0,18,19
 985 547 985 547 1022 509 c 128,-1,20
 1059 471 1059 471 1112 471 c 0,21,22
 1132 471 1132 471 1158 481.5 c 128,-1,23
 1184 492 1184 492 1198 492 c 0,24,25
 1223 492 1223 492 1240 472.5 c 128,-1,26
 1257 453 1257 453 1257 426 c 0,27,28
 1258 391 1258 391 1223 373 c 0,0,1
1675 1309 m 0,29,30
 1675 1155 1675 1155 1566.5 1047.5 c 128,-1,31
 1458 940 1458 940 1307 940 c 2,32,-1
 692 940 l 1,33,-1
 692 0 l 2,34,35
 692 -61 692 -61 631 -61 c 256,36,37
 570 -61 570 -61 569 0 c 2,38,-1
 569 940 l 1,39,-1
 410 940 l 2,40,41
 293 940 293 940 211 1023 c 128,-1,42
 129 1106 129 1106 129 1221 c 0,43,44
 129 1338 129 1338 211 1420.5 c 128,-1,45
 293 1503 293 1503 410 1503 c 256,46,47
 527 1503 527 1503 609.5 1420 c 128,-1,48
 692 1337 692 1337 692 1221 c 2,49,-1
 692 1063 l 1,50,-1
 1307 1063 l 2,51,52
 1407 1063 1407 1063 1479.5 1134.5 c 128,-1,53
 1552 1206 1552 1206 1552 1309 c 0,54,55
 1552 1370 1552 1370 1614 1370 c 256,56,57
 1675 1370 1675 1370 1675 1309 c 0,29,30
569 1221 m 2,58,59
 569 1289 569 1289 522 1334.5 c 128,-1,60
 475 1380 475 1380 410 1380 c 256,61,62
 344 1380 344 1380 298 1334 c 128,-1,63
 252 1288 252 1288 252 1221 c 0,64,65
 252 1155 252 1155 298 1109 c 128,-1,66
 344 1063 344 1063 410 1063 c 2,67,-1
 569 1063 l 1,68,-1
 569 1221 l 2,58,59
EndSplineSet
Validated: 1
EndChar

StartChar: uE018
Encoding: 176 57368 187
Width: 1456
Flags: W
LayerCount: 2
Fore
SplineSet
1423 829 m 0,0,1
 1370 804 1370 804 1313 805 c 0,2,3
 1209 805 1209 805 1136 878.5 c 128,-1,4
 1063 952 1063 952 1063 1055 c 0,5,6
 1063 1159 1063 1159 1135.5 1233 c 128,-1,7
 1208 1307 1208 1307 1313 1307 c 0,8,9
 1450 1307 1450 1307 1450 1227 c 0,10,11
 1450 1168 1450 1168 1391 1167 c 0,12,13
 1379 1167 1379 1167 1354 1175.5 c 128,-1,14
 1329 1184 1329 1184 1313 1184 c 0,15,16
 1260 1184 1260 1184 1223 1146 c 128,-1,17
 1186 1108 1186 1108 1186 1055 c 0,18,19
 1186 1004 1186 1004 1223 966 c 128,-1,20
 1260 928 1260 928 1313 928 c 0,21,22
 1333 928 1333 928 1358.5 938 c 128,-1,23
 1384 948 1384 948 1397 948 c 0,24,25
 1424 948 1424 948 1441 928.5 c 128,-1,26
 1458 909 1458 909 1458 883 c 0,27,28
 1458 847 1458 847 1423 829 c 0,0,1
1010 1442 m 0,29,30
 1014 1407 1014 1407 1014 1372 c 0,31,32
 1014 1206 1014 1206 921.5 1049.5 c 128,-1,33
 829 893 829 893 684 815 c 1,34,-1
 684 815 l 1,35,-1
 684 0 l 2,36,37
 684 -61 684 -61 623 -61 c 256,38,39
 562 -61 562 -61 561 0 c 2,40,-1
 561 768 l 1,41,42
 512 758 512 758 461 758 c 0,43,44
 342 758 342 758 246 838 c 0,45,46
 144 922 144 922 143 1049 c 0,47,48
 143 1172 143 1172 230 1254.5 c 128,-1,49
 317 1337 317 1337 442 1337 c 0,50,51
 565 1337 565 1337 633 1225 c 0,52,53
 684 1141 684 1141 684 1055 c 2,54,-1
 684 961 l 1,55,56
 776 1033 776 1033 833.5 1146.5 c 128,-1,57
 891 1260 891 1260 891 1372 c 0,58,59
 891 1399 891 1399 887 1425 c 0,60,61
 883 1456 883 1456 902.5 1475.5 c 128,-1,62
 922 1495 922 1495 948 1495 c 0,63,64
 1002 1495 1002 1495 1010 1442 c 0,29,30
561 897 m 1,65,-1
 561 897 l 1,66,-1
 561 1055 l 2,67,68
 561 1110 561 1110 527.5 1162 c 128,-1,69
 494 1214 494 1214 442 1214 c 0,70,71
 364 1214 364 1214 315 1166 c 128,-1,72
 266 1118 266 1118 266 1049 c 0,73,74
 266 981 266 981 325.5 931 c 128,-1,75
 385 881 385 881 461 881 c 0,76,77
 512 881 512 881 561 897 c 1,65,-1
EndSplineSet
Validated: 37
EndChar

StartChar: uE019
Encoding: 177 57369 188
Width: 1560
Flags: W
LayerCount: 2
Fore
SplineSet
1536 1317 m 2,0,-1
 1331 1151 l 1,1,2
 1433 952 1433 952 1434 659 c 0,3,4
 1434 344 1434 344 1225 141.5 c 128,-1,5
 1016 -61 1016 -61 702 -61 c 0,6,7
 512 -61 512 -61 346 39 c 0,8,9
 143 162 143 162 143 365 c 0,10,11
 143 508 143 508 295 588 c 0,12,13
 414 651 414 651 541 651 c 0,14,15
 688 651 688 651 819 575 c 0,16,17
 966 491 966 491 1010 350 c 0,18,19
 1014 340 1014 340 1014 330 c 0,20,21
 1014 271 1014 271 950 270 c 0,22,23
 907 270 907 270 893 313 c 0,24,25
 864 407 864 407 759.5 467.5 c 128,-1,26
 655 528 655 528 541 528 c 0,27,28
 439 528 439 528 352.5 479 c 128,-1,29
 266 430 266 430 266 365 c 0,30,31
 266 234 266 234 410 143 c 0,32,33
 543 61 543 61 702 61 c 0,34,35
 966 61 966 61 1138.5 229 c 128,-1,36
 1311 397 1311 397 1311 659 c 0,37,38
 1311 907 1311 907 1233 1073 c 1,39,-1
 858 772 l 2,40,41
 840 756 840 756 819 756 c 0,42,43
 794 756 794 756 776 775.5 c 128,-1,44
 758 795 758 795 758 821 c 256,45,46
 758 848 758 848 780 866 c 2,47,-1
 1169 1180 l 1,48,49
 1013 1375 1013 1375 702 1374 c 0,50,51
 614 1374 614 1374 495.5 1317 c 128,-1,52
 377 1260 377 1260 319 1192 c 0,53,54
 299 1167 299 1167 274 1167 c 0,55,56
 247 1167 247 1167 228 1186.5 c 128,-1,57
 209 1206 209 1206 209 1231 c 0,58,59
 209 1251 209 1251 225 1270 c 0,60,61
 301 1360 301 1360 444.5 1428.5 c 128,-1,62
 588 1497 588 1497 702 1497 c 0,63,64
 1075 1497 1075 1497 1264 1255 c 1,65,-1
 1460 1413 l 2,66,67
 1478 1427 1478 1427 1499 1427 c 0,68,69
 1524 1427 1524 1427 1542.5 1408 c 128,-1,70
 1561 1389 1561 1389 1561 1364 c 0,71,72
 1561 1335 1561 1335 1536 1317 c 2,0,-1
EndSplineSet
Validated: 33
EndChar

StartChar: uE01A
Encoding: 178 57370 189
Width: 1378
Flags: W
LayerCount: 2
Fore
SplineSet
1315 963 m 2,0,-1
 1085 963 l 1,1,-1
 1085 348 l 2,2,3
 1085 160 1085 160 926 41 c 0,4,5
 787 -61 787 -61 614 -61 c 0,6,7
 467 -61 467 -61 311 61 c 0,8,9
 143 192 143 192 143 344 c 0,10,11
 143 450 143 450 223 533 c 128,-1,12
 303 616 303 616 410 616 c 0,13,14
 514 616 514 616 608 561 c 0,15,16
 712 504 712 504 743 410 c 0,17,18
 747 398 747 398 748 387 c 0,19,20
 748 328 748 328 684 328 c 0,21,22
 643 328 643 328 629 369 c 0,23,24
 611 418 611 418 547 456 c 128,-1,25
 483 494 483 494 410 494 c 0,26,27
 355 494 355 494 310.5 447.5 c 128,-1,28
 266 401 266 401 266 344 c 0,29,30
 266 254 266 254 386 157.5 c 128,-1,31
 506 61 506 61 614 61 c 0,32,33
 749 61 749 61 852 139 c 0,34,35
 963 223 963 223 963 348 c 2,36,-1
 963 963 l 1,37,-1
 719 963 l 2,38,39
 658 963 658 963 657 1024 c 256,40,41
 657 1085 657 1085 719 1085 c 2,42,-1
 963 1085 l 1,43,-1
 963 1436 l 2,44,45
 963 1497 963 1497 1024 1497 c 256,46,47
 1085 1497 1085 1497 1085 1436 c 2,48,-1
 1085 1085 l 1,49,-1
 1315 1085 l 2,50,51
 1376 1085 1376 1085 1376 1024 c 256,52,53
 1376 963 1376 963 1315 963 c 2,0,-1
EndSplineSet
Validated: 1
EndChar

StartChar: uE01B
Encoding: 179 57371 190
Width: 1701
Flags: W
LayerCount: 2
Fore
SplineSet
1638 348 m 2,0,-1
 983 348 l 1,1,-1
 983 0 l 2,2,3
 983 -61 983 -61 922 -61 c 256,4,5
 861 -61 861 -61 860 0 c 2,6,-1
 860 348 l 1,7,-1
 205 348 l 2,8,9
 144 348 144 348 143 410 c 256,10,11
 143 471 143 471 205 471 c 2,12,-1
 860 471 l 1,13,-1
 860 963 l 1,14,-1
 205 963 l 2,15,16
 144 963 144 963 143 1024 c 256,17,18
 143 1085 143 1085 205 1085 c 2,19,-1
 860 1085 l 1,20,-1
 860 1436 l 2,21,22
 860 1497 860 1497 922 1497 c 256,23,24
 983 1497 983 1497 983 1436 c 2,25,-1
 983 1085 l 1,26,-1
 1638 1085 l 2,27,28
 1699 1085 1699 1085 1700 1024 c 256,29,30
 1700 963 1700 963 1638 963 c 2,31,-1
 983 963 l 1,32,-1
 983 471 l 1,33,-1
 1638 471 l 2,34,35
 1699 471 1699 471 1700 410 c 256,36,37
 1699 348 1699 348 1638 348 c 2,0,-1
EndSplineSet
Validated: 1
EndChar

StartChar: uE01C
Encoding: 180 57372 191
Width: 1701
Flags: W
LayerCount: 2
Fore
SplineSet
1638 348 m 2,0,-1
 733 348 l 1,1,-1
 459 -35 l 2,2,3
 441 -62 441 -62 412 -61 c 0,4,5
 387 -61 387 -61 366.5 -44 c 128,-1,6
 346 -27 346 -27 346 0 c 0,7,8
 346 18 346 18 360 35 c 2,9,-1
 582 348 l 1,10,-1
 205 348 l 2,11,12
 144 348 144 348 143 410 c 256,13,14
 143 471 143 471 205 471 c 2,15,-1
 670 471 l 1,16,-1
 1020 963 l 1,17,-1
 205 963 l 2,18,19
 144 963 144 963 143 1024 c 256,20,21
 143 1085 143 1085 205 1085 c 2,22,-1
 1108 1085 l 1,23,-1
 1384 1470 l 2,24,25
 1402 1497 1402 1497 1432 1497 c 0,26,27
 1457 1497 1457 1497 1477 1479.5 c 128,-1,28
 1497 1462 1497 1462 1497 1436 c 0,29,30
 1497 1418 1497 1418 1483 1401 c 2,31,-1
 1260 1085 l 1,32,-1
 1638 1085 l 2,33,34
 1699 1085 1699 1085 1700 1024 c 256,35,36
 1700 963 1700 963 1638 963 c 2,37,-1
 1171 963 l 1,38,-1
 821 471 l 1,39,-1
 1638 471 l 2,40,41
 1699 471 1699 471 1700 410 c 256,42,43
 1699 348 1699 348 1638 348 c 2,0,-1
EndSplineSet
Validated: 1
EndChar

StartChar: uE01D
Encoding: 181 57373 192
Width: 2011
Flags: W
LayerCount: 2
Fore
SplineSet
2011 772 m 0,0,1
 2011 680 2011 680 1944.5 613.5 c 128,-1,2
 1878 547 1878 547 1786 547 c 0,3,4
 1710 547 1710 547 1649.5 593 c 128,-1,5
 1589 639 1589 639 1569 711 c 1,6,-1
 1434 711 l 1,7,8
 1434 686 1434 686 1434 659 c 0,9,10
 1434 344 1434 344 1225 141.5 c 128,-1,11
 1016 -61 1016 -61 702 -61 c 0,12,13
 512 -61 512 -61 346 39 c 0,14,15
 143 162 143 162 143 365 c 0,16,17
 143 508 143 508 295 588 c 0,18,19
 414 651 414 651 541 651 c 0,20,21
 688 651 688 651 819 575 c 0,22,23
 966 491 966 491 1010 350 c 0,24,25
 1014 340 1014 340 1014 330 c 0,26,27
 1014 271 1014 271 950 270 c 0,28,29
 907 270 907 270 893 313 c 0,30,31
 864 407 864 407 759.5 467.5 c 128,-1,32
 655 528 655 528 541 528 c 0,33,34
 439 528 439 528 352.5 479 c 128,-1,35
 266 430 266 430 266 365 c 0,36,37
 266 234 266 234 410 143 c 0,38,39
 543 61 543 61 702 61 c 0,40,41
 966 61 966 61 1138.5 229 c 128,-1,42
 1311 397 1311 397 1311 659 c 0,43,44
 1311 686 1311 686 1311 711 c 1,45,-1
 952 711 l 2,46,47
 891 711 891 711 891 772 c 256,48,49
 891 833 891 833 952 834 c 2,50,-1
 1300 834 l 1,51,52
 1228 1375 1228 1375 702 1374 c 0,53,54
 614 1374 614 1374 495.5 1317 c 128,-1,55
 377 1260 377 1260 319 1192 c 0,56,57
 299 1167 299 1167 274 1167 c 0,58,59
 247 1167 247 1167 228 1186.5 c 128,-1,60
 209 1206 209 1206 209 1231 c 0,61,62
 209 1251 209 1251 225 1270 c 0,63,64
 301 1360 301 1360 444.5 1428.5 c 128,-1,65
 588 1497 588 1497 702 1497 c 0,66,67
 1032 1497 1032 1497 1219 1307 c 0,68,69
 1387 1137 1387 1137 1423 834 c 1,70,-1
 1569 834 l 1,71,72
 1589 906 1589 906 1649.5 951.5 c 128,-1,73
 1710 997 1710 997 1786 997 c 0,74,75
 1878 997 1878 997 1944.5 931.5 c 128,-1,76
 2011 866 2011 866 2011 772 c 0,0,1
1888 772 m 256,77,78
 1888 815 1888 815 1858.5 844.5 c 128,-1,79
 1829 874 1829 874 1786 874 c 256,80,81
 1743 874 1743 874 1713 844.5 c 128,-1,82
 1683 815 1683 815 1683 772 c 256,83,84
 1683 729 1683 729 1713 699.5 c 128,-1,85
 1743 670 1743 670 1786 670 c 256,86,87
 1829 670 1829 670 1858.5 699.5 c 128,-1,88
 1888 729 1888 729 1888 772 c 256,77,78
EndSplineSet
Validated: 33
EndChar

StartChar: uE01E
Encoding: 182 57374 193
Width: 1523
Flags: W
LayerCount: 2
Fore
SplineSet
1524 205 m 256,0,1
 1524 94 1524 94 1446 16.5 c 128,-1,2
 1368 -61 1368 -61 1257 -61 c 0,3,4
 1093 -61 1093 -61 1020 84 c 2,5,-1
 834 453 l 1,6,-1
 647 84 l 2,7,8
 573 -61 573 -61 410 -61 c 0,9,10
 299 -61 299 -61 221 16.5 c 128,-1,11
 143 94 143 94 143 205 c 256,12,13
 143 316 143 316 221 393.5 c 128,-1,14
 299 471 299 471 410 471 c 0,15,16
 562 471 562 471 639 340 c 1,17,-1
 764 590 l 1,18,-1
 352 1407 l 2,19,20
 344 1423 344 1423 344 1438 c 0,21,22
 344 1463 344 1463 363.5 1480 c 128,-1,23
 383 1497 383 1497 408 1497 c 0,24,25
 445 1497 445 1497 461 1464 c 2,26,-1
 834 727 l 1,27,-1
 1206 1464 l 2,28,29
 1222 1497 1222 1497 1260 1497 c 0,30,31
 1285 1497 1285 1497 1304 1479.5 c 128,-1,32
 1323 1462 1323 1462 1323 1438 c 0,33,34
 1323 1424 1323 1424 1315 1407 c 2,35,-1
 903 590 l 1,36,-1
 1028 340 l 1,37,38
 1106 471 1106 471 1257 471 c 0,39,40
 1368 471 1368 471 1446 393.5 c 128,-1,41
 1524 316 1524 316 1524 205 c 256,0,1
1401 205 m 256,42,43
 1401 264 1401 264 1359 306 c 128,-1,44
 1317 348 1317 348 1257 348 c 256,45,46
 1198 348 1198 348 1156 306 c 128,-1,47
 1114 264 1114 264 1114 205 c 256,48,49
 1114 146 1114 146 1156 103.5 c 128,-1,50
 1198 61 1198 61 1257 61 c 256,51,52
 1316 61 1316 61 1358.5 103.5 c 128,-1,53
 1401 146 1401 146 1401 205 c 256,42,43
553 205 m 256,54,55
 553 264 553 264 511 306 c 128,-1,56
 469 348 469 348 410 348 c 256,57,58
 351 348 351 348 308.5 306 c 128,-1,59
 266 264 266 264 266 205 c 256,60,61
 266 146 266 146 308 103.5 c 128,-1,62
 350 61 350 61 410 61 c 256,63,64
 469 61 469 61 511 103.5 c 128,-1,65
 553 146 553 146 553 205 c 256,54,55
EndSplineSet
Validated: 1
EndChar

StartChar: uE01F
Encoding: 183 57375 194
Width: 2701
Flags: W
LayerCount: 2
Fore
SplineSet
2701 782 m 256,0,1
 2701 661 2701 661 2616 576.5 c 128,-1,2
 2531 492 2531 492 2410 492 c 0,3,4
 2306 492 2306 492 2226 557.5 c 128,-1,5
 2146 623 2146 623 2126 721 c 1,6,-1
 1174 721 l 1,7,8
 1151 528 1151 528 1004.5 397 c 128,-1,9
 858 266 858 266 659 266 c 0,10,11
 446 266 446 266 294.5 417.5 c 128,-1,12
 143 569 143 569 143 782 c 0,13,14
 143 997 143 997 294.5 1148.5 c 128,-1,15
 446 1300 446 1300 659 1300 c 0,16,17
 858 1300 858 1300 1004.5 1169 c 128,-1,18
 1151 1038 1151 1038 1174 844 c 1,19,-1
 2126 844 l 1,20,21
 2146 944 2146 944 2226 1008.5 c 128,-1,22
 2306 1073 2306 1073 2410 1073 c 0,23,24
 2531 1073 2531 1073 2616 988 c 128,-1,25
 2701 903 2701 903 2701 782 c 256,0,1
2578 782 m 256,26,27
 2578 852 2578 852 2529 901 c 128,-1,28
 2480 950 2480 950 2410 950 c 256,29,30
 2340 950 2340 950 2291.5 901 c 128,-1,31
 2243 852 2243 852 2243 782 c 256,32,33
 2243 712 2243 712 2292 663 c 128,-1,34
 2341 614 2341 614 2410 614 c 256,35,36
 2480 614 2480 614 2529 663 c 128,-1,37
 2578 712 2578 712 2578 782 c 256,26,27
1055 782 m 256,38,39
 1055 852 1055 852 1004.5 901 c 128,-1,40
 954 950 954 950 885 950 c 256,41,42
 815 950 815 950 766 901 c 128,-1,43
 717 852 717 852 717 782 c 256,44,45
 717 712 717 712 766 663 c 128,-1,46
 815 614 815 614 885 614 c 256,47,48
 955 614 955 614 1005 663 c 128,-1,49
 1055 712 1055 712 1055 782 c 256,38,39
928 496 m 1,50,51
 908 492 908 492 885 492 c 0,52,53
 764 492 764 492 679 577 c 128,-1,54
 594 662 594 662 594 782 c 256,55,56
 594 903 594 903 679 988 c 128,-1,57
 764 1073 764 1073 885 1073 c 0,58,59
 908 1073 908 1073 928 1071 c 1,60,61
 815 1177 815 1177 659 1178 c 0,62,63
 497 1178 497 1178 381.5 1062 c 128,-1,64
 266 946 266 946 266 782 c 0,65,66
 266 620 266 620 382 504.5 c 128,-1,67
 498 389 498 389 659 389 c 0,68,69
 815 390 815 390 928 496 c 1,50,51
EndSplineSet
Validated: 1
EndChar

StartChar: uE020
Encoding: 184 57376 195
Width: 1720
Flags: W
LayerCount: 2
Fore
SplineSet
1720 639 m 2,0,1
 1720 578 1720 578 1659 578 c 256,2,3
 1598 578 1598 578 1597 639 c 2,4,-1
 1597 711 l 1,5,-1
 1434 711 l 1,6,7
 1434 686 1434 686 1434 659 c 0,8,9
 1434 344 1434 344 1225 141.5 c 128,-1,10
 1016 -61 1016 -61 702 -61 c 0,11,12
 512 -61 512 -61 346 39 c 0,13,14
 143 162 143 162 143 365 c 0,15,16
 143 508 143 508 295 588 c 0,17,18
 414 651 414 651 541 651 c 0,19,20
 688 651 688 651 819 575 c 0,21,22
 966 491 966 491 1010 350 c 0,23,24
 1014 340 1014 340 1014 330 c 0,25,26
 1014 271 1014 271 950 270 c 0,27,28
 907 270 907 270 893 313 c 0,29,30
 864 407 864 407 759.5 467.5 c 128,-1,31
 655 528 655 528 541 528 c 0,32,33
 439 528 439 528 352.5 479 c 128,-1,34
 266 430 266 430 266 365 c 0,35,36
 266 234 266 234 410 143 c 0,37,38
 543 61 543 61 702 61 c 0,39,40
 966 61 966 61 1138.5 229 c 128,-1,41
 1311 397 1311 397 1311 659 c 0,42,43
 1311 686 1311 686 1311 711 c 1,44,-1
 1085 711 l 1,45,-1
 1085 639 l 2,46,47
 1085 578 1085 578 1024 578 c 256,48,49
 963 578 963 578 963 639 c 2,50,-1
 963 895 l 2,51,52
 963 956 963 956 1024 956 c 256,53,54
 1085 956 1085 956 1085 895 c 2,55,-1
 1085 834 l 1,56,-1
 1300 834 l 1,57,58
 1228 1375 1228 1375 702 1374 c 0,59,60
 614 1374 614 1374 495.5 1317 c 128,-1,61
 377 1260 377 1260 319 1192 c 0,62,63
 299 1167 299 1167 274 1167 c 0,64,65
 247 1167 247 1167 228 1186.5 c 128,-1,66
 209 1206 209 1206 209 1231 c 0,67,68
 209 1251 209 1251 225 1270 c 0,69,70
 301 1360 301 1360 444.5 1428.5 c 128,-1,71
 588 1497 588 1497 702 1497 c 0,72,73
 1032 1497 1032 1497 1219 1307 c 0,74,75
 1387 1137 1387 1137 1423 834 c 1,76,-1
 1597 834 l 1,77,-1
 1597 895 l 2,78,79
 1597 956 1597 956 1659 956 c 256,80,81
 1720 956 1720 956 1720 895 c 2,82,-1
 1720 639 l 2,0,1
EndSplineSet
Validated: 33
EndChar

StartChar: uE021
Encoding: 185 57377 196
Width: 1351
Flags: W
LayerCount: 2
Fore
SplineSet
1352 1024 m 2,0,1
 1352 963 1352 963 1290 963 c 2,2,-1
 881 963 l 1,3,-1
 881 348 l 2,4,5
 881 184 881 184 799 72 c 0,6,7
 703 -61 703 -61 532 -61 c 0,8,9
 366 -61 366 -61 254.5 59.5 c 128,-1,10
 143 180 143 180 143 344 c 0,11,12
 143 450 143 450 222 533 c 128,-1,13
 301 616 301 616 410 616 c 0,14,15
 502 616 502 616 588 573 c 0,16,17
 623 557 623 557 623 520 c 0,18,19
 623 495 623 495 605.5 476 c 128,-1,20
 588 457 588 457 563 457 c 0,21,22
 549 457 549 457 535 463 c 0,23,24
 474 494 474 494 410 494 c 0,25,26
 355 494 355 494 310.5 447.5 c 128,-1,27
 266 401 266 401 266 344 c 0,28,29
 266 227 266 227 344 144 c 128,-1,30
 422 61 422 61 532 61 c 0,31,32
 636 61 636 61 697 141 c 128,-1,33
 758 221 758 221 758 348 c 2,34,-1
 758 963 l 1,35,-1
 348 963 l 2,36,37
 287 963 287 963 287 1024 c 2,38,-1
 287 1372 l 2,39,40
 287 1433 287 1433 348 1434 c 256,41,42
 409 1434 409 1434 410 1372 c 2,43,-1
 410 1085 l 1,44,-1
 758 1085 l 1,45,-1
 758 1436 l 2,46,47
 758 1497 758 1497 819 1497 c 256,48,49
 880 1497 880 1497 881 1436 c 2,50,-1
 881 1085 l 1,51,-1
 1229 1085 l 1,52,-1
 1229 1372 l 2,53,54
 1229 1433 1229 1433 1290 1434 c 256,55,56
 1351 1434 1351 1434 1352 1372 c 2,57,-1
 1352 1024 l 2,0,1
EndSplineSet
Validated: 1
EndChar

StartChar: uE022
Encoding: 186 57378 197
Width: 2027
Flags: W
LayerCount: 2
Fore
SplineSet
1346 909 m 2,0,1
 1373 891 1373 891 1372 860 c 0,2,3
 1372 835 1372 835 1354.5 816 c 128,-1,4
 1337 797 1337 797 1313 797 c 0,5,6
 1295 797 1295 797 1276 807 c 2,7,-1
 999 991 l 2,8,9
 964 1014 964 1014 965 1049 c 0,10,11
 965 1082 965 1082 999 1104 c 2,12,-1
 1276 1288 l 2,13,14
 1294 1300 1294 1300 1311 1300 c 0,15,16
 1338 1300 1338 1300 1355 1280 c 128,-1,17
 1372 1260 1372 1260 1372 1235 c 0,18,19
 1372 1204 1372 1204 1346 1186 c 2,20,-1
 1135 1049 l 1,21,-1
 1346 909 l 2,0,1
2028 307 m 2,22,23
 2028 246 2028 246 1966 246 c 256,24,25
 1905 246 1905 246 1905 307 c 2,26,-1
 1905 655 l 1,27,-1
 666 655 l 1,28,29
 600 522 600 522 461 367 c 0,30,31
 291 177 291 177 180 176 c 0,32,33
 121 176 121 176 121 240 c 0,34,35
 121 283 121 283 164 297 c 0,36,37
 248 322 248 322 352 428 c 0,38,39
 452 528 452 528 526 655 c 1,40,-1
 471 655 l 2,41,42
 350 655 350 655 264 717 c 0,43,44
 160 791 160 791 160 922 c 0,45,46
 160 1028 160 1028 258 1110 c 0,47,48
 350 1188 350 1188 453 1188 c 0,49,50
 574 1188 574 1188 654.5 1104 c 128,-1,51
 735 1020 735 1020 735 899 c 0,52,53
 735 844 735 844 715 778 c 1,54,-1
 1905 778 l 1,55,-1
 1905 1126 l 2,56,57
 1905 1187 1905 1187 1966 1188 c 256,58,59
 2027 1188 2027 1188 2028 1126 c 2,60,-1
 2028 307 l 2,22,23
1346 248 m 2,61,62
 1373 230 1373 230 1372 199 c 0,63,64
 1372 174 1372 174 1354.5 153.5 c 128,-1,65
 1337 133 1337 133 1313 133 c 0,66,67
 1295 133 1295 133 1276 145 c 2,68,-1
 999 330 l 2,69,70
 964 353 964 353 965 385 c 0,71,72
 965 420 965 420 999 442 c 2,73,-1
 1276 627 l 2,74,75
 1294 637 1294 637 1311 637 c 0,76,77
 1338 637 1338 637 1355 617.5 c 128,-1,78
 1372 598 1372 598 1372 573 c 0,79,80
 1372 542 1372 542 1346 524 c 2,81,-1
 1135 385 l 1,82,-1
 1346 248 l 2,61,62
612 899 m 0,83,84
 612 971 612 971 566 1018 c 128,-1,85
 520 1065 520 1065 453 1065 c 0,86,87
 394 1065 394 1065 338.5 1018 c 128,-1,88
 283 971 283 971 283 922 c 0,89,90
 283 856 283 856 335 817 c 128,-1,91
 387 778 387 778 471 778 c 2,92,-1
 586 778 l 1,93,94
 612 848 612 848 612 899 c 0,83,84
EndSplineSet
Validated: 33
EndChar

StartChar: uE023
Encoding: 187 57379 198
Width: 1902
Flags: W
LayerCount: 2
Fore
SplineSet
1556 1147 m 256,0,1
 1556 1096 1556 1096 1520.5 1060 c 128,-1,2
 1485 1024 1485 1024 1434 1024 c 256,3,4
 1383 1024 1383 1024 1347 1060 c 128,-1,5
 1311 1096 1311 1096 1311 1147 c 256,6,7
 1311 1198 1311 1198 1346.5 1234 c 128,-1,8
 1382 1270 1382 1270 1434 1270 c 256,9,10
 1485 1270 1485 1270 1520.5 1234 c 128,-1,11
 1556 1198 1556 1198 1556 1147 c 256,0,1
1903 410 m 2,12,13
 1903 349 1903 349 1841 348 c 256,14,15
 1780 348 1780 348 1780 410 c 2,16,-1
 1780 758 l 1,17,-1
 514 758 l 2,18,19
 412 758 412 758 339 685 c 128,-1,20
 266 612 266 612 266 512 c 0,21,22
 266 410 266 410 339 337 c 128,-1,23
 412 264 412 264 514 264 c 0,24,25
 575 264 575 264 575 203 c 256,26,27
 575 142 575 142 514 141 c 0,28,29
 360 141 360 141 251.5 249.5 c 128,-1,30
 143 358 143 358 143 512 c 0,31,32
 143 709 143 709 309 819 c 1,33,34
 143 930 143 930 143 1128 c 0,35,36
 143 1280 143 1280 251.5 1388.5 c 128,-1,37
 360 1497 360 1497 514 1497 c 0,38,39
 575 1497 575 1497 575 1436 c 256,40,41
 575 1375 575 1375 514 1374 c 0,42,43
 412 1374 412 1374 339 1301.5 c 128,-1,44
 266 1229 266 1229 266 1128 c 0,45,46
 266 1026 266 1026 339 953.5 c 128,-1,47
 412 881 412 881 514 881 c 2,48,-1
 1780 881 l 1,49,-1
 1780 1229 l 2,50,51
 1780 1290 1780 1290 1841 1290 c 256,52,53
 1902 1290 1902 1290 1903 1229 c 2,54,-1
 1903 410 l 2,12,13
EndSplineSet
Validated: 1
EndChar

StartChar: uE024
Encoding: 188 57380 199
Width: 1902
Flags: W
LayerCount: 2
Fore
SplineSet
1270 1147 m 256,0,1
 1270 1096 1270 1096 1234 1060 c 128,-1,2
 1198 1024 1198 1024 1147 1024 c 256,3,4
 1096 1024 1096 1024 1060 1060 c 128,-1,5
 1024 1096 1024 1096 1024 1147 c 256,6,7
 1024 1198 1024 1198 1060 1234 c 128,-1,8
 1096 1270 1096 1270 1147 1270 c 256,9,10
 1198 1270 1198 1270 1234 1234 c 128,-1,11
 1270 1198 1270 1198 1270 1147 c 256,0,1
1903 410 m 2,12,13
 1903 349 1903 349 1841 348 c 256,14,15
 1780 348 1780 348 1780 410 c 2,16,-1
 1780 758 l 1,17,-1
 352 758 l 1,18,-1
 657 453 l 2,19,20
 677 435 677 435 678 410 c 256,21,22
 678 385 678 385 658.5 365.5 c 128,-1,23
 639 346 639 346 614 346 c 256,24,25
 589 346 589 346 571 367 c 2,26,-1
 162 776 l 2,27,28
 142 794 142 794 141 819 c 256,29,30
 141 844 141 844 162 862 c 2,31,-1
 571 1272 l 2,32,33
 589 1292 589 1292 614 1292 c 256,34,35
 639 1292 639 1292 658.5 1272.5 c 128,-1,36
 678 1253 678 1253 678 1229 c 256,37,38
 678 1204 678 1204 657 1186 c 2,39,-1
 352 881 l 1,40,-1
 1780 881 l 1,41,-1
 1780 1229 l 2,42,43
 1780 1290 1780 1290 1841 1290 c 256,44,45
 1902 1290 1902 1290 1903 1229 c 2,46,-1
 1903 410 l 2,12,13
EndSplineSet
Validated: 1
EndChar

StartChar: uE025
Encoding: 189 57381 200
Width: 1355
Flags: W
LayerCount: 2
Fore
SplineSet
1356 731 m 0,0,1
 1356 596 1356 596 1259.5 499.5 c 128,-1,2
 1163 403 1163 403 1028 403 c 2,3,-1
 807 403 l 1,4,-1
 807 0 l 2,5,6
 807 -61 807 -61 745 -61 c 256,7,8
 684 -61 684 -61 684 0 c 2,9,-1
 684 139 l 1,10,-1
 471 139 l 2,11,12
 336 139 336 139 239.5 235.5 c 128,-1,13
 143 332 143 332 143 469 c 0,14,15
 143 637 143 637 281 735 c 1,16,17
 144 833 144 833 143 1004 c 0,18,19
 143 1139 143 1139 239.5 1235 c 128,-1,20
 336 1331 336 1331 471 1331 c 2,21,-1
 684 1331 l 1,22,-1
 684 1436 l 2,23,24
 684 1497 684 1497 745 1497 c 256,25,26
 806 1497 806 1497 807 1436 c 2,27,-1
 807 1061 l 1,28,-1
 1028 1061 l 2,29,30
 1163 1061 1163 1061 1259.5 964.5 c 128,-1,31
 1356 868 1356 868 1356 731 c 0,0,1
1233 731 m 0,32,33
 1233 817 1233 817 1172.5 877.5 c 128,-1,34
 1112 938 1112 938 1028 938 c 2,35,-1
 807 938 l 1,36,-1
 807 526 l 1,37,-1
 1028 526 l 2,38,39
 1112 526 1112 526 1172.5 586.5 c 128,-1,40
 1233 647 1233 647 1233 731 c 0,32,33
684 797 m 1,41,-1
 684 1208 l 1,42,-1
 471 1208 l 2,43,44
 387 1208 387 1208 326.5 1147.5 c 128,-1,45
 266 1087 266 1087 266 1004 c 0,46,47
 266 918 266 918 326.5 857.5 c 128,-1,48
 387 797 387 797 471 797 c 2,49,-1
 684 797 l 1,41,-1
684 262 m 1,50,-1
 684 674 l 1,51,-1
 471 674 l 2,52,53
 387 674 387 674 326.5 613.5 c 128,-1,54
 266 553 266 553 266 469 c 0,55,56
 266 383 266 383 326.5 322.5 c 128,-1,57
 387 262 387 262 471 262 c 2,58,-1
 684 262 l 1,50,-1
EndSplineSet
Validated: 1
EndChar

StartChar: uE026
Encoding: 190 57382 201
Width: 1699
Flags: W
LayerCount: 2
Fore
SplineSet
1700 410 m 2,0,1
 1700 349 1700 349 1638 348 c 2,2,-1
 676 348 l 1,3,-1
 676 12 l 2,4,5
 676 -58 676 -58 614 -57 c 0,6,7
 585 -57 585 -57 563 -35 c 2,8,-1
 170 358 l 2,9,10
 145 381 145 381 145 410 c 0,11,12
 145 471 145 471 217 471 c 2,13,-1
 553 471 l 1,14,-1
 553 963 l 1,15,-1
 217 963 l 2,16,17
 147 963 147 963 147 1024 c 0,18,19
 147 1053 147 1053 170 1075 c 2,20,-1
 563 1470 l 2,21,22
 586 1495 586 1495 614 1495 c 0,23,24
 675 1495 675 1495 676 1423 c 2,25,-1
 676 1085 l 1,26,-1
 1638 1085 l 2,27,28
 1699 1085 1699 1085 1700 1024 c 2,29,-1
 1700 410 l 2,0,1
1577 471 m 1,30,-1
 1577 963 l 1,31,-1
 676 963 l 1,32,-1
 676 471 l 1,33,-1
 1577 471 l 1,30,-1
553 1085 m 1,34,-1
 553 1286 l 1,35,-1
 352 1085 l 1,36,-1
 553 1085 l 1,34,-1
553 147 m 1,37,-1
 553 348 l 1,38,-1
 352 348 l 1,39,-1
 553 147 l 1,37,-1
EndSplineSet
Validated: 33
EndChar

StartChar: uE027
Encoding: 191 57383 202
Width: 1306
Flags: W
LayerCount: 2
Fore
SplineSet
1247 782 m 0,0,1
 1302 770 1302 770 1303 721 c 0,2,3
 1303 670 1303 670 1247 659 c 0,4,5
 751 559 751 559 432 330 c 1,6,7
 553 277 553 277 553 143 c 0,8,9
 553 59 553 59 492.5 -1 c 128,-1,10
 432 -61 432 -61 348 -61 c 256,11,12
 264 -61 264 -61 203.5 -1 c 128,-1,13
 143 59 143 59 143 143 c 0,14,15
 143 249 143 249 233 330 c 0,16,17
 526 590 526 590 985 723 c 1,18,19
 807 776 807 776 602 877 c 1,20,-1
 459 682 l 2,21,22
 441 655 441 655 412 655 c 0,23,24
 387 655 387 655 366.5 673.5 c 128,-1,25
 346 692 346 692 346 717 c 0,26,27
 346 737 346 737 360 754 c 2,28,-1
 492 934 l 1,29,30
 234 1077 234 1077 168 1202 c 0,31,32
 143 1247 143 1247 143 1298 c 0,33,34
 143 1382 143 1382 203.5 1442.5 c 128,-1,35
 264 1503 264 1503 348 1503 c 0,36,37
 434 1503 434 1503 493.5 1442.5 c 128,-1,38
 553 1382 553 1382 553 1298 c 0,39,40
 553 1165 553 1165 432 1112 c 1,41,42
 493 1067 493 1067 563 1030 c 1,43,-1
 770 1311 l 2,44,45
 788 1338 788 1338 817 1337 c 0,46,47
 842 1337 842 1337 862.5 1318.5 c 128,-1,48
 883 1300 883 1300 883 1276 c 0,49,50
 883 1256 883 1256 868 1239 c 2,51,-1
 672 971 l 1,52,53
 915 854 915 854 1247 782 c 0,0,1
430 1298 m 0,54,55
 430 1331 430 1331 406.5 1355.5 c 128,-1,56
 383 1380 383 1380 348 1380 c 0,57,58
 315 1380 315 1380 290.5 1355.5 c 128,-1,59
 266 1331 266 1331 266 1298 c 0,60,61
 266 1263 266 1263 290.5 1240 c 128,-1,62
 315 1217 315 1217 348 1217 c 0,63,64
 383 1217 383 1217 406.5 1240 c 128,-1,65
 430 1263 430 1263 430 1298 c 0,54,55
430 143 m 0,66,67
 430 178 430 178 406.5 201.5 c 128,-1,68
 383 225 383 225 348 225 c 0,69,70
 315 225 315 225 290.5 200.5 c 128,-1,71
 266 176 266 176 266 143 c 0,72,73
 266 108 266 108 290.5 84.5 c 128,-1,74
 315 61 315 61 348 61 c 0,75,76
 383 61 383 61 406.5 85.5 c 128,-1,77
 430 110 430 110 430 143 c 0,66,67
EndSplineSet
Validated: 1
EndChar

StartChar: uE028
Encoding: 192 57384 203
Width: 1622
Flags: W
LayerCount: 2
Fore
SplineSet
1622 166 m 256,0,1
 1622 72 1622 72 1555.5 5.5 c 128,-1,2
 1489 -61 1489 -61 1395 -61 c 256,3,4
 1301 -61 1301 -61 1234 5.5 c 128,-1,5
 1167 72 1167 72 1167 166 c 0,6,7
 1167 176 1167 176 1167 186 c 1,8,-1
 836 346 l 1,9,-1
 731 84 l 2,10,11
 715 45 715 45 676 45 c 0,12,13
 613 45 613 45 612 104 c 0,14,15
 612 116 612 116 616 129 c 2,16,-1
 725 399 l 1,17,-1
 188 655 l 2,18,19
 147 675 147 675 147 717 c 256,20,21
 147 758 147 758 188 778 c 2,22,-1
 1167 1247 l 1,23,24
 1167 1257 1167 1257 1167 1268 c 0,25,26
 1167 1362 1167 1362 1233.5 1428.5 c 128,-1,27
 1300 1495 1300 1495 1395 1495 c 256,28,29
 1489 1495 1489 1495 1555.5 1428.5 c 128,-1,30
 1622 1362 1622 1362 1622 1268 c 256,31,32
 1622 1174 1622 1174 1555.5 1107 c 128,-1,33
 1489 1040 1489 1040 1395 1040 c 0,34,35
 1280 1040 1280 1040 1212 1133 c 1,36,-1
 346 717 l 1,37,-1
 770 514 l 1,38,-1
 850 713 l 2,39,40
 866 752 866 752 905 752 c 0,41,42
 968 752 968 752 969 692 c 0,43,44
 969 680 969 680 965 668 c 2,45,-1
 881 461 l 1,46,-1
 1212 301 l 1,47,48
 1280 393 1280 393 1395 393 c 0,49,50
 1489 393 1489 393 1555.5 326.5 c 128,-1,51
 1622 260 1622 260 1622 166 c 256,0,1
1499 1268 m 256,52,53
 1499 1311 1499 1311 1468.5 1341.5 c 128,-1,54
 1438 1372 1438 1372 1395 1372 c 256,55,56
 1352 1372 1352 1372 1321 1341.5 c 128,-1,57
 1290 1311 1290 1311 1290 1268 c 256,58,59
 1290 1225 1290 1225 1321 1194 c 128,-1,60
 1352 1163 1352 1163 1395 1163 c 256,61,62
 1438 1163 1438 1163 1468.5 1194 c 128,-1,63
 1499 1225 1499 1225 1499 1268 c 256,52,53
1499 166 m 256,64,65
 1499 209 1499 209 1468.5 239.5 c 128,-1,66
 1438 270 1438 270 1395 270 c 256,67,68
 1352 270 1352 270 1321 239.5 c 128,-1,69
 1290 209 1290 209 1290 166 c 256,70,71
 1290 123 1290 123 1321 92 c 128,-1,72
 1352 61 1352 61 1395 61 c 256,73,74
 1438 61 1438 61 1468.5 92 c 128,-1,75
 1499 123 1499 123 1499 166 c 256,64,65
EndSplineSet
Validated: 1
EndChar

StartChar: uE029
Encoding: 193 57385 204
Width: 1288
Flags: W
LayerCount: 2
Fore
SplineSet
1229 668 m 2,0,-1
 1085 668 l 1,1,-1
 1085 0 l 2,2,3
 1085 -61 1085 -61 1024 -61 c 2,4,-1
 410 -61 l 2,5,6
 349 -61 349 -61 348 0 c 2,7,-1
 348 668 l 1,8,-1
 205 668 l 2,9,10
 144 668 144 668 143 729 c 256,11,12
 143 790 143 790 205 791 c 2,13,-1
 348 791 l 1,14,-1
 348 1436 l 2,15,16
 348 1497 348 1497 410 1497 c 2,17,-1
 1024 1497 l 2,18,19
 1085 1497 1085 1497 1085 1436 c 2,20,-1
 1085 791 l 1,21,-1
 1229 791 l 2,22,23
 1290 791 1290 791 1290 729 c 256,24,25
 1290 668 1290 668 1229 668 c 2,0,-1
963 791 m 1,26,-1
 963 1374 l 1,27,-1
 471 1374 l 1,28,-1
 471 791 l 1,29,-1
 963 791 l 1,26,-1
963 61 m 1,30,-1
 963 668 l 1,31,-1
 471 668 l 1,32,-1
 471 61 l 1,33,-1
 963 61 l 1,30,-1
EndSplineSet
Validated: 1
EndChar

StartChar: uE02A
Encoding: 194 57386 205
Width: 2113
Flags: W
LayerCount: 2
Fore
SplineSet
2048 670 m 2,0,-1
 1905 670 l 1,1,-1
 1905 416 l 2,2,3
 1905 355 1905 355 1845 354 c 2,4,-1
 410 354 l 2,5,6
 349 354 349 354 348 416 c 2,7,-1
 348 670 l 1,8,-1
 205 670 l 2,9,10
 144 670 144 670 143 731 c 256,11,12
 143 792 143 792 205 793 c 2,13,-1
 348 793 l 1,14,-1
 348 1030 l 2,15,16
 348 1091 348 1091 410 1092 c 2,17,-1
 1843 1092 l 2,18,19
 1904 1092 1904 1092 1905 1030 c 2,20,-1
 1905 793 l 1,21,-1
 2048 793 l 2,22,23
 2109 793 2109 793 2109 731 c 256,24,25
 2109 670 2109 670 2048 670 c 2,0,-1
1782 793 m 1,26,-1
 1782 969 l 1,27,-1
 471 969 l 1,28,-1
 471 793 l 1,29,-1
 1782 793 l 1,26,-1
1782 477 m 1,30,-1
 1782 670 l 1,31,-1
 471 670 l 1,32,-1
 471 477 l 1,33,-1
 1782 477 l 1,30,-1
EndSplineSet
Validated: 1
EndChar

StartChar: uE02B
Encoding: 195 57387 206
Width: 1765
Flags: W
LayerCount: 2
Fore
SplineSet
1765 162 m 256,0,1
 1765 68 1765 68 1698.5 1 c 128,-1,2
 1632 -66 1632 -66 1538 -66 c 256,3,4
 1444 -66 1444 -66 1377.5 1 c 128,-1,5
 1311 68 1311 68 1311 162 c 0,6,7
 1311 277 1311 277 1403 344 c 1,8,-1
 952 1278 l 1,9,-1
 506 350 l 1,10,11
 598 280 598 280 598 168 c 0,12,13
 598 74 598 74 531.5 7.5 c 128,-1,14
 465 -59 465 -59 371 -59 c 256,15,16
 277 -59 277 -59 210 7.5 c 128,-1,17
 143 74 143 74 143 168 c 256,18,19
 143 262 143 262 209.5 328.5 c 128,-1,20
 276 395 276 395 371 395 c 0,21,22
 381 395 381 395 391 393 c 1,23,-1
 891 1436 l 2,24,25
 911 1479 911 1479 952 1479 c 256,26,27
 993 1479 993 1479 1014 1436 c 2,28,-1
 1518 389 l 1,29,30
 1528 389 1528 389 1538 389 c 0,31,32
 1632 389 1632 389 1698.5 322.5 c 128,-1,33
 1765 256 1765 256 1765 162 c 256,0,1
1642 162 m 256,34,35
 1642 205 1642 205 1611.5 235.5 c 128,-1,36
 1581 266 1581 266 1538 266 c 256,37,38
 1495 266 1495 266 1464.5 235.5 c 128,-1,39
 1434 205 1434 205 1434 162 c 256,40,41
 1434 119 1434 119 1464.5 88 c 128,-1,42
 1495 57 1495 57 1538 57 c 256,43,44
 1581 57 1581 57 1611.5 88 c 128,-1,45
 1642 119 1642 119 1642 162 c 256,34,35
475 168 m 256,46,47
 475 211 475 211 444.5 241.5 c 128,-1,48
 414 272 414 272 371 272 c 256,49,50
 328 272 328 272 297 241.5 c 128,-1,51
 266 211 266 211 266 168 c 256,52,53
 266 125 266 125 297 94 c 128,-1,54
 328 63 328 63 371 63 c 256,55,56
 414 63 414 63 444.5 94 c 128,-1,57
 475 125 475 125 475 168 c 256,46,47
EndSplineSet
Validated: 1
EndChar

StartChar: uE02C
Encoding: 196 57388 207
Width: 1699
Flags: W
LayerCount: 2
Fore
SplineSet
1700 362 m 0,0,1
 1700 278 1700 278 1639.5 218 c 128,-1,2
 1579 158 1579 158 1495 158 c 0,3,4
 1446 158 1446 158 1399 182 c 0,5,6
 1264 248 1264 248 1106 549 c 0,7,8
 983 785 983 785 918 1001 c 1,9,10
 783 526 783 526 526 248 c 0,11,12
 444 158 444 158 340 158 c 0,13,14
 254 158 254 158 194.5 218.5 c 128,-1,15
 135 279 135 279 135 362 c 0,16,17
 135 448 135 448 194.5 507.5 c 128,-1,18
 254 567 254 567 340 567 c 0,19,20
 473 567 473 567 526 446 c 1,21,22
 739 745 739 745 840 1190 c 0,23,24
 858 1270 858 1270 858 1272 c 0,25,26
 876 1319 876 1319 918 1319 c 0,27,28
 957 1319 957 1319 975 1272 c 0,29,30
 975 1270 975 1270 993 1192 c 0,31,32
 1099 743 1099 743 1307 446 c 1,33,34
 1362 567 1362 567 1493 567 c 0,35,36
 1579 567 1579 567 1639.5 507.5 c 128,-1,37
 1700 448 1700 448 1700 362 c 0,0,1
1577 362 m 0,38,39
 1577 397 1577 397 1552.5 420.5 c 128,-1,40
 1528 444 1528 444 1493 444 c 0,41,42
 1460 444 1460 444 1435.5 420.5 c 128,-1,43
 1411 397 1411 397 1411 362 c 0,44,45
 1411 329 1411 329 1435.5 305 c 128,-1,46
 1460 281 1460 281 1495 281 c 0,47,48
 1528 281 1528 281 1552.5 305 c 128,-1,49
 1577 329 1577 329 1577 362 c 0,38,39
422 362 m 0,50,51
 422 397 422 397 397.5 420.5 c 128,-1,52
 373 444 373 444 340 444 c 0,53,54
 305 444 305 444 281.5 420.5 c 128,-1,55
 258 397 258 397 258 362 c 0,56,57
 258 329 258 329 281.5 305 c 128,-1,58
 305 281 305 281 340 281 c 0,59,60
 371 281 371 281 396.5 306 c 128,-1,61
 422 331 422 331 422 362 c 0,50,51
EndSplineSet
Validated: 1
EndChar

StartChar: uE02D
Encoding: 197 57389 208
Width: 1302
Flags: W
LayerCount: 2
Fore
SplineSet
1247 782 m 0,0,1
 1302 770 1302 770 1303 721 c 0,2,3
 1303 670 1303 670 1247 659 c 0,4,5
 751 559 751 559 432 330 c 1,6,7
 553 277 553 277 553 143 c 0,8,9
 553 59 553 59 492.5 -1 c 128,-1,10
 432 -61 432 -61 348 -61 c 256,11,12
 264 -61 264 -61 203.5 -1 c 128,-1,13
 143 59 143 59 143 143 c 0,14,15
 143 249 143 249 233 330 c 0,16,17
 526 590 526 590 985 723 c 1,18,19
 766 789 766 789 535 911 c 0,20,21
 240 1065 240 1065 168 1202 c 0,22,23
 143 1247 143 1247 143 1298 c 0,24,25
 143 1382 143 1382 203.5 1442.5 c 128,-1,26
 264 1503 264 1503 348 1503 c 0,27,28
 434 1503 434 1503 493.5 1442.5 c 128,-1,29
 553 1382 553 1382 553 1298 c 0,30,31
 553 1165 553 1165 432 1112 c 1,32,33
 747 891 747 891 1247 782 c 0,0,1
430 1298 m 0,34,35
 430 1331 430 1331 406.5 1355.5 c 128,-1,36
 383 1380 383 1380 348 1380 c 0,37,38
 315 1380 315 1380 290.5 1355.5 c 128,-1,39
 266 1331 266 1331 266 1298 c 0,40,41
 266 1263 266 1263 290.5 1240 c 128,-1,42
 315 1217 315 1217 348 1217 c 0,43,44
 383 1217 383 1217 406.5 1240 c 128,-1,45
 430 1263 430 1263 430 1298 c 0,34,35
430 143 m 0,46,47
 430 178 430 178 406.5 201.5 c 128,-1,48
 383 225 383 225 348 225 c 0,49,50
 315 225 315 225 290.5 200.5 c 128,-1,51
 266 176 266 176 266 143 c 0,52,53
 266 108 266 108 290.5 84.5 c 128,-1,54
 315 61 315 61 348 61 c 0,55,56
 383 61 383 61 406.5 85.5 c 128,-1,57
 430 110 430 110 430 143 c 0,46,47
EndSplineSet
Validated: 1
EndChar

StartChar: uE02E
Encoding: 198 57390 209
Width: 1257
Flags: W
LayerCount: 2
Fore
SplineSet
1233 997 m 0,0,1
 1118 841 1118 841 930 664 c 1,2,3
 1034 574 1034 574 1167 418 c 0,4,5
 1185 395 1185 395 1186 375 c 0,6,7
 1186 357 1186 357 1169 336 c 2,8,-1
 897 -33 l 2,9,10
 879 -58 879 -58 850 -57 c 0,11,12
 825 -57 825 -57 804.5 -38.5 c 128,-1,13
 784 -20 784 -20 784 4 c 0,14,15
 784 22 784 22 799 41 c 2,16,-1
 1044 373 l 1,17,18
 935 498 935 498 838 582 c 1,19,20
 602 383 602 383 451 383 c 0,21,22
 338 383 338 383 252 440 c 0,23,24
 143 510 143 510 143 635 c 256,25,26
 143 760 143 760 254 827 c 0,27,28
 340 880 340 880 451 881 c 0,29,30
 635 881 635 881 831 741 c 1,31,32
 962 866 962 866 1090 1016 c 1,33,-1
 848 1112 l 2,34,35
 801 1130 801 1130 801 1174 c 0,36,37
 801 1205 801 1205 827 1227 c 2,38,-1
 1112 1481 l 2,39,40
 1130 1499 1130 1499 1153 1499 c 0,41,42
 1178 1499 1178 1499 1197.5 1479.5 c 128,-1,43
 1217 1460 1217 1460 1217 1436 c 0,44,45
 1217 1409 1217 1409 1194 1391 c 2,46,-1
 975 1194 l 1,47,-1
 1204 1102 l 2,48,49
 1251 1084 1251 1084 1251 1040 c 0,50,51
 1251 1017 1251 1017 1233 997 c 0,0,1
737 657 m 1,52,53
 583 757 583 757 451 758 c 0,54,55
 371 758 371 758 318.5 723 c 128,-1,56
 266 688 266 688 266 635 c 0,57,58
 266 580 266 580 319.5 543 c 128,-1,59
 373 506 373 506 451 506 c 0,60,61
 555 505 555 505 737 657 c 1,52,53
EndSplineSet
Validated: 33
EndChar

StartChar: uE02F
Encoding: 199 57391 210
Width: 933
Flags: W
LayerCount: 2
Fore
SplineSet
934 1018 m 2,0,1
 934 871 934 871 837.5 761 c 128,-1,2
 741 651 741 651 600 629 c 1,3,-1
 600 369 l 1,4,-1
 743 369 l 2,5,6
 804 369 804 369 805 307 c 256,7,8
 805 246 805 246 743 246 c 2,9,-1
 334 246 l 2,10,11
 273 246 273 246 272 307 c 256,12,13
 272 368 272 368 334 369 c 2,14,-1
 477 369 l 1,15,-1
 477 629 l 1,16,17
 334 652 334 652 238.5 761 c 128,-1,18
 143 870 143 870 143 1018 c 2,19,-1
 143 1436 l 2,20,21
 143 1497 143 1497 205 1497 c 256,22,23
 266 1497 266 1497 266 1436 c 2,24,-1
 266 1018 l 2,25,26
 266 905 266 905 346 825 c 128,-1,27
 426 745 426 745 539 745 c 256,28,29
 652 745 652 745 731.5 825 c 128,-1,30
 811 905 811 905 811 1018 c 2,31,-1
 811 1436 l 2,32,33
 811 1497 811 1497 872 1497 c 256,34,35
 933 1497 933 1497 934 1436 c 2,36,-1
 934 1018 l 2,0,1
852 61 m 256,37,38
 852 10 852 10 816 -25.5 c 128,-1,39
 780 -61 780 -61 729 -61 c 256,40,41
 678 -61 678 -61 642 -25.5 c 128,-1,42
 606 10 606 10 606 61 c 256,43,44
 606 112 606 112 642 148 c 128,-1,45
 678 184 678 184 729 184 c 256,46,47
 780 184 780 184 816 148 c 128,-1,48
 852 112 852 112 852 61 c 256,37,38
473 61 m 256,49,50
 473 10 473 10 437 -25.5 c 128,-1,51
 401 -61 401 -61 350 -61 c 256,52,53
 299 -61 299 -61 263 -25.5 c 128,-1,54
 227 10 227 10 227 61 c 256,55,56
 227 112 227 112 263 148 c 128,-1,57
 299 184 299 184 350 184 c 256,58,59
 401 184 401 184 437 148 c 128,-1,60
 473 112 473 112 473 61 c 256,49,50
EndSplineSet
Validated: 1
EndChar

StartChar: uE030
Encoding: 200 57392 211
Width: 1015
Flags: W
LayerCount: 2
Fore
SplineSet
1016 2 m 2,0,1
 1016 -59 1016 -59 954 -59 c 256,2,3
 893 -59 893 -59 893 2 c 2,4,-1
 893 309 l 2,5,6
 893 438 893 438 793 514 c 0,7,8
 703 582 703 582 580 582 c 0,9,10
 459 582 459 582 367 508 c 0,11,12
 267 428 267 428 266 309 c 2,13,-1
 266 2 l 2,14,15
 266 -59 266 -59 205 -59 c 256,16,17
 144 -59 144 -59 143 2 c 2,18,-1
 143 309 l 2,19,20
 143 471 143 471 260 580 c 0,21,22
 362 674 362 674 518 698 c 1,23,-1
 518 815 l 1,24,25
 375 838 375 838 279.5 947.5 c 128,-1,26
 184 1057 184 1057 184 1204 c 2,27,-1
 184 1436 l 2,28,29
 184 1497 184 1497 246 1497 c 256,30,31
 307 1497 307 1497 307 1436 c 2,32,-1
 307 1204 l 2,33,34
 307 1091 307 1091 387 1011.5 c 128,-1,35
 467 932 467 932 580 932 c 256,36,37
 693 932 693 932 772.5 1012 c 128,-1,38
 852 1092 852 1092 852 1204 c 2,39,-1
 852 1436 l 2,40,41
 852 1497 852 1497 913 1497 c 256,42,43
 974 1497 974 1497 975 1436 c 2,44,-1
 975 1204 l 2,45,46
 975 1057 975 1057 878.5 947.5 c 128,-1,47
 782 838 782 838 641 815 c 1,48,-1
 641 698 l 1,49,50
 799 673 799 673 899 584 c 0,51,52
 1016 478 1016 478 1016 309 c 2,53,-1
 1016 2 l 2,0,1
702 397 m 0,54,55
 702 348 702 348 666.5 311 c 128,-1,56
 631 274 631 274 580 274 c 256,57,58
 529 274 529 274 493 311 c 128,-1,59
 457 348 457 348 457 397 c 0,60,61
 457 448 457 448 492.5 485 c 128,-1,62
 528 522 528 522 580 522 c 256,63,64
 631 522 631 522 666.5 485 c 128,-1,65
 702 448 702 448 702 397 c 0,54,55
852 127 m 256,66,67
 852 76 852 76 816 40 c 128,-1,68
 780 4 780 4 729 4 c 256,69,70
 678 4 678 4 642 40 c 128,-1,71
 606 76 606 76 606 127 c 256,72,73
 606 178 606 178 642 214 c 128,-1,74
 678 250 678 250 729 250 c 256,75,76
 780 250 780 250 816 214 c 128,-1,77
 852 178 852 178 852 127 c 256,66,67
561 127 m 256,78,79
 561 76 561 76 525 40 c 128,-1,80
 489 4 489 4 438 4 c 256,81,82
 387 4 387 4 351 40 c 128,-1,83
 315 76 315 76 315 127 c 256,84,85
 315 178 315 178 351 214 c 128,-1,86
 387 250 387 250 438 250 c 256,87,88
 489 250 489 250 525 214 c 128,-1,89
 561 178 561 178 561 127 c 256,78,79
EndSplineSet
Validated: 1
EndChar

StartChar: uE031
Encoding: 201 57393 212
Width: 2785
Flags: W
LayerCount: 2
Fore
SplineSet
2785 471 m 2,0,1
 2785 410 2785 410 2724 410 c 256,2,3
 2663 410 2663 410 2662 471 c 2,4,-1
 2662 653 l 1,5,-1
 1556 653 l 1,6,-1
 1556 471 l 2,7,8
 1556 410 1556 410 1495 410 c 2,9,-1
 209 410 l 2,10,11
 148 410 148 410 147 471 c 2,12,-1
 147 963 l 2,13,14
 147 1024 147 1024 209 1024 c 2,15,-1
 1495 1024 l 2,16,17
 1556 1024 1556 1024 1556 963 c 2,18,-1
 1556 776 l 1,19,-1
 2662 776 l 1,20,-1
 2662 963 l 2,21,22
 2662 1024 2662 1024 2724 1024 c 256,23,24
 2785 1024 2785 1024 2785 963 c 2,25,-1
 2785 471 l 2,0,1
1434 532 m 1,26,-1
 1434 901 l 1,27,-1
 270 901 l 1,28,-1
 270 532 l 1,29,-1
 1434 532 l 1,26,-1
EndSplineSet
Validated: 1
EndChar

StartChar: uE032
Encoding: 202 57394 213
Width: 2785
Flags: W
LayerCount: 2
Fore
SplineSet
2785 471 m 2,0,1
 2785 410 2785 410 2724 410 c 2,2,-1
 1438 410 l 2,3,4
 1377 410 1377 410 1376 471 c 2,5,-1
 1376 653 l 1,6,-1
 270 653 l 1,7,-1
 270 471 l 2,8,9
 270 410 270 410 209 410 c 256,10,11
 148 410 148 410 147 471 c 2,12,-1
 147 963 l 2,13,14
 147 1024 147 1024 209 1024 c 256,15,16
 270 1024 270 1024 270 963 c 2,17,-1
 270 776 l 1,18,-1
 1376 776 l 1,19,-1
 1376 963 l 2,20,21
 1376 1024 1376 1024 1438 1024 c 2,22,-1
 2724 1024 l 2,23,24
 2785 1024 2785 1024 2785 963 c 2,25,-1
 2785 471 l 2,0,1
2662 532 m 1,26,-1
 2662 901 l 1,27,-1
 1499 901 l 1,28,-1
 1499 532 l 1,29,-1
 2662 532 l 1,26,-1
EndSplineSet
Validated: 1
EndChar

StartChar: uE033
Encoding: 203 57395 214
Width: 1349
Flags: W
LayerCount: 2
Fore
SplineSet
1290 700 m 2,0,-1
 635 700 l 1,1,-1
 635 647 l 1,2,3
 705 672 705 672 778 672 c 0,4,5
 928 672 928 672 1037.5 579.5 c 128,-1,6
 1147 487 1147 487 1147 350 c 256,7,8
 1147 213 1147 213 1037.5 120 c 128,-1,9
 928 27 928 27 778 27 c 0,10,11
 641 27 641 27 537 104 c 0,12,13
 512 124 512 124 512 154 c 0,14,15
 512 179 512 179 530.5 198 c 128,-1,16
 549 217 549 217 573 217 c 0,17,18
 593 217 593 217 610 203 c 0,19,20
 682 150 682 150 778 150 c 0,21,22
 884 150 884 150 954 210 c 128,-1,23
 1024 270 1024 270 1024 350 c 0,24,25
 1024 428 1024 428 954.5 488.5 c 128,-1,26
 885 549 885 549 778 549 c 0,27,28
 692 549 692 549 621 502 c 0,29,30
 594 486 594 486 571 485 c 0,31,32
 512 485 512 485 512 557 c 2,33,-1
 512 700 l 1,34,-1
 205 700 l 2,35,36
 144 700 144 700 143 762 c 256,37,38
 143 823 143 823 205 823 c 2,39,-1
 512 823 l 1,40,-1
 512 967 l 2,41,42
 512 1045 512 1045 565 1044 c 0,43,44
 590 1044 590 1044 621 1022 c 0,45,46
 687 975 687 975 778 975 c 0,47,48
 884 975 884 975 954 1035.5 c 128,-1,49
 1024 1096 1024 1096 1024 1174 c 0,50,51
 1024 1254 1024 1254 954.5 1314 c 128,-1,52
 885 1374 885 1374 778 1374 c 0,53,54
 682 1374 682 1374 610 1321 c 0,55,56
 594 1307 594 1307 573 1307 c 0,57,58
 548 1307 548 1307 530 1326.5 c 128,-1,59
 512 1346 512 1346 512 1370 c 0,60,61
 512 1399 512 1399 537 1419 c 0,62,63
 641 1497 641 1497 778 1497 c 0,64,65
 928 1497 928 1497 1037.5 1404 c 128,-1,66
 1147 1311 1147 1311 1147 1174 c 256,67,68
 1147 1037 1147 1037 1037.5 944.5 c 128,-1,69
 928 852 928 852 778 852 c 0,70,71
 704 852 704 852 635 877 c 1,72,-1
 635 823 l 1,73,-1
 1290 823 l 2,74,75
 1351 823 1351 823 1352 762 c 256,76,77
 1351 700 1351 700 1290 700 c 2,0,-1
455 987 m 256,78,79
 455 936 455 936 419 900 c 128,-1,80
 383 864 383 864 332 864 c 256,81,82
 281 864 281 864 245 900 c 128,-1,83
 209 936 209 936 209 987 c 256,84,85
 209 1038 209 1038 245 1074 c 128,-1,86
 281 1110 281 1110 332 1110 c 256,87,88
 383 1110 383 1110 419 1074 c 128,-1,89
 455 1038 455 1038 455 987 c 256,78,79
1116 -106 m 256,90,91
 1116 -157 1116 -157 1079 -193 c 128,-1,92
 1042 -229 1042 -229 993 -229 c 0,93,94
 942 -229 942 -229 905 -193.5 c 128,-1,95
 868 -158 868 -158 868 -106 c 256,96,97
 868 -55 868 -55 905 -19.5 c 128,-1,98
 942 16 942 16 993 16 c 0,99,100
 1042 16 1042 16 1079 -19.5 c 128,-1,101
 1116 -55 1116 -55 1116 -106 c 256,90,91
455 537 m 256,102,103
 455 486 455 486 419 450 c 128,-1,104
 383 414 383 414 332 414 c 256,105,106
 281 414 281 414 245 449.5 c 128,-1,107
 209 485 209 485 209 537 c 256,108,109
 209 588 209 588 245 623.5 c 128,-1,110
 281 659 281 659 332 659 c 256,111,112
 383 659 383 659 419 623.5 c 128,-1,113
 455 588 455 588 455 537 c 256,102,103
735 -106 m 256,114,115
 735 -157 735 -157 699.5 -193 c 128,-1,116
 664 -229 664 -229 612 -229 c 256,117,118
 561 -229 561 -229 525 -193.5 c 128,-1,119
 489 -158 489 -158 489 -106 c 256,120,121
 489 -55 489 -55 525 -19.5 c 128,-1,122
 561 16 561 16 612 16 c 256,123,124
 663 16 663 16 699 -19.5 c 128,-1,125
 735 -55 735 -55 735 -106 c 256,114,115
EndSplineSet
Validated: 33
EndChar

StartChar: uE034
Encoding: 204 57396 215
Width: 1349
Flags: W
LayerCount: 2
Fore
SplineSet
1235 696 m 256,0,1
 1235 645 1235 645 1199 609 c 128,-1,2
 1163 573 1163 573 1112 573 c 256,3,4
 1061 573 1061 573 1025 609 c 128,-1,5
 989 645 989 645 989 696 c 256,6,7
 989 747 989 747 1025 783 c 128,-1,8
 1061 819 1061 819 1112 819 c 256,9,10
 1163 819 1163 819 1199 783 c 128,-1,11
 1235 747 1235 747 1235 696 c 256,0,1
1350 1178 m 0,12,13
 1350 1053 1350 1053 1268 985 c 0,14,15
 1194 924 1194 924 1071 924 c 0,16,17
 997 924 997 924 924 952 c 0,18,19
 885 968 885 968 885 1008 c 0,20,21
 885 1071 885 1071 946 1071 c 0,22,23
 958 1071 958 1071 971 1067 c 0,24,25
 1022 1047 1022 1047 1071 1047 c 0,26,27
 1227 1047 1227 1047 1227 1178 c 0,28,29
 1227 1284 1227 1284 1044 1339 c 0,30,31
 917 1378 917 1378 778 1378 c 256,32,33
 639 1378 639 1378 512 1339 c 0,34,35
 332 1284 332 1284 332 1178 c 0,36,37
 332 1119 332 1119 392.5 1077.5 c 128,-1,38
 453 1036 453 1036 541 1036 c 0,39,40
 590 1036 590 1036 635 1055 c 0,41,42
 649 1061 649 1061 664 1061 c 0,43,44
 727 1061 727 1061 727 991 c 2,45,-1
 727 459 l 2,46,47
 727 387 727 387 668 387 c 0,48,49
 652 387 652 387 635 395 c 0,50,51
 594 413 594 413 541 414 c 0,52,53
 461 414 461 414 396.5 360.5 c 128,-1,54
 332 307 332 307 332 240 c 0,55,56
 332 170 332 170 402.5 115.5 c 128,-1,57
 473 61 473 61 557 61 c 0,58,59
 635 61 635 61 684 92 c 0,60,61
 725 117 725 117 725 139 c 0,62,63
 725 174 725 174 678 182 c 0,64,65
 664 184 664 184 606 184 c 0,66,67
 598 184 598 184 594 182 c 0,68,69
 576 172 576 172 559 172 c 0,70,71
 502 172 502 172 502 233 c 0,72,73
 502 307 502 307 606 307 c 0,74,75
 848 307 848 307 848 139 c 0,76,77
 848 43 848 43 748 -14 c 0,78,79
 664 -61 664 -61 557 -61 c 0,80,81
 436 -61 436 -61 328 18 c 0,82,83
 209 106 209 106 209 240 c 0,84,85
 209 367 209 367 319 457 c 0,86,87
 419 537 419 537 541 537 c 0,88,89
 574 537 574 537 604 530 c 1,90,-1
 604 678 l 1,91,-1
 266 678 l 1,92,-1
 266 565 l 2,93,94
 266 504 266 504 205 504 c 256,95,96
 144 504 144 504 143 565 c 2,97,-1
 143 893 l 2,98,99
 143 954 143 954 205 954 c 256,100,101
 266 954 266 954 266 893 c 2,102,-1
 266 801 l 1,103,-1
 604 801 l 1,104,-1
 604 920 l 1,105,106
 573 914 573 914 541 913 c 0,107,108
 420 913 420 913 326 973 c 0,109,110
 209 1047 209 1047 209 1178 c 0,111,112
 209 1352 209 1352 422 1438 c 0,113,114
 578 1501 578 1501 778 1501 c 256,115,116
 979 1501 979 1501 1137 1438 c 0,117,118
 1350 1352 1350 1352 1350 1178 c 0,12,13
1235 328 m 0,119,120
 1235 277 1235 277 1199 240 c 128,-1,121
 1163 203 1163 203 1112 203 c 256,122,123
 1061 203 1061 203 1025 239.5 c 128,-1,124
 989 276 989 276 989 328 c 0,125,126
 989 377 989 377 1025 414 c 128,-1,127
 1061 451 1061 451 1112 451 c 256,128,129
 1163 451 1163 451 1199 414 c 128,-1,130
 1235 377 1235 377 1235 328 c 0,119,120
EndSplineSet
Validated: 1
EndChar

StartChar: uE035
Encoding: 205 57397 216
Width: 1290
Flags: W
LayerCount: 2
Fore
SplineSet
1290 262 m 256,0,1
 1290 125 1290 125 1179.5 32 c 128,-1,2
 1069 -61 1069 -61 922 -61 c 0,3,4
 783 -61 783 -61 680 16 c 0,5,6
 653 36 653 36 653 66 c 0,7,8
 653 91 653 91 671.5 110 c 128,-1,9
 690 129 690 129 717 129 c 0,10,11
 735 129 735 129 754 115 c 0,12,13
 824 62 824 62 922 61 c 0,14,15
 1026 61 1026 61 1096.5 121.5 c 128,-1,16
 1167 182 1167 182 1167 262 c 0,17,18
 1167 340 1167 340 1096.5 400.5 c 128,-1,19
 1026 461 1026 461 922 461 c 0,20,21
 836 461 836 461 762 414 c 0,22,23
 735 398 735 398 713 397 c 0,24,25
 656 397 656 397 655 469 c 2,26,-1
 655 655 l 1,27,-1
 307 655 l 2,28,29
 246 655 246 655 246 717 c 256,30,31
 246 778 246 778 307 778 c 2,32,-1
 655 778 l 1,33,-1
 655 877 l 1,34,35
 585 852 585 852 512 852 c 0,36,37
 362 852 362 852 252.5 944 c 128,-1,38
 143 1036 143 1036 143 1174 c 256,39,40
 143 1311 143 1311 252.5 1404 c 128,-1,41
 362 1497 362 1497 512 1497 c 0,42,43
 649 1497 649 1497 754 1419 c 0,44,45
 779 1399 779 1399 778 1370 c 0,46,47
 778 1345 778 1345 759.5 1326 c 128,-1,48
 741 1307 741 1307 717 1307 c 0,49,50
 697 1307 697 1307 680 1321 c 0,51,52
 608 1374 608 1374 512 1374 c 0,53,54
 406 1374 406 1374 336 1313.5 c 128,-1,55
 266 1253 266 1253 266 1174 c 0,56,57
 266 1096 266 1096 336 1035.5 c 128,-1,58
 406 975 406 975 512 975 c 0,59,60
 606 975 606 975 670 1022 c 0,61,62
 695 1040 695 1040 719 1040 c 0,63,64
 778 1040 778 1040 778 967 c 2,65,-1
 778 778 l 1,66,-1
 1126 778 l 2,67,68
 1187 778 1187 778 1188 717 c 256,69,70
 1188 656 1188 656 1126 655 c 2,71,-1
 778 655 l 1,72,-1
 778 559 l 1,73,74
 846 584 846 584 922 584 c 0,75,76
 1069 584 1069 584 1179.5 491.5 c 128,-1,77
 1290 399 1290 399 1290 262 c 256,0,1
EndSplineSet
Validated: 1
EndChar

StartChar: uE036
Encoding: 206 57398 217
Width: 1779
Flags: W
LayerCount: 2
Fore
SplineSet
971 942 m 256,0,1
 971 891 971 891 934 855 c 128,-1,2
 897 819 897 819 848 819 c 0,3,4
 797 819 797 819 760 855 c 128,-1,5
 723 891 723 891 723 942 c 256,6,7
 723 993 723 993 760 1029 c 128,-1,8
 797 1065 797 1065 848 1065 c 0,9,10
 897 1065 897 1065 934 1029 c 128,-1,11
 971 993 971 993 971 942 c 256,0,1
1720 553 m 2,12,-1
 1384 553 l 1,13,-1
 1384 205 l 2,14,15
 1384 144 1384 144 1323 143 c 256,16,17
 1262 143 1262 143 1262 205 c 2,18,-1
 1262 553 l 1,19,-1
 455 553 l 2,20,21
 326 553 326 553 234.5 644 c 128,-1,22
 143 735 143 735 143 864 c 256,23,24
 143 993 143 993 234.5 1085.5 c 128,-1,25
 326 1178 326 1178 455 1178 c 0,26,27
 516 1178 516 1178 516 1116 c 256,28,29
 516 1055 516 1055 455 1055 c 0,30,31
 377 1055 377 1055 321.5 998.5 c 128,-1,32
 266 942 266 942 266 864 c 256,33,34
 266 786 266 786 321.5 731 c 128,-1,35
 377 676 377 676 455 676 c 2,36,-1
 1262 676 l 1,37,-1
 1262 1024 l 2,38,39
 1262 1085 1262 1085 1323 1085 c 256,40,41
 1384 1085 1384 1085 1384 1024 c 2,42,-1
 1384 676 l 1,43,-1
 1720 676 l 2,44,45
 1781 676 1781 676 1782 614 c 256,46,47
 1781 553 1781 553 1720 553 c 2,12,-1
EndSplineSet
Validated: 1
EndChar

StartChar: uE037
Encoding: 207 57399 218
Width: 1699
Flags: W
LayerCount: 2
Fore
SplineSet
1094 942 m 256,0,1
 1094 891 1094 891 1057 855 c 128,-1,2
 1020 819 1020 819 971 819 c 0,3,4
 920 819 920 819 883 855 c 128,-1,5
 846 891 846 891 846 942 c 256,6,7
 846 993 846 993 883 1029 c 128,-1,8
 920 1065 920 1065 971 1065 c 0,9,10
 1020 1065 1020 1065 1057 1029 c 128,-1,11
 1094 993 1094 993 1094 942 c 256,0,1
1700 344 m 2,12,13
 1700 283 1700 283 1638 283 c 256,14,15
 1577 283 1577 283 1577 344 c 2,16,-1
 1577 553 l 1,17,-1
 455 553 l 2,18,19
 326 553 326 553 234.5 644 c 128,-1,20
 143 735 143 735 143 864 c 256,21,22
 143 993 143 993 234.5 1085.5 c 128,-1,23
 326 1178 326 1178 455 1178 c 0,24,25
 516 1178 516 1178 516 1116 c 256,26,27
 516 1055 516 1055 455 1055 c 0,28,29
 377 1055 377 1055 321.5 998.5 c 128,-1,30
 266 942 266 942 266 864 c 256,31,32
 266 786 266 786 321.5 731 c 128,-1,33
 377 676 377 676 455 676 c 2,34,-1
 1577 676 l 1,35,-1
 1577 881 l 2,36,37
 1577 942 1577 942 1638 942 c 256,38,39
 1699 942 1699 942 1700 881 c 2,40,-1
 1700 344 l 2,12,13
EndSplineSet
Validated: 1
EndChar

StartChar: uE038
Encoding: 208 57400 219
Width: 1208
Flags: W
LayerCount: 2
Fore
SplineSet
1208 156 m 0,0,1
 1208 41 1208 41 1122 -16 c 0,2,3
 1054 -61 1054 -61 952 -61 c 0,4,5
 565 -61 565 -61 565 461 c 0,6,7
 565 494 565 494 567 528 c 1,8,9
 401 553 401 553 205 553 c 0,10,11
 144 553 144 553 143 614 c 256,12,13
 143 675 143 675 205 676 c 0,14,15
 371 676 371 676 575 645 c 1,16,17
 589 776 589 776 623 922 c 1,18,-1
 451 922 l 2,19,20
 390 922 390 922 389 983 c 256,21,22
 389 1044 389 1044 451 1044 c 2,23,-1
 651 1044 l 1,24,25
 667 1105 667 1105 686 1167 c 1,26,-1
 446 1167 l 2,27,28
 385 1167 385 1167 385 1229 c 256,29,30
 385 1290 385 1290 446 1290 c 2,31,-1
 725 1290 l 1,32,33
 754 1380 754 1380 786 1458 c 0,34,35
 802 1497 802 1497 842 1497 c 0,36,37
 905 1497 905 1497 905 1438 c 0,38,39
 905 1426 905 1426 901 1413 c 0,40,41
 876 1354 876 1354 854 1290 c 1,42,-1
 1108 1290 l 2,43,44
 1169 1290 1169 1290 1169 1229 c 256,45,46
 1169 1168 1169 1168 1108 1167 c 2,47,-1
 813 1167 l 1,48,49
 795 1106 795 1106 778 1044 c 1,50,-1
 1118 1044 l 2,51,52
 1179 1044 1179 1044 1180 983 c 256,53,54
 1180 922 1180 922 1118 922 c 2,55,-1
 748 922 l 1,56,57
 713 764 713 764 698 625 c 1,58,59
 848 596 848 596 932 555 c 0,60,61
 1043 502 1043 502 1122 395 c 0,62,63
 1208 279 1208 279 1208 156 c 0,0,1
1085 156 m 0,64,65
 1085 410 1085 410 690 504 c 1,66,67
 688 481 688 481 688 461 c 0,68,69
 688 62 688 62 952 61 c 0,70,71
 1085 62 1085 62 1085 156 c 0,64,65
EndSplineSet
Validated: 1
EndChar

StartChar: uE039
Encoding: 209 57401 220
Width: 1288
Flags: W
LayerCount: 2
Fore
SplineSet
1225 819 m 2,0,-1
 735 819 l 1,1,2
 704 745 704 745 682 676 c 1,3,4
 958 674 958 674 1090 512 c 0,5,6
 1182 399 1182 399 1182 250 c 0,7,8
 1182 113 1182 113 1085 23 c 0,9,10
 997 -61 997 -61 891 -61 c 0,11,12
 701 -61 701 -61 596 72 c 0,13,14
 502 191 502 191 502 383 c 0,15,16
 502 438 502 438 512 506 c 1,17,18
 424 457 424 457 356.5 368 c 128,-1,19
 289 279 289 279 264 188 c 0,20,21
 252 143 252 143 207 143 c 0,22,23
 144 143 144 143 143 203 c 0,24,25
 143 324 143 324 287 475 c 0,26,27
 420 614 420 614 547 655 c 1,28,29
 570 735 570 735 602 819 c 1,30,-1
 461 819 l 2,31,32
 400 819 400 819 399 881 c 256,33,34
 399 942 399 942 461 942 c 2,35,-1
 655 942 l 1,36,37
 684 1008 684 1008 717 1069 c 1,38,-1
 461 1069 l 2,39,40
 400 1069 400 1069 399 1130 c 256,41,42
 399 1191 399 1191 461 1192 c 2,43,-1
 786 1192 l 1,44,45
 909 1393 909 1393 1022 1483 c 0,46,47
 1040 1499 1040 1499 1061 1499 c 0,48,49
 1088 1499 1088 1499 1106 1479.5 c 128,-1,50
 1124 1460 1124 1460 1124 1434 c 256,51,52
 1124 1407 1124 1407 1100 1389 c 0,53,54
 1020 1323 1020 1323 932 1192 c 1,55,-1
 1225 1192 l 2,56,57
 1286 1192 1286 1192 1286 1130 c 256,58,59
 1286 1069 1286 1069 1225 1069 c 2,60,-1
 856 1069 l 1,61,62
 821 1008 821 1008 791 942 c 1,63,-1
 1225 942 l 2,64,65
 1286 942 1286 942 1286 881 c 256,66,67
 1286 819 1286 819 1225 819 c 2,0,-1
1059 250 m 0,68,69
 1059 359 1059 359 993 436 c 0,70,71
 895 553 895 553 676 553 c 0,72,73
 662 553 662 553 647 551 c 1,74,75
 624 455 624 455 625 383 c 0,76,77
 625 231 625 231 693.5 146 c 128,-1,78
 762 61 762 61 891 61 c 0,79,80
 948 61 948 61 999 111 c 0,81,82
 1059 166 1059 166 1059 250 c 0,68,69
EndSplineSet
Validated: 33
EndChar

StartChar: uE03A
Encoding: 210 57402 221
Width: 1701
Flags: W
LayerCount: 2
Fore
SplineSet
1380 1024 m 256,0,1
 1380 973 1380 973 1343.5 937 c 128,-1,2
 1307 901 1307 901 1257 901 c 0,3,4
 1206 901 1206 901 1169.5 937 c 128,-1,5
 1133 973 1133 973 1133 1024 c 256,6,7
 1133 1075 1133 1075 1169.5 1111 c 128,-1,8
 1206 1147 1206 1147 1257 1147 c 0,9,10
 1306 1147 1306 1147 1343 1111 c 128,-1,11
 1380 1075 1380 1075 1380 1024 c 256,0,1
1638 664 m 2,12,-1
 881 664 l 1,13,-1
 881 410 l 2,14,15
 881 349 881 349 819 348 c 256,16,17
 758 348 758 348 758 410 c 2,18,-1
 758 664 l 1,19,-1
 266 664 l 1,20,-1
 266 205 l 2,21,22
 266 144 266 144 205 143 c 256,23,24
 144 143 144 143 143 205 c 2,25,-1
 143 1229 l 2,26,27
 143 1290 143 1290 205 1290 c 256,28,29
 266 1290 266 1290 266 1229 c 2,30,-1
 266 786 l 1,31,-1
 758 786 l 1,32,-1
 758 1024 l 2,33,34
 758 1085 758 1085 819 1085 c 256,35,36
 880 1085 880 1085 881 1024 c 2,37,-1
 881 786 l 1,38,-1
 1638 786 l 2,39,40
 1699 786 1699 786 1700 725 c 256,41,42
 1699 664 1699 664 1638 664 c 2,12,-1
EndSplineSet
Validated: 1
EndChar

StartChar: uE03B
Encoding: 211 57403 222
Width: 806
Flags: W
LayerCount: 2
Fore
SplineSet
807 0 m 2,0,1
 807 -61 807 -61 745 -61 c 256,2,3
 684 -61 684 -61 684 0 c 2,4,-1
 684 139 l 1,5,-1
 471 139 l 2,6,7
 336 139 336 139 239.5 235.5 c 128,-1,8
 143 332 143 332 143 469 c 0,9,10
 143 637 143 637 281 735 c 1,11,12
 144 833 144 833 143 1004 c 0,13,14
 143 1139 143 1139 239.5 1235 c 128,-1,15
 336 1331 336 1331 471 1331 c 2,16,-1
 684 1331 l 1,17,-1
 684 1436 l 2,18,19
 684 1497 684 1497 745 1497 c 256,20,21
 806 1497 806 1497 807 1436 c 2,22,-1
 807 0 l 2,0,1
684 797 m 1,23,-1
 684 1208 l 1,24,-1
 471 1208 l 2,25,26
 387 1208 387 1208 326.5 1147.5 c 128,-1,27
 266 1087 266 1087 266 1004 c 0,28,29
 266 918 266 918 326.5 857.5 c 128,-1,30
 387 797 387 797 471 797 c 2,31,-1
 684 797 l 1,23,-1
684 262 m 1,32,-1
 684 674 l 1,33,-1
 471 674 l 2,34,35
 387 674 387 674 326.5 613.5 c 128,-1,36
 266 553 266 553 266 469 c 0,37,38
 266 383 266 383 326.5 322.5 c 128,-1,39
 387 262 387 262 471 262 c 2,40,-1
 684 262 l 1,32,-1
EndSplineSet
Validated: 1
EndChar

StartChar: uE03C
Encoding: 212 57404 223
Width: 819
Flags: W
LayerCount: 2
Fore
SplineSet
815 0 m 2,0,1
 815 -61 815 -61 754 -61 c 256,2,3
 693 -61 693 -61 692 0 c 2,4,-1
 692 160 l 1,5,-1
 188 408 l 2,6,7
 145 428 145 428 145 467 c 0,8,9
 145 508 145 508 188 528 c 2,10,-1
 606 735 l 1,11,-1
 188 942 l 2,12,13
 145 962 145 962 145 1001 c 0,14,15
 145 1042 145 1042 188 1063 c 2,16,-1
 692 1313 l 1,17,-1
 692 1436 l 2,18,19
 692 1497 692 1497 754 1497 c 256,20,21
 815 1497 815 1497 815 1436 c 2,22,-1
 815 0 l 2,0,1
692 829 m 1,23,-1
 692 1176 l 1,24,-1
 344 1004 l 1,25,-1
 692 829 l 1,23,-1
692 295 m 1,26,-1
 692 641 l 1,27,-1
 344 469 l 1,28,-1
 692 295 l 1,26,-1
EndSplineSet
Validated: 1
EndChar

StartChar: uE03D
Encoding: 213 57405 224
Width: 806
Flags: W
LayerCount: 2
Fore
SplineSet
532 1520 m 256,0,1
 532 1469 532 1469 496.5 1433 c 128,-1,2
 461 1397 461 1397 410 1397 c 256,3,4
 359 1397 359 1397 323 1432.5 c 128,-1,5
 287 1468 287 1468 287 1520 c 256,6,7
 287 1571 287 1571 322.5 1606.5 c 128,-1,8
 358 1642 358 1642 410 1642 c 256,9,10
 461 1642 461 1642 496.5 1606.5 c 128,-1,11
 532 1571 532 1571 532 1520 c 256,0,1
807 0 m 2,12,13
 807 -61 807 -61 745 -61 c 256,14,15
 684 -61 684 -61 684 0 c 2,16,-1
 684 139 l 1,17,-1
 471 139 l 2,18,19
 336 139 336 139 239.5 235.5 c 128,-1,20
 143 332 143 332 143 469 c 0,21,22
 143 637 143 637 281 735 c 1,23,24
 144 833 144 833 143 1004 c 0,25,26
 143 1139 143 1139 239.5 1235 c 128,-1,27
 336 1331 336 1331 471 1331 c 2,28,-1
 684 1331 l 1,29,-1
 684 1436 l 2,30,31
 684 1497 684 1497 745 1497 c 256,32,33
 806 1497 806 1497 807 1436 c 2,34,-1
 807 0 l 2,12,13
684 797 m 1,35,-1
 684 1208 l 1,36,-1
 471 1208 l 2,37,38
 387 1208 387 1208 326.5 1147.5 c 128,-1,39
 266 1087 266 1087 266 1004 c 0,40,41
 266 918 266 918 326.5 857.5 c 128,-1,42
 387 797 387 797 471 797 c 2,43,-1
 684 797 l 1,35,-1
684 262 m 1,44,-1
 684 674 l 1,45,-1
 471 674 l 2,46,47
 387 674 387 674 326.5 613.5 c 128,-1,48
 266 553 266 553 266 469 c 0,49,50
 266 383 266 383 326.5 322.5 c 128,-1,51
 387 262 387 262 471 262 c 2,52,-1
 684 262 l 1,44,-1
EndSplineSet
Validated: 1
EndChar

StartChar: uE03E
Encoding: 214 57406 225
Width: 819
Flags: W
LayerCount: 2
Fore
SplineSet
496 1438 m 256,0,1
 496 1387 496 1387 460 1351 c 128,-1,2
 424 1315 424 1315 373 1315 c 256,3,4
 322 1315 322 1315 286 1350.5 c 128,-1,5
 250 1386 250 1386 250 1438 c 256,6,7
 250 1489 250 1489 286 1525 c 128,-1,8
 322 1561 322 1561 373 1561 c 256,9,10
 424 1561 424 1561 460 1525 c 128,-1,11
 496 1489 496 1489 496 1438 c 256,0,1
815 0 m 2,12,13
 815 -61 815 -61 754 -61 c 256,14,15
 693 -61 693 -61 692 0 c 2,16,-1
 692 160 l 1,17,-1
 188 408 l 2,18,19
 145 428 145 428 145 467 c 0,20,21
 145 508 145 508 188 528 c 2,22,-1
 606 735 l 1,23,-1
 188 942 l 2,24,25
 145 962 145 962 145 1001 c 0,26,27
 145 1042 145 1042 188 1063 c 2,28,-1
 692 1313 l 1,29,-1
 692 1436 l 2,30,31
 692 1497 692 1497 754 1497 c 256,32,33
 815 1497 815 1497 815 1436 c 2,34,-1
 815 0 l 2,12,13
692 829 m 1,35,-1
 692 1176 l 1,36,-1
 344 1004 l 1,37,-1
 692 829 l 1,35,-1
692 295 m 1,38,-1
 692 641 l 1,39,-1
 344 469 l 1,40,-1
 692 295 l 1,38,-1
EndSplineSet
Validated: 1
EndChar

StartChar: uE03F
Encoding: 215 57407 226
Width: 806
Flags: W
LayerCount: 2
Fore
SplineSet
664 1559 m 256,0,1
 664 1508 664 1508 628 1472 c 128,-1,2
 592 1436 592 1436 541 1436 c 256,3,4
 490 1436 490 1436 454 1471.5 c 128,-1,5
 418 1507 418 1507 418 1559 c 256,6,7
 418 1610 418 1610 453.5 1645.5 c 128,-1,8
 489 1681 489 1681 541 1681 c 256,9,10
 592 1681 592 1681 628 1645.5 c 128,-1,11
 664 1610 664 1610 664 1559 c 256,0,1
352 1503 m 256,12,13
 352 1452 352 1452 316.5 1416 c 128,-1,14
 281 1380 281 1380 229 1380 c 256,15,16
 178 1380 178 1380 142 1416 c 128,-1,17
 106 1452 106 1452 106 1503 c 256,18,19
 106 1554 106 1554 142 1590 c 128,-1,20
 178 1626 178 1626 229 1626 c 256,21,22
 280 1626 280 1626 316 1590 c 128,-1,23
 352 1554 352 1554 352 1503 c 256,12,13
807 0 m 2,24,25
 807 -61 807 -61 745 -61 c 256,26,27
 684 -61 684 -61 684 0 c 2,28,-1
 684 139 l 1,29,-1
 471 139 l 2,30,31
 336 139 336 139 239.5 235.5 c 128,-1,32
 143 332 143 332 143 469 c 0,33,34
 143 637 143 637 281 735 c 1,35,36
 144 833 144 833 143 1004 c 0,37,38
 143 1139 143 1139 239.5 1235 c 128,-1,39
 336 1331 336 1331 471 1331 c 2,40,-1
 684 1331 l 1,41,-1
 684 1436 l 2,42,43
 684 1497 684 1497 745 1497 c 256,44,45
 806 1497 806 1497 807 1436 c 2,46,-1
 807 0 l 2,24,25
684 797 m 1,47,-1
 684 1208 l 1,48,-1
 471 1208 l 2,49,50
 387 1208 387 1208 326.5 1147.5 c 128,-1,51
 266 1087 266 1087 266 1004 c 0,52,53
 266 918 266 918 326.5 857.5 c 128,-1,54
 387 797 387 797 471 797 c 2,55,-1
 684 797 l 1,47,-1
684 262 m 1,56,-1
 684 674 l 1,57,-1
 471 674 l 2,58,59
 387 674 387 674 326.5 613.5 c 128,-1,60
 266 553 266 553 266 469 c 0,61,62
 266 383 266 383 326.5 322.5 c 128,-1,63
 387 262 387 262 471 262 c 2,64,-1
 684 262 l 1,56,-1
EndSplineSet
Validated: 1
EndChar

StartChar: uE040
Encoding: 216 57408 227
Width: 819
Flags: W
LayerCount: 2
Fore
SplineSet
616 1448 m 256,0,1
 616 1397 616 1397 580.5 1361 c 128,-1,2
 545 1325 545 1325 494 1325 c 256,3,4
 443 1325 443 1325 407 1361 c 128,-1,5
 371 1397 371 1397 371 1448 c 256,6,7
 371 1499 371 1499 406.5 1535 c 128,-1,8
 442 1571 442 1571 494 1571 c 256,9,10
 545 1571 545 1571 580.5 1535 c 128,-1,11
 616 1499 616 1499 616 1448 c 256,0,1
344 1323 m 0,12,13
 344 1274 344 1274 308 1237 c 128,-1,14
 272 1200 272 1200 221 1200 c 256,15,16
 170 1200 170 1200 134 1237 c 128,-1,17
 98 1274 98 1274 98 1325 c 0,18,19
 98 1374 98 1374 134 1411 c 128,-1,20
 170 1448 170 1448 221 1448 c 256,21,22
 272 1448 272 1448 308 1411 c 128,-1,23
 344 1374 344 1374 344 1323 c 0,12,13
815 0 m 2,24,25
 815 -61 815 -61 754 -61 c 256,26,27
 693 -61 693 -61 692 0 c 2,28,-1
 692 160 l 1,29,-1
 188 408 l 2,30,31
 145 428 145 428 145 467 c 0,32,33
 145 508 145 508 188 528 c 2,34,-1
 606 735 l 1,35,-1
 188 942 l 2,36,37
 145 962 145 962 145 1001 c 0,38,39
 145 1042 145 1042 188 1063 c 2,40,-1
 692 1313 l 1,41,-1
 692 1436 l 2,42,43
 692 1497 692 1497 754 1497 c 256,44,45
 815 1497 815 1497 815 1436 c 2,46,-1
 815 0 l 2,24,25
692 829 m 1,47,-1
 692 1176 l 1,48,-1
 344 1004 l 1,49,-1
 692 829 l 1,47,-1
692 295 m 1,50,-1
 692 641 l 1,51,-1
 344 469 l 1,52,-1
 692 295 l 1,50,-1
EndSplineSet
Validated: 1
EndChar

StartChar: uE041
Encoding: 217 57409 228
Width: 1030
Flags: W
LayerCount: 2
Fore
SplineSet
1030 485 m 0,0,1
 1030 243 1030 243 850 86 c 0,2,3
 680 -61 680 -61 442 -61 c 0,4,5
 325 -61 325 -61 240 6 c 0,6,7
 144 80 144 80 143 203 c 0,8,9
 143 291 143 291 189.5 362.5 c 128,-1,10
 236 434 236 434 313 471 c 0,11,12
 327 477 327 477 342 477 c 0,13,14
 367 477 367 477 384 457.5 c 128,-1,15
 401 438 401 438 401 414 c 0,16,17
 401 377 401 377 367 360 c 0,18,19
 267 313 267 313 266 203 c 0,20,21
 266 142 266 142 315.5 101.5 c 128,-1,22
 365 61 365 61 442 61 c 0,23,24
 635 61 635 61 771 181 c 128,-1,25
 907 301 907 301 907 485 c 0,26,27
 907 546 907 546 859 598.5 c 128,-1,28
 811 651 811 651 756 651 c 0,29,30
 690 651 690 651 645 588 c 0,31,32
 616 551 616 551 584 551 c 0,33,34
 527 551 527 551 526 625 c 2,35,-1
 526 1436 l 2,36,37
 526 1497 526 1497 588 1497 c 256,38,39
 649 1497 649 1497 649 1436 c 2,40,-1
 649 750 l 1,41,42
 700 775 700 775 756 774 c 0,43,44
 867 774 867 774 948.5 682.5 c 128,-1,45
 1030 591 1030 591 1030 485 c 0,0,1
EndSplineSet
Validated: 33
EndChar

StartChar: uE042
Encoding: 218 57410 229
Width: 688
Flags: W
LayerCount: 2
Fore
SplineSet
688 205 m 2,0,1
 688 86 688 86 606 12.5 c 128,-1,2
 524 -61 524 -61 410 -61 c 0,3,4
 299 -61 299 -61 221 16.5 c 128,-1,5
 143 94 143 94 143 205 c 0,6,7
 143 266 143 266 205 266 c 256,8,9
 266 266 266 266 266 205.5 c 128,-1,10
 266 145 266 145 308 103 c 128,-1,11
 350 61 350 61 410 61 c 0,12,13
 478 61 478 61 521.5 101 c 128,-1,14
 565 141 565 141 565 205 c 2,15,-1
 565 754 l 2,16,17
 565 813 565 813 523 855 c 128,-1,18
 481 897 481 897 422 897 c 0,19,20
 354 897 354 897 310 857 c 128,-1,21
 266 817 266 817 266 754.5 c 128,-1,22
 266 692 266 692 205 692 c 256,23,24
 144 692 144 692 143 754 c 2,25,-1
 143 1436 l 2,26,27
 143 1497 143 1497 205 1497 c 256,28,29
 266 1497 266 1497 266 1436 c 2,30,-1
 266 977 l 1,31,32
 336 1020 336 1020 422 1020 c 0,33,34
 533 1020 533 1020 610.5 942 c 128,-1,35
 688 864 688 864 688 754 c 2,36,-1
 688 205 l 2,0,1
EndSplineSet
Validated: 1
EndChar

StartChar: uE043
Encoding: 219 57411 230
Width: 1697
Flags: W
LayerCount: 2
Fore
SplineSet
1694 27 m 2,0,1
 1700 13 1700 13 1700 -2 c 0,2,3
 1700 -27 1700 -27 1680.5 -44 c 128,-1,4
 1661 -61 1661 -61 1636 -61 c 0,5,6
 1601 -61 1601 -61 1583 -27 c 2,7,-1
 922 1298 l 1,8,-1
 260 -27 l 2,9,10
 242 -62 242 -62 207 -61 c 0,11,12
 182 -61 182 -61 162.5 -44 c 128,-1,13
 143 -27 143 -27 143 -2 c 0,14,15
 143 12 143 12 150 27 c 2,16,-1
 862 1452 l 2,17,18
 882 1495 882 1495 922 1495 c 256,19,20
 961 1495 961 1495 981 1452 c 2,21,-1
 1694 27 l 2,0,1
1047 512 m 256,22,23
 1047 461 1047 461 1010 425 c 128,-1,24
 973 389 973 389 924 389 c 0,25,26
 873 389 873 389 836 425 c 128,-1,27
 799 461 799 461 799 512 c 256,28,29
 799 563 799 563 835.5 599 c 128,-1,30
 872 635 872 635 924 635 c 0,31,32
 973 635 973 635 1010 599 c 128,-1,33
 1047 563 1047 563 1047 512 c 256,22,23
EndSplineSet
Validated: 1
EndChar

StartChar: uE044
Encoding: 220 57412 231
Width: 1290
Flags: W
LayerCount: 2
Fore
SplineSet
1290 117 m 2,0,1
 1290 56 1290 56 1229 55 c 256,2,3
 1168 55 1168 55 1167 117 c 2,4,-1
 1167 655 l 1,5,-1
 266 655 l 1,6,-1
 266 117 l 2,7,8
 266 56 266 56 205 55 c 256,9,10
 144 55 144 55 143 117 c 2,11,-1
 143 1329 l 2,12,13
 143 1390 143 1390 205 1391 c 256,14,15
 266 1391 266 1391 266 1329 c 2,16,-1
 266 778 l 1,17,-1
 1167 778 l 1,18,-1
 1167 1329 l 2,19,20
 1167 1390 1167 1390 1229 1391 c 256,21,22
 1290 1391 1290 1391 1290 1329 c 2,23,-1
 1290 117 l 2,0,1
643 412 m 256,24,25
 643 361 643 361 606 325 c 128,-1,26
 569 289 569 289 520 289 c 0,27,28
 469 289 469 289 432 324.5 c 128,-1,29
 395 360 395 360 395 412 c 256,30,31
 395 463 395 463 432 499 c 128,-1,32
 469 535 469 535 520 535 c 0,33,34
 569 535 569 535 606 499 c 128,-1,35
 643 463 643 463 643 412 c 256,24,25
EndSplineSet
Validated: 1
EndChar

StartChar: uE045
Encoding: 221 57413 232
Width: 1085
Flags: W
LayerCount: 2
Fore
SplineSet
1085 819 m 2,0,1
 1085 758 1085 758 1024 758 c 256,2,3
 963 758 963 758 963 819 c 2,4,-1
 963 1073 l 1,5,-1
 266 1073 l 1,6,-1
 266 819 l 2,7,8
 266 758 266 758 205 758 c 256,9,10
 144 758 144 758 143 819 c 2,11,-1
 143 1436 l 2,12,13
 143 1497 143 1497 205 1497 c 256,14,15
 266 1497 266 1497 266 1436 c 2,16,-1
 266 1196 l 1,17,-1
 963 1196 l 1,18,-1
 963 1436 l 2,19,20
 963 1497 963 1497 1024 1497 c 256,21,22
 1085 1497 1085 1497 1085 1436 c 2,23,-1
 1085 819 l 2,0,1
676 0 m 2,24,25
 676 -61 676 -61 614 -61 c 256,26,27
 553 -61 553 -61 553 0 c 2,28,-1
 553 881 l 2,29,30
 553 942 553 942 614 942 c 256,31,32
 675 942 675 942 676 881 c 2,33,-1
 676 0 l 2,24,25
EndSplineSet
Validated: 1
EndChar

StartChar: uE046
Encoding: 222 57414 233
Width: 1497
Flags: W
LayerCount: 2
Fore
SplineSet
1434 963 m 2,0,-1
 881 963 l 1,1,-1
 881 0 l 2,2,3
 881 -61 881 -61 819 -61 c 256,4,5
 758 -61 758 -61 758 0 c 2,6,-1
 758 348 l 1,7,-1
 205 348 l 2,8,9
 144 348 144 348 143 410 c 256,10,11
 143 471 143 471 205 471 c 2,12,-1
 758 471 l 1,13,-1
 758 1436 l 2,14,15
 758 1497 758 1497 819 1497 c 256,16,17
 880 1497 880 1497 881 1436 c 2,18,-1
 881 1085 l 1,19,-1
 1434 1085 l 2,20,21
 1495 1085 1495 1085 1495 1024 c 256,22,23
 1495 963 1495 963 1434 963 c 2,0,-1
520 1026 m 256,24,25
 520 975 520 975 483 939 c 128,-1,26
 446 903 446 903 397 903 c 0,27,28
 346 903 346 903 309 939 c 128,-1,29
 272 975 272 975 272 1026 c 256,30,31
 272 1077 272 1077 309 1113 c 128,-1,32
 346 1149 346 1149 397 1149 c 0,33,34
 446 1149 446 1149 483 1113 c 128,-1,35
 520 1077 520 1077 520 1026 c 256,24,25
EndSplineSet
Validated: 1
EndChar

StartChar: uE047
Encoding: 223 57415 234
Width: 1497
Flags: W
LayerCount: 2
Fore
SplineSet
1352 1118 m 256,0,1
 1352 1067 1352 1067 1315 1031 c 128,-1,2
 1278 995 1278 995 1229 995 c 0,3,4
 1178 995 1178 995 1141 1031 c 128,-1,5
 1104 1067 1104 1067 1104 1118 c 256,6,7
 1104 1169 1104 1169 1141 1205 c 128,-1,8
 1178 1241 1178 1241 1229 1241 c 0,9,10
 1278 1241 1278 1241 1315 1205 c 128,-1,11
 1352 1169 1352 1169 1352 1118 c 256,0,1
1434 655 m 2,12,-1
 881 655 l 1,13,-1
 881 0 l 2,14,15
 881 -61 881 -61 819 -61 c 256,16,17
 758 -61 758 -61 758 0 c 2,18,-1
 758 266 l 1,19,-1
 205 266 l 2,20,21
 144 266 144 266 143 328 c 256,22,23
 143 389 143 389 205 389 c 2,24,-1
 758 389 l 1,25,-1
 758 1044 l 1,26,-1
 205 1044 l 2,27,28
 144 1044 144 1044 143 1106 c 256,29,30
 143 1167 143 1167 205 1167 c 2,31,-1
 758 1167 l 1,32,-1
 758 1436 l 2,33,34
 758 1497 758 1497 819 1497 c 256,35,36
 880 1497 880 1497 881 1436 c 2,37,-1
 881 778 l 1,38,-1
 1434 778 l 2,39,40
 1495 778 1495 778 1495 717 c 256,41,42
 1495 655 1495 655 1434 655 c 2,12,-1
EndSplineSet
Validated: 1
EndChar

StartChar: uE048
Encoding: 224 57416 235
Width: 1495
Flags: W
LayerCount: 2
Fore
SplineSet
1468 1384 m 2,0,-1
 881 991 l 1,1,-1
 881 0 l 2,2,3
 881 -61 881 -61 819 -61 c 256,4,5
 758 -61 758 -61 758 0 c 2,6,-1
 758 295 l 1,7,-1
 240 -51 l 2,8,9
 222 -63 222 -63 205 -63 c 0,10,11
 178 -63 178 -63 160.5 -43 c 128,-1,12
 143 -23 143 -23 143 2 c 0,13,14
 143 33 143 33 170 51 c 2,15,-1
 758 442 l 1,16,-1
 758 1436 l 2,17,18
 758 1497 758 1497 819 1497 c 256,19,20
 880 1497 880 1497 881 1436 c 2,21,-1
 881 1139 l 1,22,-1
 1399 1487 l 2,23,24
 1417 1499 1417 1499 1434 1499 c 0,25,26
 1461 1499 1461 1499 1478 1478.5 c 128,-1,27
 1495 1458 1495 1458 1495 1434 c 0,28,29
 1495 1402 1495 1402 1468 1384 c 2,0,-1
537 1061 m 256,30,31
 537 1010 537 1010 500 974 c 128,-1,32
 463 938 463 938 414 938 c 0,33,34
 363 938 363 938 326 974 c 128,-1,35
 289 1010 289 1010 289 1061 c 256,36,37
 289 1112 289 1112 325.5 1148 c 128,-1,38
 362 1184 362 1184 414 1184 c 0,39,40
 463 1184 463 1184 500 1148 c 128,-1,41
 537 1112 537 1112 537 1061 c 256,30,31
EndSplineSet
Validated: 1
EndChar

StartChar: uE049
Encoding: 225 57417 236
Width: 2412
Flags: W
LayerCount: 2
Fore
SplineSet
2413 711 m 256,0,1
 2413 600 2413 600 2334 521 c 128,-1,2
 2255 442 2255 442 2144 442 c 0,3,4
 2050 442 2050 442 1977.5 500.5 c 128,-1,5
 1905 559 1905 559 1884 649 c 1,6,-1
 1575 649 l 1,7,-1
 1575 410 l 2,8,9
 1575 349 1575 349 1513 348 c 256,10,11
 1452 348 1452 348 1452 410 c 2,12,-1
 1452 649 l 1,13,-1
 1370 649 l 1,14,-1
 1370 410 l 2,15,16
 1370 349 1370 349 1309 348 c 256,17,18
 1248 348 1248 348 1247 410 c 2,19,-1
 1247 649 l 1,20,-1
 1165 649 l 1,21,-1
 1165 410 l 2,22,23
 1165 349 1165 349 1104 348 c 256,24,25
 1043 348 1043 348 1042 410 c 2,26,-1
 1042 649 l 1,27,-1
 733 649 l 1,28,29
 710 559 710 559 637.5 500.5 c 128,-1,30
 565 442 565 442 473 442 c 0,31,32
 360 442 360 442 282.5 521 c 128,-1,33
 205 600 205 600 205 711 c 256,34,35
 205 822 205 822 282.5 899.5 c 128,-1,36
 360 977 360 977 473 977 c 0,37,38
 565 977 565 977 638 918.5 c 128,-1,39
 711 860 711 860 733 772 c 1,40,-1
 1042 772 l 1,41,-1
 1042 1024 l 2,42,43
 1042 1085 1042 1085 1104 1085 c 256,44,45
 1165 1085 1165 1085 1165 1024 c 2,46,-1
 1165 772 l 1,47,-1
 1247 772 l 1,48,-1
 1247 1024 l 2,49,50
 1247 1085 1247 1085 1309 1085 c 256,51,52
 1370 1085 1370 1085 1370 1024 c 2,53,-1
 1370 772 l 1,54,-1
 1452 772 l 1,55,-1
 1452 1024 l 2,56,57
 1452 1085 1452 1085 1513 1085 c 256,58,59
 1574 1085 1574 1085 1575 1024 c 2,60,-1
 1575 772 l 1,61,-1
 1884 772 l 1,62,63
 1904 860 1904 860 1977 918.5 c 128,-1,64
 2050 977 2050 977 2144 977 c 0,65,66
 2255 977 2255 977 2334 899.5 c 128,-1,67
 2413 822 2413 822 2413 711 c 256,0,1
2290 711 m 256,68,69
 2290 770 2290 770 2247 812 c 128,-1,70
 2204 854 2204 854 2144 854 c 256,71,72
 2085 854 2085 854 2043 812 c 128,-1,73
 2001 770 2001 770 2001 711 c 256,74,75
 2001 652 2001 652 2043 608.5 c 128,-1,76
 2085 565 2085 565 2144 565 c 256,77,78
 2203 565 2203 565 2246.5 608.5 c 128,-1,79
 2290 652 2290 652 2290 711 c 256,68,69
616 711 m 256,80,81
 616 770 616 770 574 812 c 128,-1,82
 532 854 532 854 473 854 c 0,83,84
 412 854 412 854 370 812 c 128,-1,85
 328 770 328 770 328 711 c 256,86,87
 328 652 328 652 370 608.5 c 128,-1,88
 412 565 412 565 473 565 c 0,89,90
 532 565 532 565 574 608.5 c 128,-1,91
 616 652 616 652 616 711 c 256,80,81
EndSplineSet
Validated: 1
EndChar

StartChar: uE04A
Encoding: 226 57418 237
Width: 2201
Flags: W
LayerCount: 2
Fore
SplineSet
2179 242 m 2,0,1
 2193 224 2193 224 2193 205 c 0,2,3
 2193 180 2193 180 2173.5 161.5 c 128,-1,4
 2154 143 2154 143 2130 143 c 0,5,6
 2101 143 2101 143 2081 168 c 2,7,-1
 1743 614 l 1,8,-1
 1403 168 l 2,9,10
 1385 143 1385 143 1356 143 c 0,11,12
 1331 143 1331 143 1311.5 161.5 c 128,-1,13
 1292 180 1292 180 1292 205 c 0,14,15
 1292 223 1292 223 1305 242 c 2,16,-1
 1665 717 l 1,17,-1
 1354 1126 l 1,18,-1
 633 176 l 2,19,20
 610 145 610 145 578 145 c 0,21,22
 535 145 535 145 516 195 c 2,23,-1
 147 1208 l 2,24,25
 143 1220 143 1220 143 1231 c 0,26,27
 143 1290 143 1290 207 1290 c 0,28,29
 248 1290 248 1290 262 1249 c 2,30,-1
 596 332 l 1,31,-1
 1300 1260 l 2,32,33
 1323 1291 1323 1291 1354 1290 c 256,34,35
 1385 1290 1385 1290 1407 1260 c 2,36,-1
 1743 819 l 1,37,-1
 2081 1266 l 2,38,39
 2101 1291 2101 1291 2130 1290 c 0,40,41
 2155 1290 2155 1290 2174 1271.5 c 128,-1,42
 2193 1253 2193 1253 2193 1229 c 0,43,44
 2193 1211 2193 1211 2179 1192 c 2,45,-1
 1819 717 l 1,46,-1
 2179 242 l 2,0,1
EndSplineSet
Validated: 1
EndChar

StartChar: uE04B
Encoding: 227 57419 238
Width: 2154
Flags: W
LayerCount: 2
Fore
SplineSet
2142 238 m 2,0,1
 2154 222 2154 222 2154 203 c 0,2,3
 2154 178 2154 178 2135 160.5 c 128,-1,4
 2116 143 2116 143 2089 143 c 0,5,6
 2058 143 2058 143 2040 172 c 2,7,-1
 1901 387 l 1,8,9
 1776 283 1776 283 1618 283 c 0,10,11
 1509 283 1509 283 1432 344 c 0,12,13
 1346 412 1346 412 1346 528 c 0,14,15
 1346 688 1346 688 1552 932 c 1,16,-1
 1436 1114 l 1,17,-1
 838 180 l 2,18,19
 815 145 815 145 780 145 c 0,20,21
 741 145 741 145 721 184 c 2,22,-1
 152 1198 l 2,23,24
 144 1214 144 1214 143 1231 c 0,25,26
 143 1256 143 1256 162.5 1273 c 128,-1,27
 182 1290 182 1290 207 1290 c 0,28,29
 240 1290 240 1290 258 1260 c 2,30,-1
 782 324 l 1,31,-1
 1378 1253 l 2,32,33
 1401 1288 1401 1288 1436 1288 c 256,34,35
 1471 1288 1471 1288 1493 1253 c 2,36,-1
 1638 1026 l 1,37,38
 1765 1155 1765 1155 1909 1270 c 0,39,40
 1927 1286 1927 1286 1948 1286 c 0,41,42
 1973 1286 1973 1286 1991 1266.5 c 128,-1,43
 2009 1247 2009 1247 2009 1221 c 256,44,45
 2009 1194 2009 1194 1985 1176 c 0,46,47
 1844 1061 1844 1061 1708 918 c 1,48,-1
 2142 238 l 2,0,1
1835 492 m 1,49,-1
 1622 823 l 1,50,51
 1468 635 1468 635 1468 528 c 0,52,53
 1468 473 1468 473 1509 439.5 c 128,-1,54
 1550 406 1550 406 1618 406 c 0,55,56
 1743 406 1743 406 1835 492 c 1,49,-1
EndSplineSet
Validated: 1
EndChar

StartChar: uE04C
Encoding: 228 57420 239
Width: 1552
Flags: W
LayerCount: 2
Fore
SplineSet
1552 1081 m 0,0,1
 1552 878 1552 878 1418 729 c 128,-1,2
 1284 580 1284 580 1085 557 c 1,3,-1
 1085 0 l 2,4,5
 1085 -61 1085 -61 1024 -61 c 256,6,7
 963 -61 963 -61 963 0 c 2,8,-1
 963 557 l 1,9,10
 805 575 805 575 684 676.5 c 128,-1,11
 563 778 563 778 518 928 c 1,12,-1
 254 578 l 2,13,14
 236 553 236 553 207 553 c 0,15,16
 182 553 182 553 161.5 571.5 c 128,-1,17
 141 590 141 590 141 614 c 0,18,19
 141 632 141 632 156 651 c 2,20,-1
 502 1110 l 2,21,22
 527 1143 527 1143 559 1143 c 0,23,24
 618 1143 618 1143 618 1071 c 0,25,26
 620 924 620 924 718.5 813 c 128,-1,27
 817 702 817 702 963 680 c 1,28,-1
 963 1436 l 2,29,30
 963 1497 963 1497 1024 1497 c 256,31,32
 1085 1497 1085 1497 1085 1436 c 2,33,-1
 1085 680 l 1,34,35
 1232 703 1232 703 1331 816.5 c 128,-1,36
 1430 930 1430 930 1430 1081 c 0,37,38
 1430 1142 1430 1142 1491 1143 c 256,39,40
 1552 1142 1552 1142 1552 1081 c 0,0,1
EndSplineSet
Validated: 1
EndChar

StartChar: uE04D
Encoding: 229 57421 240
Width: 1290
Flags: W
LayerCount: 2
Fore
SplineSet
1290 717 m 256,0,1
 1290 479 1290 479 1122 311 c 128,-1,2
 954 143 954 143 717 143 c 256,3,4
 479 143 479 143 311 311 c 128,-1,5
 143 479 143 479 143 717 c 256,6,7
 143 955 143 955 311 1122.5 c 128,-1,8
 479 1290 479 1290 717 1290 c 256,9,10
 955 1290 955 1290 1122.5 1122.5 c 128,-1,11
 1290 955 1290 955 1290 717 c 256,0,1
1167 717 m 256,12,13
 1167 887 1167 887 1055.5 1014 c 128,-1,14
 944 1141 944 1141 778 1163 c 1,15,-1
 778 270 l 1,16,17
 944 293 944 293 1055.5 420 c 128,-1,18
 1167 547 1167 547 1167 717 c 256,12,13
655 270 m 1,19,-1
 655 1163 l 1,20,21
 489 1140 489 1140 377.5 1013.5 c 128,-1,22
 266 887 266 887 266 717 c 256,23,24
 266 547 266 547 377.5 420 c 128,-1,25
 489 293 489 293 655 270 c 1,19,-1
EndSplineSet
Validated: 1
EndChar

StartChar: uE04E
Encoding: 230 57422 241
Width: 1699
Flags: W
LayerCount: 2
Fore
SplineSet
1700 553 m 2,0,1
 1700 492 1700 492 1640 492 c 2,2,-1
 205 492 l 2,3,4
 144 492 144 492 143 553 c 2,5,-1
 143 1085 l 2,6,7
 143 1146 143 1146 205 1147 c 2,8,-1
 1638 1147 l 2,9,10
 1699 1147 1699 1147 1700 1085 c 2,11,-1
 1700 553 l 2,0,1
1577 614 m 1,12,-1
 1577 1024 l 1,13,-1
 266 1024 l 1,14,-1
 266 614 l 1,15,-1
 1577 614 l 1,12,-1
1434 758 m 2,16,-1
 410 758 l 2,17,18
 349 758 349 758 348 819 c 256,19,20
 348 880 348 880 410 881 c 2,21,-1
 1434 881 l 2,22,23
 1495 881 1495 881 1495 819 c 256,24,25
 1495 758 1495 758 1434 758 c 2,16,-1
EndSplineSet
Validated: 1
EndChar

StartChar: uE04F
Encoding: 231 57423 242
Width: 2344
Flags: W
LayerCount: 2
Fore
SplineSet
2345 711 m 256,0,1
 2345 600 2345 600 2266 521 c 128,-1,2
 2187 442 2187 442 2077 442 c 0,3,4
 1983 442 1983 442 1910 500.5 c 128,-1,5
 1837 559 1837 559 1817 649 c 1,6,-1
 1303 649 l 1,7,-1
 1303 410 l 2,8,9
 1303 349 1303 349 1241 348 c 256,10,11
 1180 348 1180 348 1180 410 c 2,12,-1
 1180 649 l 1,13,-1
 666 649 l 1,14,15
 643 559 643 559 570.5 500.5 c 128,-1,16
 498 442 498 442 403 442 c 0,17,18
 292 442 292 442 214.5 521 c 128,-1,19
 137 600 137 600 137 711 c 256,20,21
 137 822 137 822 215 899.5 c 128,-1,22
 293 977 293 977 403 977 c 0,23,24
 497 977 497 977 570 918.5 c 128,-1,25
 643 860 643 860 666 772 c 1,26,-1
 1180 772 l 1,27,-1
 1180 1024 l 2,28,29
 1180 1085 1180 1085 1241 1085 c 256,30,31
 1302 1085 1302 1085 1303 1024 c 2,32,-1
 1303 772 l 1,33,-1
 1817 772 l 1,34,35
 1837 860 1837 860 1909.5 918.5 c 128,-1,36
 1982 977 1982 977 2077 977 c 0,37,38
 2188 977 2188 977 2266.5 899.5 c 128,-1,39
 2345 822 2345 822 2345 711 c 256,0,1
2222 711 m 256,40,41
 2222 770 2222 770 2179 812 c 128,-1,42
 2136 854 2136 854 2077 854 c 256,43,44
 2018 854 2018 854 1975.5 812 c 128,-1,45
 1933 770 1933 770 1933 711 c 256,46,47
 1933 652 1933 652 1975 608.5 c 128,-1,48
 2017 565 2017 565 2077 565 c 256,49,50
 2136 565 2136 565 2179 608.5 c 128,-1,51
 2222 652 2222 652 2222 711 c 256,40,41
549 711 m 256,52,53
 549 770 549 770 507 812 c 128,-1,54
 465 854 465 854 403 854 c 0,55,56
 344 854 344 854 302 812 c 128,-1,57
 260 770 260 770 260 711 c 256,58,59
 260 652 260 652 302 608.5 c 128,-1,60
 344 565 344 565 403 565 c 0,61,62
 464 565 464 565 506.5 608.5 c 128,-1,63
 549 652 549 652 549 711 c 256,52,53
EndSplineSet
Validated: 1
EndChar

StartChar: uE050
Encoding: 232 57424 243
Width: 878
Flags: W
LayerCount: 2
Fore
SplineSet
872 29 m 2,0,1
 880 15 880 15 881 -2 c 0,2,3
 881 -27 881 -27 861.5 -44 c 128,-1,4
 842 -61 842 -61 817 -61 c 0,5,6
 782 -61 782 -61 766 -29 c 2,7,-1
 512 442 l 1,8,-1
 258 -29 l 2,9,10
 242 -62 242 -62 207 -61 c 0,11,12
 182 -61 182 -61 162.5 -44 c 128,-1,13
 143 -27 143 -27 143 -2 c 0,14,15
 143 14 143 14 152 29 c 2,16,-1
 442 573 l 1,17,-1
 156 1108 l 2,18,19
 146 1126 146 1126 145 1145 c 0,20,21
 145 1208 145 1208 215 1208 c 2,22,-1
 451 1208 l 1,23,-1
 451 1436 l 2,24,25
 451 1497 451 1497 512 1497 c 256,26,27
 573 1497 573 1497 573 1436 c 2,28,-1
 573 1208 l 1,29,-1
 809 1208 l 2,30,31
 879 1208 879 1208 879 1145 c 0,32,33
 879 1127 879 1127 868 1108 c 2,34,-1
 582 573 l 1,35,-1
 872 29 l 2,0,1
717 1085 m 1,36,-1
 307 1085 l 1,37,-1
 512 705 l 1,38,-1
 717 1085 l 1,36,-1
EndSplineSet
Validated: 1
EndChar

StartChar: uE051
Encoding: 233 57425 244
Width: 878
Flags: W
LayerCount: 2
Fore
SplineSet
872 29 m 2,0,1
 880 15 880 15 881 -2 c 0,2,3
 881 -27 881 -27 861.5 -44 c 128,-1,4
 842 -61 842 -61 817 -61 c 0,5,6
 782 -61 782 -61 766 -29 c 2,7,-1
 512 442 l 1,8,-1
 258 -29 l 2,9,10
 242 -62 242 -62 207 -61 c 0,11,12
 182 -61 182 -61 162.5 -44 c 128,-1,13
 143 -27 143 -27 143 -2 c 0,14,15
 143 14 143 14 152 29 c 2,16,-1
 442 573 l 1,17,-1
 156 1108 l 2,18,19
 146 1126 146 1126 145 1145 c 0,20,21
 145 1208 145 1208 215 1208 c 2,22,-1
 809 1208 l 2,23,24
 879 1208 879 1208 879 1145 c 0,25,26
 879 1127 879 1127 868 1108 c 2,27,-1
 582 573 l 1,28,-1
 872 29 l 2,0,1
717 1085 m 1,29,-1
 307 1085 l 1,30,-1
 512 705 l 1,31,-1
 717 1085 l 1,29,-1
EndSplineSet
Validated: 1
EndChar

StartChar: uE052
Encoding: 234 57426 245
Width: 886
Flags: W
LayerCount: 2
Fore
SplineSet
872 31 m 2,0,1
 880 15 880 15 881 -2 c 0,2,3
 881 -27 881 -27 861.5 -44 c 128,-1,4
 842 -61 842 -61 817 -61 c 0,5,6
 784 -61 784 -61 766 -31 c 2,7,-1
 512 393 l 1,8,-1
 258 -31 l 2,9,10
 240 -62 240 -62 207 -61 c 0,11,12
 182 -61 182 -61 162.5 -44 c 128,-1,13
 143 -27 143 -27 143 -2 c 0,14,15
 143 14 143 14 152 31 c 2,16,-1
 440 512 l 1,17,-1
 158 983 l 2,18,19
 146 1003 146 1003 145 1024 c 0,20,21
 145 1085 145 1085 217 1085 c 2,22,-1
 451 1085 l 1,23,-1
 451 1311 l 2,24,25
 451 1389 451 1389 506 1444 c 128,-1,26
 561 1499 561 1499 639 1499 c 256,27,28
 717 1499 717 1499 772 1444 c 128,-1,29
 827 1389 827 1389 827 1311 c 0,30,31
 827 1250 827 1250 766 1249 c 256,32,33
 705 1249 705 1249 705 1312.5 c 128,-1,34
 705 1376 705 1376 639 1376 c 256,35,36
 573 1376 573 1376 573 1311 c 2,37,-1
 573 1085 l 1,38,-1
 807 1085 l 2,39,40
 879 1085 879 1085 879 1022 c 0,41,42
 879 1002 879 1002 866 983 c 2,43,-1
 584 512 l 1,44,-1
 872 31 l 2,0,1
711 963 m 1,45,-1
 313 963 l 1,46,-1
 512 631 l 1,47,-1
 711 963 l 1,45,-1
EndSplineSet
Validated: 1
EndChar

StartChar: uE053
Encoding: 235 57427 246
Width: 1638
Flags: W
LayerCount: 2
Fore
SplineSet
1638 1292 m 256,0,1
 1638 1208 1638 1208 1578 1147.5 c 128,-1,2
 1518 1087 1518 1087 1434 1087 c 0,3,4
 1366 1087 1366 1087 1311.5 1127 c 128,-1,5
 1257 1167 1257 1167 1239 1231 c 1,6,-1
 266 1231 l 1,7,-1
 266 1053 l 1,8,-1
 786 1053 l 2,9,10
 858 1053 858 1053 858 991 c 0,11,12
 858 971 858 971 846 950 c 2,13,-1
 258 -31 l 2,14,15
 240 -62 240 -62 207 -61 c 0,16,17
 182 -61 182 -61 162.5 -44 c 128,-1,18
 143 -27 143 -27 143 -2 c 0,19,20
 143 14 143 14 152 31 c 2,21,-1
 690 930 l 1,22,-1
 205 930 l 2,23,24
 144 930 144 930 143 991 c 2,25,-1
 143 1292 l 2,26,27
 143 1353 143 1353 205 1354 c 2,28,-1
 1239 1354 l 1,29,30
 1257 1417 1257 1417 1311.5 1457 c 128,-1,31
 1366 1497 1366 1497 1434 1497 c 0,32,33
 1518 1497 1518 1497 1578 1436.5 c 128,-1,34
 1638 1376 1638 1376 1638 1292 c 256,0,1
397 696 m 256,35,36
 397 645 397 645 361.5 609 c 128,-1,37
 326 573 326 573 274 573 c 256,38,39
 223 573 223 573 187.5 609 c 128,-1,40
 152 645 152 645 152 696 c 256,41,42
 152 747 152 747 187.5 783 c 128,-1,43
 223 819 223 819 274 819 c 256,44,45
 325 819 325 819 361 783 c 128,-1,46
 397 747 397 747 397 696 c 256,35,36
1516 1292 m 0,47,48
 1516 1327 1516 1327 1491 1350.5 c 128,-1,49
 1466 1374 1466 1374 1434 1374 c 0,50,51
 1399 1374 1399 1374 1375.5 1349.5 c 128,-1,52
 1352 1325 1352 1325 1352 1292 c 0,53,54
 1352 1257 1352 1257 1376.5 1233.5 c 128,-1,55
 1401 1210 1401 1210 1434 1210 c 0,56,57
 1469 1210 1469 1210 1492.5 1234.5 c 128,-1,58
 1516 1259 1516 1259 1516 1292 c 0,47,48
EndSplineSet
Validated: 1
EndChar

StartChar: uE054
Encoding: 236 57428 247
Width: 1869
Flags: W
LayerCount: 2
Fore
SplineSet
1870 860 m 0,0,1
 1870 776 1870 776 1809.5 715.5 c 128,-1,2
 1749 655 1749 655 1665 655 c 0,3,4
 1597 655 1597 655 1543 695 c 128,-1,5
 1489 735 1489 735 1468 799 c 1,6,-1
 881 799 l 1,7,-1
 881 451 l 2,8,9
 881 390 881 390 819 389 c 2,10,-1
 205 389 l 2,11,12
 144 389 144 389 143 451 c 256,13,14
 143 512 143 512 205 512 c 2,15,-1
 758 512 l 1,16,-1
 758 860 l 2,17,18
 758 921 758 921 819 922 c 2,19,-1
 1468 922 l 1,20,21
 1488 985 1488 985 1542.5 1025 c 128,-1,22
 1597 1065 1597 1065 1665 1065 c 0,23,24
 1749 1065 1749 1065 1809.5 1005.5 c 128,-1,25
 1870 946 1870 946 1870 860 c 0,0,1
532 737 m 256,26,27
 532 686 532 686 496.5 650 c 128,-1,28
 461 614 461 614 410 614 c 256,29,30
 359 614 359 614 323 650 c 128,-1,31
 287 686 287 686 287 737 c 256,32,33
 287 788 287 788 322.5 824 c 128,-1,34
 358 860 358 860 410 860 c 256,35,36
 461 860 461 860 496.5 824 c 128,-1,37
 532 788 532 788 532 737 c 256,26,27
1747 860 m 0,38,39
 1747 895 1747 895 1722.5 918.5 c 128,-1,40
 1698 942 1698 942 1665 942 c 0,41,42
 1630 942 1630 942 1606.5 918.5 c 128,-1,43
 1583 895 1583 895 1583 860 c 0,44,45
 1583 827 1583 827 1606.5 802.5 c 128,-1,46
 1630 778 1630 778 1665 778 c 0,47,48
 1698 778 1698 778 1722.5 802.5 c 128,-1,49
 1747 827 1747 827 1747 860 c 0,38,39
EndSplineSet
Validated: 1
EndChar

StartChar: uE055
Encoding: 237 57429 248
Width: 1740
Flags: W
LayerCount: 2
Fore
SplineSet
1741 1231 m 0,0,1
 1741 981 1741 981 1331 903 c 1,2,-1
 1331 0 l 2,3,4
 1331 -61 1331 -61 1270 -61 c 256,5,6
 1209 -61 1209 -61 1208 0 c 2,7,-1
 1208 885 l 1,8,9
 1083 871 1083 871 942 870 c 256,10,11
 801 870 801 870 676 885 c 1,12,-1
 676 635 l 1,13,-1
 934 635 l 2,14,15
 995 635 995 635 995 573 c 256,16,17
 995 512 995 512 934 512 c 2,18,-1
 676 512 l 1,19,-1
 676 0 l 2,20,21
 676 -61 676 -61 614 -61 c 256,22,23
 553 -61 553 -61 553 0 c 2,24,-1
 553 512 l 1,25,-1
 283 512 l 2,26,27
 222 512 222 512 221 573 c 256,28,29
 221 634 221 634 283 635 c 2,30,-1
 553 635 l 1,31,-1
 553 903 l 1,32,33
 143 981 143 981 143 1231 c 0,34,35
 143 1340 143 1340 221 1418.5 c 128,-1,36
 299 1497 299 1497 410 1497 c 256,37,38
 521 1497 521 1497 598.5 1419 c 128,-1,39
 676 1341 676 1341 676 1231 c 2,40,-1
 676 1010 l 1,41,42
 803 994 803 994 942 993 c 256,43,44
 1081 993 1081 993 1208 1010 c 1,45,-1
 1208 1231 l 2,46,47
 1208 1340 1208 1340 1286 1418.5 c 128,-1,48
 1364 1497 1364 1497 1475 1497 c 256,49,50
 1586 1497 1586 1497 1663.5 1418.5 c 128,-1,51
 1741 1340 1741 1340 1741 1231 c 0,0,1
1618 1231 m 0,52,53
 1618 1290 1618 1290 1576 1332 c 128,-1,54
 1534 1374 1534 1374 1475 1374 c 256,55,56
 1416 1374 1416 1374 1373.5 1332 c 128,-1,57
 1331 1290 1331 1290 1331 1231 c 2,58,-1
 1331 1028 l 1,59,60
 1618 1088 1618 1088 1618 1231 c 0,52,53
553 1028 m 1,61,-1
 553 1231 l 2,62,63
 553 1290 553 1290 511 1332 c 128,-1,64
 469 1374 469 1374 410 1374 c 256,65,66
 351 1374 351 1374 308.5 1332 c 128,-1,67
 266 1290 266 1290 266 1231 c 0,68,69
 266 1087 266 1087 553 1028 c 1,61,-1
EndSplineSet
Validated: 1
EndChar

StartChar: uE056
Encoding: 238 57430 249
Width: 1292
Flags: W
LayerCount: 2
Fore
SplineSet
1268 719 m 0,0,1
 1268 668 1268 668 1231 631 c 128,-1,2
 1194 594 1194 594 1145 594 c 0,3,4
 1094 594 1094 594 1057 631 c 128,-1,5
 1020 668 1020 668 1020 719 c 0,6,7
 1020 768 1020 768 1057 805 c 128,-1,8
 1094 842 1094 842 1145 842 c 0,9,10
 1194 842 1194 842 1231 805 c 128,-1,11
 1268 768 1268 768 1268 719 c 0,0,1
1272 45 m 2,12,13
 1288 22 1288 22 1288 0 c 0,14,15
 1288 -61 1288 -61 1217 -61 c 2,16,-1
 217 -61 l 2,17,18
 145 -61 145 -61 145 0 c 0,19,20
 145 25 145 25 162 45 c 2,21,-1
 641 719 l 1,22,-1
 162 1391 l 2,23,24
 146 1414 146 1414 145 1436 c 0,25,26
 145 1497 145 1497 217 1497 c 2,27,-1
 1217 1497 l 2,28,29
 1287 1497 1287 1497 1286 1436 c 0,30,31
 1286 1411 1286 1411 1272 1391 c 2,32,-1
 793 717 l 1,33,-1
 1272 45 l 2,12,13
412 719 m 0,34,35
 412 668 412 668 376 631 c 128,-1,36
 340 594 340 594 289 594 c 256,37,38
 238 594 238 594 202 631 c 128,-1,39
 166 668 166 668 166 719 c 0,40,41
 166 768 166 768 202 805 c 128,-1,42
 238 842 238 842 289 842 c 256,43,44
 340 842 340 842 376 805 c 128,-1,45
 412 768 412 768 412 719 c 0,34,35
1110 1374 m 1,46,-1
 324 1374 l 1,47,-1
 717 823 l 1,48,-1
 1110 1374 l 1,46,-1
1110 61 m 1,49,-1
 717 612 l 1,50,-1
 324 61 l 1,51,-1
 1110 61 l 1,49,-1
EndSplineSet
Validated: 33
EndChar

StartChar: uE057
Encoding: 239 57431 250
Width: 1292
Flags: W
LayerCount: 2
Fore
SplineSet
1272 45 m 2,0,1
 1288 22 1288 22 1288 0 c 0,2,3
 1288 -61 1288 -61 1217 -61 c 2,4,-1
 217 -61 l 2,5,6
 145 -61 145 -61 145 0 c 0,7,8
 145 25 145 25 162 45 c 2,9,-1
 641 719 l 1,10,-1
 162 1391 l 2,11,12
 146 1414 146 1414 145 1436 c 0,13,14
 145 1497 145 1497 217 1497 c 2,15,-1
 1217 1497 l 2,16,17
 1287 1497 1287 1497 1286 1436 c 0,18,19
 1286 1411 1286 1411 1272 1391 c 2,20,-1
 793 717 l 1,21,-1
 1272 45 l 2,0,1
412 719 m 0,22,23
 412 668 412 668 376 631 c 128,-1,24
 340 594 340 594 289 594 c 256,25,26
 238 594 238 594 202 631 c 128,-1,27
 166 668 166 668 166 719 c 0,28,29
 166 768 166 768 202 805 c 128,-1,30
 238 842 238 842 289 842 c 256,31,32
 340 842 340 842 376 805 c 128,-1,33
 412 768 412 768 412 719 c 0,22,23
1110 1374 m 1,34,-1
 324 1374 l 1,35,-1
 717 823 l 1,36,-1
 1110 1374 l 1,34,-1
1110 61 m 1,37,-1
 717 612 l 1,38,-1
 324 61 l 1,39,-1
 1110 61 l 1,37,-1
EndSplineSet
Validated: 33
EndChar

StartChar: uE058
Encoding: 240 57432 251
Width: 1228
Flags: W
LayerCount: 2
Fore
SplineSet
455 1124 m 0,0,1
 455 1075 455 1075 418 1038 c 128,-1,2
 381 1001 381 1001 330 1001 c 0,3,4
 281 1001 281 1001 244 1038 c 128,-1,5
 207 1075 207 1075 207 1124 c 0,6,7
 207 1175 207 1175 244 1212 c 128,-1,8
 281 1249 281 1249 330 1249 c 0,9,10
 381 1249 381 1249 418 1212 c 128,-1,11
 455 1175 455 1175 455 1124 c 0,0,1
1225 1004 m 0,12,13
 1225 867 1225 867 1128.5 770.5 c 128,-1,14
 1032 674 1032 674 895 674 c 2,15,-1
 745 674 l 1,16,-1
 745 0 l 2,17,18
 745 -61 745 -61 684 -61 c 256,19,20
 623 -61 623 -61 623 0 c 2,21,-1
 623 139 l 1,22,-1
 471 139 l 2,23,24
 336 139 336 139 239.5 235.5 c 128,-1,25
 143 332 143 332 143 469 c 0,26,27
 143 604 143 604 239.5 700.5 c 128,-1,28
 336 797 336 797 471 797 c 2,29,-1
 623 797 l 1,30,-1
 623 1436 l 2,31,32
 623 1497 623 1497 684 1497 c 256,33,34
 745 1497 745 1497 745 1436 c 2,35,-1
 745 1331 l 1,36,-1
 895 1331 l 2,37,38
 1032 1331 1032 1331 1128.5 1235 c 128,-1,39
 1225 1139 1225 1139 1225 1004 c 0,12,13
1102 1004 m 0,40,41
 1102 1088 1102 1088 1041.5 1148 c 128,-1,42
 981 1208 981 1208 895 1208 c 2,43,-1
 745 1208 l 1,44,-1
 745 797 l 1,45,-1
 895 797 l 2,46,47
 981 797 981 797 1041.5 857.5 c 128,-1,48
 1102 918 1102 918 1102 1004 c 0,40,41
623 262 m 1,49,-1
 623 674 l 1,50,-1
 471 674 l 2,51,52
 387 674 387 674 326.5 613.5 c 128,-1,53
 266 553 266 553 266 469 c 0,54,55
 266 383 266 383 326.5 322.5 c 128,-1,56
 387 262 387 262 471 262 c 2,57,-1
 623 262 l 1,49,-1
EndSplineSet
Validated: 1
EndChar

StartChar: uE059
Encoding: 241 57433 252
Width: 1290
Flags: W
LayerCount: 2
Fore
SplineSet
1290 717 m 256,0,1
 1290 479 1290 479 1122 311 c 128,-1,2
 954 143 954 143 717 143 c 256,3,4
 479 143 479 143 311 311 c 128,-1,5
 143 479 143 479 143 717 c 256,6,7
 143 955 143 955 311 1122.5 c 128,-1,8
 479 1290 479 1290 717 1290 c 256,9,10
 955 1290 955 1290 1122.5 1122.5 c 128,-1,11
 1290 955 1290 955 1290 717 c 256,0,1
1167 717 m 256,12,13
 1167 903 1167 903 1035 1035 c 128,-1,14
 903 1167 903 1167 717 1167 c 256,15,16
 531 1167 531 1167 398.5 1035 c 128,-1,17
 266 903 266 903 266 717 c 256,18,19
 266 531 266 531 398 398.5 c 128,-1,20
 530 266 530 266 717 266 c 256,21,22
 903 266 903 266 1035 398.5 c 128,-1,23
 1167 531 1167 531 1167 717 c 256,12,13
840 963 m 256,24,25
 840 912 840 912 804 876 c 128,-1,26
 768 840 768 840 717 840 c 256,27,28
 666 840 666 840 630 875.5 c 128,-1,29
 594 911 594 911 594 963 c 256,30,31
 594 1014 594 1014 630 1049.5 c 128,-1,32
 666 1085 666 1085 717 1085 c 256,33,34
 768 1085 768 1085 804 1049.5 c 128,-1,35
 840 1014 840 1014 840 963 c 256,24,25
1085 717 m 256,36,37
 1085 666 1085 666 1049.5 630 c 128,-1,38
 1014 594 1014 594 963 594 c 256,39,40
 912 594 912 594 876 630 c 128,-1,41
 840 666 840 666 840 717 c 256,42,43
 840 768 840 768 875.5 804 c 128,-1,44
 911 840 911 840 963 840 c 256,45,46
 1014 840 1014 840 1049.5 804 c 128,-1,47
 1085 768 1085 768 1085 717 c 256,36,37
840 471 m 256,48,49
 840 420 840 420 804 384 c 128,-1,50
 768 348 768 348 717 348 c 256,51,52
 666 348 666 348 630 384 c 128,-1,53
 594 420 594 420 594 471 c 256,54,55
 594 522 594 522 630 558 c 128,-1,56
 666 594 666 594 717 594 c 256,57,58
 768 594 768 594 804 558 c 128,-1,59
 840 522 840 522 840 471 c 256,48,49
594 717 m 256,60,61
 594 666 594 666 558 630 c 128,-1,62
 522 594 522 594 471 594 c 256,63,64
 420 594 420 594 384 630 c 128,-1,65
 348 666 348 666 348 717 c 256,66,67
 348 768 348 768 384 804 c 128,-1,68
 420 840 420 840 471 840 c 256,69,70
 522 840 522 840 558 804 c 128,-1,71
 594 768 594 768 594 717 c 256,60,61
EndSplineSet
Validated: 1
EndChar

StartChar: uE05A
Encoding: 242 57434 253
Width: 1292
Flags: W
LayerCount: 2
Fore
SplineSet
1272 45 m 2,0,1
 1288 22 1288 22 1288 0 c 0,2,3
 1288 -61 1288 -61 1217 -61 c 2,4,-1
 217 -61 l 2,5,6
 145 -61 145 -61 145 0 c 0,7,8
 145 25 145 25 162 45 c 2,9,-1
 641 719 l 1,10,-1
 162 1391 l 2,11,12
 146 1414 146 1414 145 1436 c 0,13,14
 145 1497 145 1497 217 1497 c 2,15,-1
 1217 1497 l 2,16,17
 1287 1497 1287 1497 1286 1436 c 0,18,19
 1286 1411 1286 1411 1272 1391 c 2,20,-1
 793 717 l 1,21,-1
 1272 45 l 2,0,1
1110 1374 m 1,22,-1
 324 1374 l 1,23,-1
 717 823 l 1,24,-1
 1110 1374 l 1,22,-1
1110 61 m 1,25,-1
 717 612 l 1,26,-1
 324 61 l 1,27,-1
 1110 61 l 1,25,-1
EndSplineSet
Validated: 33
EndChar

StartChar: uE05B
Encoding: 243 57435 254
Width: 1699
Flags: W
LayerCount: 2
Fore
SplineSet
1329 915 m 256,0,1
 1329 864 1329 864 1293 828.5 c 128,-1,2
 1257 793 1257 793 1206 793 c 256,3,4
 1155 793 1155 793 1119 828.5 c 128,-1,5
 1083 864 1083 864 1083 915 c 256,6,7
 1083 966 1083 966 1119 1002 c 128,-1,8
 1155 1038 1155 1038 1206 1038 c 256,9,10
 1257 1038 1257 1038 1293 1002 c 128,-1,11
 1329 966 1329 966 1329 915 c 256,0,1
1700 389 m 256,12,13
 1700 272 1700 272 1592.5 187 c 128,-1,14
 1485 102 1485 102 1346 102 c 2,15,-1
 205 102 l 2,16,17
 144 102 144 102 143 164 c 2,18,-1
 143 614 l 2,19,20
 143 675 143 675 205 676 c 2,21,-1
 821 676 l 1,22,-1
 821 1167 l 1,23,-1
 592 1167 l 2,24,25
 531 1167 531 1167 530 1229 c 256,26,27
 530 1290 530 1290 592 1290 c 2,28,-1
 1167 1290 l 2,29,30
 1228 1290 1228 1290 1229 1229 c 256,31,32
 1229 1168 1229 1168 1167 1167 c 2,33,-1
 944 1167 l 1,34,-1
 944 676 l 1,35,-1
 1346 676 l 2,36,37
 1485 676 1485 676 1592.5 591 c 128,-1,38
 1700 506 1700 506 1700 389 c 256,12,13
696 915 m 256,39,40
 696 864 696 864 660.5 828.5 c 128,-1,41
 625 793 625 793 573 793 c 256,42,43
 522 793 522 793 486.5 828.5 c 128,-1,44
 451 864 451 864 451 915 c 256,45,46
 451 966 451 966 486.5 1002 c 128,-1,47
 522 1038 522 1038 573 1038 c 256,48,49
 624 1038 624 1038 660 1002 c 128,-1,50
 696 966 696 966 696 915 c 256,39,40
1577 389 m 256,51,52
 1577 444 1577 444 1513 496 c 0,53,54
 1443 553 1443 553 1346 553 c 2,55,-1
 266 553 l 1,56,-1
 266 225 l 1,57,-1
 1346 225 l 2,58,59
 1444 225 1444 225 1513 283 c 0,60,61
 1577 334 1577 334 1577 389 c 256,51,52
EndSplineSet
Validated: 1
EndChar

StartChar: uE05C
Encoding: 244 57436 255
Width: 1310
Flags: W
LayerCount: 2
Fore
SplineSet
1090 1147 m 256,0,1
 1090 1096 1090 1096 1054 1060 c 128,-1,2
 1018 1024 1018 1024 967 1024 c 256,3,4
 916 1024 916 1024 880 1060 c 128,-1,5
 844 1096 844 1096 844 1147 c 256,6,7
 844 1198 844 1198 879.5 1234 c 128,-1,8
 915 1270 915 1270 967 1270 c 256,9,10
 1018 1270 1018 1270 1054 1234 c 128,-1,11
 1090 1198 1090 1198 1090 1147 c 256,0,1
588 1147 m 256,12,13
 588 1096 588 1096 552 1060 c 128,-1,14
 516 1024 516 1024 465 1024 c 256,15,16
 414 1024 414 1024 378 1060 c 128,-1,17
 342 1096 342 1096 342 1147 c 256,18,19
 342 1198 342 1198 378 1234 c 128,-1,20
 414 1270 414 1270 465 1270 c 256,21,22
 516 1270 516 1270 552 1234 c 128,-1,23
 588 1198 588 1198 588 1147 c 256,12,13
1311 61 m 2,24,25
 1311 0 1311 0 1251 0 c 2,26,-1
 205 0 l 2,27,28
 144 0 144 0 143 61 c 2,29,-1
 143 881 l 2,30,31
 143 942 143 942 205 942 c 2,32,-1
 653 942 l 1,33,-1
 653 1374 l 1,34,-1
 410 1374 l 2,35,36
 349 1374 349 1374 348 1436 c 256,37,38
 348 1497 348 1497 410 1497 c 2,39,-1
 1024 1497 l 2,40,41
 1085 1497 1085 1497 1085 1436 c 256,42,43
 1085 1375 1085 1375 1024 1374 c 2,44,-1
 776 1374 l 1,45,-1
 776 942 l 1,46,-1
 1249 942 l 2,47,48
 1310 942 1310 942 1311 881 c 2,49,-1
 1311 61 l 2,24,25
1188 123 m 1,50,-1
 1188 819 l 1,51,-1
 266 819 l 1,52,-1
 266 123 l 1,53,-1
 1188 123 l 1,50,-1
EndSplineSet
Validated: 1
EndChar

StartChar: uE05D
Encoding: 245 57437 256
Width: 1638
Flags: W
LayerCount: 2
Fore
SplineSet
1700 985 m 256,0,1
 1700 874 1700 874 1622 796.5 c 128,-1,2
 1544 719 1544 719 1434 719 c 0,3,4
 1342 719 1342 719 1269 777.5 c 128,-1,5
 1196 836 1196 836 1174 924 c 1,6,-1
 266 924 l 1,7,-1
 266 541 l 1,8,-1
 670 541 l 2,9,10
 731 541 731 541 731 479 c 256,11,12
 731 418 731 418 670 418 c 2,13,-1
 205 418 l 2,14,15
 144 418 144 418 143 479 c 2,16,-1
 143 985 l 2,17,18
 143 1046 143 1046 205 1047 c 2,19,-1
 1174 1047 l 1,20,21
 1197 1135 1197 1135 1268 1193 c 128,-1,22
 1339 1251 1339 1251 1434 1251 c 0,23,24
 1545 1251 1545 1251 1622.5 1173.5 c 128,-1,25
 1700 1096 1700 1096 1700 985 c 256,0,1
1577 985 m 256,26,27
 1577 1044 1577 1044 1535 1086 c 128,-1,28
 1493 1128 1493 1128 1434 1128 c 256,29,30
 1375 1128 1375 1128 1332.5 1086 c 128,-1,31
 1290 1044 1290 1044 1290 985 c 256,32,33
 1290 926 1290 926 1332 884 c 128,-1,34
 1374 842 1374 842 1434 842 c 256,35,36
 1493 842 1493 842 1535 884 c 128,-1,37
 1577 926 1577 926 1577 985 c 256,26,27
EndSplineSet
Validated: 1
EndChar

StartChar: uE05E
Encoding: 246 57438 257
Width: 2007
Flags: W
LayerCount: 2
Fore
SplineSet
2007 719 m 256,0,1
 2007 608 2007 608 1929 530.5 c 128,-1,2
 1851 453 1851 453 1741 453 c 0,3,4
 1649 453 1649 453 1576 511 c 128,-1,5
 1503 569 1503 569 1481 657 c 1,6,-1
 266 657 l 1,7,-1
 266 274 l 1,8,-1
 567 274 l 2,9,10
 628 274 628 274 629 213 c 256,11,12
 629 152 629 152 567 152 c 2,13,-1
 205 152 l 2,14,15
 144 152 144 152 143 213 c 2,16,-1
 143 719 l 2,17,18
 143 780 143 780 205 780 c 2,19,-1
 655 780 l 1,20,-1
 655 1208 l 2,21,22
 655 1286 655 1286 710.5 1341.5 c 128,-1,23
 766 1397 766 1397 844 1397 c 256,24,25
 922 1397 922 1397 977 1341.5 c 128,-1,26
 1032 1286 1032 1286 1032 1208 c 0,27,28
 1032 1147 1032 1147 971 1147 c 256,29,30
 910 1147 910 1147 909.5 1210.5 c 128,-1,31
 909 1274 909 1274 844 1274 c 256,32,33
 778 1274 778 1274 778 1208 c 2,34,-1
 778 780 l 1,35,-1
 1481 780 l 1,36,37
 1504 868 1504 868 1575.5 926.5 c 128,-1,38
 1647 985 1647 985 1741 985 c 0,39,40
 1852 985 1852 985 1929.5 907.5 c 128,-1,41
 2007 830 2007 830 2007 719 c 256,0,1
1884 719 m 256,42,43
 1884 778 1884 778 1842 820 c 128,-1,44
 1800 862 1800 862 1741 862 c 256,45,46
 1682 862 1682 862 1639.5 820 c 128,-1,47
 1597 778 1597 778 1597 719 c 256,48,49
 1597 660 1597 660 1639 617.5 c 128,-1,50
 1681 575 1681 575 1741 575 c 256,51,52
 1800 575 1800 575 1842 617.5 c 128,-1,53
 1884 660 1884 660 1884 719 c 256,42,43
EndSplineSet
Validated: 1
EndChar

StartChar: uE05F
Encoding: 247 57439 258
Width: 1290
Flags: W
LayerCount: 2
Fore
SplineSet
1290 717 m 256,0,1
 1290 479 1290 479 1122 311 c 128,-1,2
 954 143 954 143 717 143 c 256,3,4
 479 143 479 143 311 311 c 128,-1,5
 143 479 143 479 143 717 c 256,6,7
 143 955 143 955 311 1122.5 c 128,-1,8
 479 1290 479 1290 717 1290 c 256,9,10
 955 1290 955 1290 1122.5 1122.5 c 128,-1,11
 1290 955 1290 955 1290 717 c 256,0,1
1163 778 m 1,12,13
 1143 928 1143 928 1036.5 1034.5 c 128,-1,14
 930 1141 930 1141 782 1163 c 1,15,-1
 782 778 l 1,16,-1
 1163 778 l 1,12,13
1163 655 m 1,17,-1
 782 655 l 1,18,-1
 782 270 l 1,19,20
 929 293 929 293 1036 399 c 128,-1,21
 1143 505 1143 505 1163 655 c 1,17,-1
659 778 m 1,22,-1
 659 1163 l 1,23,24
 507 1145 507 1145 399 1037.5 c 128,-1,25
 291 930 291 930 270 778 c 1,26,-1
 659 778 l 1,22,-1
659 270 m 1,27,-1
 659 655 l 1,28,-1
 270 655 l 1,29,30
 290 503 290 503 398.5 395.5 c 128,-1,31
 507 288 507 288 659 270 c 1,27,-1
EndSplineSet
Validated: 1
EndChar

StartChar: uE060
Encoding: 248 57440 259
Width: 1290
Flags: W
LayerCount: 2
Fore
SplineSet
719 141 m 256,1,2
 481 141 481 141 313 309 c 128,-1,3
 145 477 145 477 145 715 c 256,4,5
 145 953 145 953 313 1120.5 c 128,-1,6
 481 1288 481 1288 719 1288 c 256,7,8
 957 1288 957 1288 1124.5 1120 c 128,-1,9
 1292 952 1292 952 1292 715 c 256,10,11
 1292 477 1292 477 1124.5 309 c 128,-1,0
 957 141 957 141 719 141 c 256,1,2
993 1073 m 1,12,13
 872 1165 872 1165 719 1165 c 0,14,15
 567 1165 567 1165 446 1075 c 1,16,-1
 721 801 l 1,17,-1
 993 1073 l 1,12,13
1079 985 m 1,18,-1
 809 713 l 1,19,-1
 1077 444 l 1,20,21
 1171 567 1171 567 1169 721 c 0,22,23
 1167 868 1167 868 1079 985 c 1,18,-1
991 356 m 1,24,-1
 721 627 l 1,25,-1
 451 354 l 1,26,27
 570 264 570 264 719 264 c 0,28,29
 870 264 870 264 991 356 c 1,24,-1
635 713 m 1,30,-1
 360 987 l 1,31,32
 268 868 268 868 268 715 c 256,33,34
 268 561 268 561 362 440 c 1,35,-1
 635 713 l 1,30,-1
EndSplineSet
Validated: 33
EndChar

StartChar: uE061
Encoding: 249 57441 260
Width: 1290
Flags: W
LayerCount: 2
Fore
SplineSet
1290 717 m 256,0,1
 1290 479 1290 479 1122 311 c 128,-1,2
 954 143 954 143 717 143 c 256,3,4
 479 143 479 143 311 311 c 128,-1,5
 143 479 143 479 143 717 c 256,6,7
 143 955 143 955 311 1122.5 c 128,-1,8
 479 1290 479 1290 717 1290 c 256,9,10
 955 1290 955 1290 1122.5 1122.5 c 128,-1,11
 1290 955 1290 955 1290 717 c 256,0,1
1167 717 m 256,12,13
 1167 903 1167 903 1035 1035 c 128,-1,14
 903 1167 903 1167 717 1167 c 256,15,16
 531 1167 531 1167 398.5 1035 c 128,-1,17
 266 903 266 903 266 717 c 256,18,19
 266 531 266 531 398 398.5 c 128,-1,20
 530 266 530 266 717 266 c 256,21,22
 903 266 903 266 1035 398.5 c 128,-1,23
 1167 531 1167 531 1167 717 c 256,12,13
963 719 m 256,24,25
 963 617 963 617 891 545 c 128,-1,26
 819 473 819 473 717 473 c 256,27,28
 615 473 615 473 543 544.5 c 128,-1,29
 471 616 471 616 471 719 c 256,30,31
 471 821 471 821 542.5 893 c 128,-1,32
 614 965 614 965 717 965 c 256,33,34
 819 965 819 965 891 893 c 128,-1,35
 963 821 963 821 963 719 c 256,24,25
840 719 m 256,36,37
 840 770 840 770 804 806 c 128,-1,38
 768 842 768 842 717 842 c 256,39,40
 666 842 666 842 630 806 c 128,-1,41
 594 770 594 770 594 719 c 256,42,43
 594 668 594 668 630 632 c 128,-1,44
 666 596 666 596 717 596 c 256,45,46
 768 596 768 596 804 632 c 128,-1,47
 840 668 840 668 840 719 c 256,36,37
EndSplineSet
Validated: 1
EndChar

StartChar: uE062
Encoding: 250 57442 261
Width: 1290
Flags: W
LayerCount: 2
Fore
SplineSet
840 1475 m 256,0,1
 840 1424 840 1424 804 1388 c 128,-1,2
 768 1352 768 1352 717 1352 c 256,3,4
 666 1352 666 1352 630 1387.5 c 128,-1,5
 594 1423 594 1423 594 1475 c 256,6,7
 594 1526 594 1526 630 1561.5 c 128,-1,8
 666 1597 666 1597 717 1597 c 256,9,10
 768 1597 768 1597 804 1561.5 c 128,-1,11
 840 1526 840 1526 840 1475 c 256,0,1
1290 717 m 256,12,13
 1290 479 1290 479 1122 311 c 128,-1,14
 954 143 954 143 717 143 c 256,15,16
 479 143 479 143 311 311 c 128,-1,17
 143 479 143 479 143 717 c 256,18,19
 143 955 143 955 311 1122.5 c 128,-1,20
 479 1290 479 1290 717 1290 c 256,21,22
 955 1290 955 1290 1122.5 1122.5 c 128,-1,23
 1290 955 1290 955 1290 717 c 256,12,13
1167 717 m 256,24,25
 1167 903 1167 903 1035 1035 c 128,-1,26
 903 1167 903 1167 717 1167 c 256,27,28
 531 1167 531 1167 398.5 1035 c 128,-1,29
 266 903 266 903 266 717 c 256,30,31
 266 531 266 531 398 398.5 c 128,-1,32
 530 266 530 266 717 266 c 256,33,34
 903 266 903 266 1035 398.5 c 128,-1,35
 1167 531 1167 531 1167 717 c 256,24,25
963 719 m 256,36,37
 963 617 963 617 891 545 c 128,-1,38
 819 473 819 473 717 473 c 256,39,40
 615 473 615 473 543 544.5 c 128,-1,41
 471 616 471 616 471 719 c 256,42,43
 471 821 471 821 542.5 893 c 128,-1,44
 614 965 614 965 717 965 c 256,45,46
 819 965 819 965 891 893 c 128,-1,47
 963 821 963 821 963 719 c 256,36,37
840 719 m 256,48,49
 840 770 840 770 804 806 c 128,-1,50
 768 842 768 842 717 842 c 256,51,52
 666 842 666 842 630 806 c 128,-1,53
 594 770 594 770 594 719 c 256,54,55
 594 668 594 668 630 632 c 128,-1,56
 666 596 666 596 717 596 c 256,57,58
 768 596 768 596 804 632 c 128,-1,59
 840 668 840 668 840 719 c 256,48,49
EndSplineSet
Validated: 1
EndChar

StartChar: uE063
Encoding: 251 57443 262
Width: 1290
Flags: W
LayerCount: 2
Fore
SplineSet
1044 1475 m 256,0,1
 1044 1424 1044 1424 1008.5 1388 c 128,-1,2
 973 1352 973 1352 922 1352 c 256,3,4
 871 1352 871 1352 835 1387.5 c 128,-1,5
 799 1423 799 1423 799 1475 c 256,6,7
 799 1526 799 1526 834.5 1561.5 c 128,-1,8
 870 1597 870 1597 922 1597 c 256,9,10
 973 1597 973 1597 1008.5 1561.5 c 128,-1,11
 1044 1526 1044 1526 1044 1475 c 256,0,1
635 1475 m 256,12,13
 635 1424 635 1424 599 1388 c 128,-1,14
 563 1352 563 1352 512 1352 c 256,15,16
 461 1352 461 1352 425 1387.5 c 128,-1,17
 389 1423 389 1423 389 1475 c 256,18,19
 389 1526 389 1526 425 1561.5 c 128,-1,20
 461 1597 461 1597 512 1597 c 256,21,22
 563 1597 563 1597 599 1561.5 c 128,-1,23
 635 1526 635 1526 635 1475 c 256,12,13
1290 717 m 256,24,25
 1290 479 1290 479 1122 311 c 128,-1,26
 954 143 954 143 717 143 c 256,27,28
 479 143 479 143 311 311 c 128,-1,29
 143 479 143 479 143 717 c 256,30,31
 143 955 143 955 311 1122.5 c 128,-1,32
 479 1290 479 1290 717 1290 c 256,33,34
 955 1290 955 1290 1122.5 1122.5 c 128,-1,35
 1290 955 1290 955 1290 717 c 256,24,25
1167 717 m 256,36,37
 1167 903 1167 903 1035 1035 c 128,-1,38
 903 1167 903 1167 717 1167 c 256,39,40
 531 1167 531 1167 398.5 1035 c 128,-1,41
 266 903 266 903 266 717 c 256,42,43
 266 531 266 531 398 398.5 c 128,-1,44
 530 266 530 266 717 266 c 256,45,46
 903 266 903 266 1035 398.5 c 128,-1,47
 1167 531 1167 531 1167 717 c 256,36,37
963 719 m 256,48,49
 963 617 963 617 891 545 c 128,-1,50
 819 473 819 473 717 473 c 256,51,52
 615 473 615 473 543 544.5 c 128,-1,53
 471 616 471 616 471 719 c 256,54,55
 471 821 471 821 542.5 893 c 128,-1,56
 614 965 614 965 717 965 c 256,57,58
 819 965 819 965 891 893 c 128,-1,59
 963 821 963 821 963 719 c 256,48,49
840 719 m 256,60,61
 840 770 840 770 804 806 c 128,-1,62
 768 842 768 842 717 842 c 256,63,64
 666 842 666 842 630 806 c 128,-1,65
 594 770 594 770 594 719 c 256,66,67
 594 668 594 668 630 632 c 128,-1,68
 666 596 666 596 717 596 c 256,69,70
 768 596 768 596 804 632 c 128,-1,71
 840 668 840 668 840 719 c 256,60,61
EndSplineSet
Validated: 1
EndChar

StartChar: uE064
Encoding: 252 57444 263
Width: 1290
Flags: W
LayerCount: 2
Fore
SplineSet
1290 717 m 256,0,1
 1290 479 1290 479 1122 311 c 128,-1,2
 954 143 954 143 717 143 c 256,3,4
 479 143 479 143 311 311 c 128,-1,5
 143 479 143 479 143 717 c 256,6,7
 143 955 143 955 311 1122.5 c 128,-1,8
 479 1290 479 1290 717 1290 c 256,9,10
 955 1290 955 1290 1122.5 1122.5 c 128,-1,11
 1290 955 1290 955 1290 717 c 256,0,1
717 -281 m 0,12,13
 778 -281 778 -281 778 -342 c 256,14,15
 778 -403 778 -403 717 -403 c 0,16,17
 615 -403 615 -403 543 -330.5 c 128,-1,18
 471 -258 471 -258 471 -156 c 0,19,20
 471 -56 471 -56 542.5 17 c 128,-1,21
 614 90 614 90 717 90 c 0,22,23
 778 90 778 90 778 29 c 256,24,25
 778 -32 778 -32 717 -33 c 0,26,27
 666 -33 666 -33 630 -69.5 c 128,-1,28
 594 -106 594 -106 594 -156 c 0,29,30
 594 -207 594 -207 630 -244 c 128,-1,31
 666 -281 666 -281 717 -281 c 0,12,13
1167 717 m 256,32,33
 1167 903 1167 903 1035 1035 c 128,-1,34
 903 1167 903 1167 717 1167 c 256,35,36
 531 1167 531 1167 398.5 1035 c 128,-1,37
 266 903 266 903 266 717 c 256,38,39
 266 531 266 531 398 398.5 c 128,-1,40
 530 266 530 266 717 266 c 256,41,42
 903 266 903 266 1035 398.5 c 128,-1,43
 1167 531 1167 531 1167 717 c 256,32,33
963 719 m 256,44,45
 963 617 963 617 891 545 c 128,-1,46
 819 473 819 473 717 473 c 256,47,48
 615 473 615 473 543 544.5 c 128,-1,49
 471 616 471 616 471 719 c 256,50,51
 471 821 471 821 542.5 893 c 128,-1,52
 614 965 614 965 717 965 c 256,53,54
 819 965 819 965 891 893 c 128,-1,55
 963 821 963 821 963 719 c 256,44,45
840 719 m 256,56,57
 840 770 840 770 804 806 c 128,-1,58
 768 842 768 842 717 842 c 256,59,60
 666 842 666 842 630 806 c 128,-1,61
 594 770 594 770 594 719 c 256,62,63
 594 668 594 668 630 632 c 128,-1,64
 666 596 666 596 717 596 c 256,65,66
 768 596 768 596 804 632 c 128,-1,67
 840 668 840 668 840 719 c 256,56,57
EndSplineSet
Validated: 1
EndChar

StartChar: uE065
Encoding: 253 57445 264
Width: 1290
Flags: W
LayerCount: 2
Fore
SplineSet
1290 717 m 256,0,1
 1290 479 1290 479 1122 311 c 128,-1,2
 954 143 954 143 717 143 c 256,3,4
 479 143 479 143 311 311 c 128,-1,5
 143 479 143 479 143 717 c 256,6,7
 143 955 143 955 311 1122.5 c 128,-1,8
 479 1290 479 1290 717 1290 c 256,9,10
 955 1290 955 1290 1122.5 1122.5 c 128,-1,11
 1290 955 1290 955 1290 717 c 256,0,1
870 -313 m 2,12,13
 901 -331 901 -331 901 -365 c 0,14,15
 901 -390 901 -390 883.5 -409 c 128,-1,16
 866 -428 866 -428 842 -428 c 0,17,18
 826 -428 826 -428 809 -420 c 2,19,-1
 510 -240 l 2,20,21
 473 -220 473 -220 473 -182 c 256,22,23
 473 -145 473 -145 510 -123 c 2,24,-1
 809 55 l 2,25,26
 825 65 825 65 842 66 c 0,27,28
 867 66 867 66 884 45.5 c 128,-1,29
 901 25 901 25 901 0 c 0,30,31
 901 -33 901 -33 870 -49 c 2,32,-1
 651 -182 l 1,33,-1
 870 -313 l 2,12,13
1167 717 m 256,34,35
 1167 903 1167 903 1035 1035 c 128,-1,36
 903 1167 903 1167 717 1167 c 256,37,38
 531 1167 531 1167 398.5 1035 c 128,-1,39
 266 903 266 903 266 717 c 256,40,41
 266 531 266 531 398 398.5 c 128,-1,42
 530 266 530 266 717 266 c 256,43,44
 903 266 903 266 1035 398.5 c 128,-1,45
 1167 531 1167 531 1167 717 c 256,34,35
963 719 m 256,46,47
 963 617 963 617 891 545 c 128,-1,48
 819 473 819 473 717 473 c 256,49,50
 615 473 615 473 543 544.5 c 128,-1,51
 471 616 471 616 471 719 c 256,52,53
 471 821 471 821 542.5 893 c 128,-1,54
 614 965 614 965 717 965 c 256,55,56
 819 965 819 965 891 893 c 128,-1,57
 963 821 963 821 963 719 c 256,46,47
840 719 m 256,58,59
 840 770 840 770 804 806 c 128,-1,60
 768 842 768 842 717 842 c 256,61,62
 666 842 666 842 630 806 c 128,-1,63
 594 770 594 770 594 719 c 256,64,65
 594 668 594 668 630 632 c 128,-1,66
 666 596 666 596 717 596 c 256,67,68
 768 596 768 596 804 632 c 128,-1,69
 840 668 840 668 840 719 c 256,58,59
EndSplineSet
Validated: 1
EndChar

StartChar: uE066
Encoding: 254 57446 265
Width: 1697
Flags: W
LayerCount: 2
Fore
SplineSet
1638 1085 m 2,0,-1
 1085 1085 l 1,1,-1
 1085 381 l 1,2,-1
 1296 381 l 2,3,4
 1357 381 1357 381 1358 319 c 256,5,6
 1358 258 1358 258 1296 258 c 2,7,-1
 1085 258 l 1,8,-1
 1085 0 l 2,9,10
 1085 -61 1085 -61 1024 -61 c 256,11,12
 963 -61 963 -61 963 0 c 2,13,-1
 963 258 l 1,14,-1
 748 258 l 2,15,16
 687 258 687 258 686 319 c 256,17,18
 686 380 686 380 748 381 c 2,19,-1
 963 381 l 1,20,-1
 963 1085 l 1,21,-1
 449 1085 l 2,22,23
 369 1085 369 1085 317.5 1041 c 128,-1,24
 266 997 266 997 266 942 c 256,25,26
 266 887 266 887 317.5 843 c 128,-1,27
 369 799 369 799 449 799 c 2,28,-1
 614 799 l 2,29,30
 675 799 675 799 676 737 c 256,31,32
 676 676 676 676 614 676 c 2,33,-1
 449 676 l 2,34,35
 326 676 326 676 238 750 c 0,36,37
 144 828 144 828 143 942 c 256,38,39
 143 1057 143 1057 238 1135 c 0,40,41
 326 1209 326 1209 449 1208 c 2,42,-1
 963 1208 l 1,43,-1
 963 1436 l 2,44,45
 963 1497 963 1497 1024 1497 c 256,46,47
 1085 1497 1085 1497 1085 1436 c 2,48,-1
 1085 1208 l 1,49,-1
 1638 1208 l 2,50,51
 1699 1208 1699 1208 1700 1147 c 256,52,53
 1699 1085 1699 1085 1638 1085 c 2,0,-1
EndSplineSet
Validated: 33
EndChar

StartChar: uE067
Encoding: 255 57447 266
Width: 1288
Flags: W
LayerCount: 2
Fore
SplineSet
1229 -61 m 2,0,-1
 819 -61 l 2,1,2
 758 -61 758 -61 758 0 c 256,3,4
 758 61 758 61 819 61 c 2,5,-1
 963 61 l 1,6,-1
 963 856 l 1,7,-1
 352 856 l 1,8,-1
 475 733 l 2,9,10
 493 715 493 715 494 690 c 256,11,12
 494 665 494 665 474.5 647 c 128,-1,13
 455 629 455 629 430 629 c 256,14,15
 405 629 405 629 387 647 c 2,16,-1
 170 864 l 2,17,18
 145 889 145 889 145 915 c 0,19,20
 145 978 145 978 217 979 c 2,21,-1
 963 979 l 1,22,-1
 963 1436 l 2,23,24
 963 1497 963 1497 1024 1497 c 256,25,26
 1085 1497 1085 1497 1085 1436 c 2,27,-1
 1085 61 l 1,28,-1
 1229 61 l 2,29,30
 1290 61 1290 61 1290 0 c 256,31,32
 1290 -61 1290 -61 1229 -61 c 2,0,-1
EndSplineSet
Validated: 1
EndChar

StartChar: uE068
Encoding: 256 57448 267
Width: 2486
Flags: W
LayerCount: 2
Fore
SplineSet
2486 473 m 256,0,1
 2486 323 2486 323 2351 248 c 0,2,3
 2245 187 2245 187 2091 186 c 0,4,5
 1905 186 1905 186 1522 479 c 1,6,7
 1495 471 1495 471 1475 465 c 0,8,9
 1207 387 1207 387 719 258 c 1,10,11
 723 240 723 240 723 219 c 0,12,13
 723 102 723 102 637 20.5 c 128,-1,14
 551 -61 551 -61 432 -61 c 256,15,16
 313 -61 313 -61 228 20.5 c 128,-1,17
 143 102 143 102 143 219 c 256,18,19
 143 336 143 336 228 418 c 128,-1,20
 313 500 313 500 432 500 c 0,21,22
 588 500 588 500 674 375 c 1,23,24
 883 420 883 420 1403 573 c 1,25,26
 1294 661 1294 661 1081 836 c 1,27,28
 716 719 716 719 543 719 c 0,29,30
 416 719 416 719 313 762 c 0,31,32
 143 830 143 830 143 979 c 0,33,34
 143 1126 143 1126 276 1204 c 0,35,36
 385 1265 385 1265 539 1266 c 0,37,38
 725 1266 725 1266 1108 971 c 1,39,40
 1135 979 1135 979 1155 985 c 0,41,42
 1421 1065 1421 1065 1909 1192 c 1,43,44
 1907 1204 1907 1204 1907 1214 c 0,45,46
 1907 1333 1907 1333 1993 1414 c 128,-1,47
 2079 1495 2079 1495 2198 1495 c 256,48,49
 2317 1495 2317 1495 2401.5 1414 c 128,-1,50
 2486 1333 2486 1333 2486 1214 c 0,51,52
 2486 1097 2486 1097 2401 1015.5 c 128,-1,53
 2316 934 2316 934 2198 934 c 0,54,55
 2030 934 2030 934 1946 1075 c 1,56,57
 1739 1028 1739 1028 1225 879 c 1,58,59
 1334 789 1334 789 1548 616 c 1,60,61
 1913 731 1913 731 2087 731 c 0,62,63
 2214 731 2214 731 2316 690 c 0,64,65
 2486 623 2486 623 2486 473 c 256,0,1
2363 1214 m 0,66,67
 2363 1280 2363 1280 2315 1326 c 128,-1,68
 2267 1372 2267 1372 2198 1372 c 256,69,70
 2128 1372 2128 1372 2079 1326 c 128,-1,71
 2030 1280 2030 1280 2030 1214 c 0,72,73
 2030 1151 2030 1151 2079 1104 c 128,-1,74
 2128 1057 2128 1057 2198 1057 c 256,75,76
 2268 1057 2268 1057 2315.5 1104 c 128,-1,77
 2363 1151 2363 1151 2363 1214 c 0,66,67
2363 473 m 0,78,79
 2363 555 2363 555 2232 590 c 0,80,81
 2142 615 2142 615 2038 610 c 0,82,83
 1932 608 1932 608 1665 524 c 1,84,85
 1954 309 1954 309 2091 309 c 0,86,87
 2216 309 2216 309 2289.5 353 c 128,-1,88
 2363 397 2363 397 2363 473 c 0,78,79
963 926 m 1,89,90
 676 1143 676 1143 539 1143 c 0,91,92
 414 1143 414 1143 340 1098 c 128,-1,93
 266 1053 266 1053 266 979 c 0,94,95
 266 897 266 897 397 862 c 0,96,97
 487 837 487 837 590 840 c 0,98,99
 699 844 699 844 963 926 c 1,89,90
600 219 m 256,100,101
 600 282 600 282 551 329.5 c 128,-1,102
 502 377 502 377 432 377 c 256,103,104
 362 377 362 377 314 330 c 128,-1,105
 266 283 266 283 266 219 c 256,106,107
 266 156 266 156 314 108.5 c 128,-1,108
 362 61 362 61 432 61 c 256,109,110
 502 61 502 61 551 108.5 c 128,-1,111
 600 156 600 156 600 219 c 256,100,101
EndSplineSet
Validated: 33
EndChar

StartChar: uE069
Encoding: 257 57449 268
Width: 1495
Flags: W
LayerCount: 2
Fore
SplineSet
1448 676 m 2,0,-1
 881 430 l 1,1,-1
 881 0 l 2,2,3
 881 -61 881 -61 819 -61 c 256,4,5
 758 -61 758 -61 758 0 c 2,6,-1
 758 377 l 1,7,-1
 229 147 l 2,8,9
 215 143 215 143 203 143 c 0,10,11
 144 143 144 143 143 207 c 0,12,13
 143 246 143 246 180 262 c 2,14,-1
 758 512 l 1,15,-1
 758 942 l 1,16,-1
 182 1171 l 2,17,18
 143 1187 143 1187 143 1227 c 0,19,20
 143 1290 143 1290 203 1290 c 0,21,22
 215 1290 215 1290 227 1286 c 2,23,-1
 758 1073 l 1,24,-1
 758 1436 l 2,25,26
 758 1497 758 1497 819 1497 c 256,27,28
 880 1497 880 1497 881 1436 c 2,29,-1
 881 1024 l 1,30,-1
 1446 799 l 2,31,32
 1493 781 1493 781 1491 737 c 0,33,34
 1491 696 1491 696 1448 676 c 2,0,-1
1274 735 m 1,35,-1
 881 893 l 1,36,-1
 881 565 l 1,37,-1
 1274 735 l 1,35,-1
EndSplineSet
Validated: 33
EndChar

StartChar: uE06A
Encoding: 258 57450 269
Width: 884
Flags: W
LayerCount: 2
Fore
SplineSet
866 981 m 2,0,-1
 575 690 l 1,1,-1
 575 459 l 1,2,3
 663 436 663 436 721.5 364.5 c 128,-1,4
 780 293 780 293 780 199 c 0,5,6
 780 88 780 88 702.5 9 c 128,-1,7
 625 -70 625 -70 514 -70 c 0,8,9
 401 -70 401 -70 323.5 9 c 128,-1,10
 246 88 246 88 246 199 c 0,11,12
 246 293 246 293 304 364.5 c 128,-1,13
 362 436 362 436 453 459 c 1,14,-1
 453 567 l 1,15,-1
 250 367 l 2,16,17
 232 347 232 347 207 346 c 256,18,19
 182 346 182 346 163.5 365.5 c 128,-1,20
 145 385 145 385 145 410 c 256,21,22
 145 435 145 435 164 453 c 2,23,-1
 453 741 l 1,24,-1
 453 969 l 1,25,26
 363 992 363 992 304.5 1064.5 c 128,-1,27
 246 1137 246 1137 246 1231 c 0,28,29
 246 1342 246 1342 323.5 1419.5 c 128,-1,30
 401 1497 401 1497 514 1497 c 0,31,32
 625 1497 625 1497 702.5 1419 c 128,-1,33
 780 1341 780 1341 780 1231 c 0,34,35
 780 1137 780 1137 722 1064 c 128,-1,36
 664 991 664 991 575 969 c 1,37,-1
 575 864 l 1,38,-1
 778 1069 l 2,39,40
 798 1087 798 1087 821 1087 c 0,41,42
 848 1087 848 1087 866.5 1068 c 128,-1,43
 885 1049 885 1049 885 1024 c 0,44,45
 884 1001 884 1001 866 981 c 2,0,-1
657 1231 m 0,46,47
 657 1290 657 1290 615 1332 c 128,-1,48
 573 1374 573 1374 514 1374 c 0,49,50
 453 1374 453 1374 411 1332 c 128,-1,51
 369 1290 369 1290 369 1231 c 0,52,53
 369 1170 369 1170 411 1127.5 c 128,-1,54
 453 1085 453 1085 514 1085 c 0,55,56
 573 1085 573 1085 615 1127.5 c 128,-1,57
 657 1170 657 1170 657 1231 c 0,46,47
657 199 m 0,58,59
 657 258 657 258 615 300 c 128,-1,60
 573 342 573 342 514 342 c 0,61,62
 453 342 453 342 411 300 c 128,-1,63
 369 258 369 258 369 199 c 0,64,65
 369 138 369 138 411 95.5 c 128,-1,66
 453 53 453 53 514 53 c 0,67,68
 573 53 573 53 615 95.5 c 128,-1,69
 657 138 657 138 657 199 c 0,58,59
EndSplineSet
Validated: 1
EndChar

StartChar: uE06B
Encoding: 259 57451 270
Width: 964
Flags: W
LayerCount: 2
Fore
SplineSet
965 823 m 0,0,1
 965 760 965 760 919.5 716 c 128,-1,2
 874 672 874 672 813 672 c 2,3,-1
 616 672 l 1,4,-1
 616 459 l 1,5,6
 704 436 704 436 762.5 364.5 c 128,-1,7
 821 293 821 293 821 199 c 0,8,9
 821 88 821 88 743.5 9 c 128,-1,10
 666 -70 666 -70 555 -70 c 0,11,12
 442 -70 442 -70 364.5 9 c 128,-1,13
 287 88 287 88 287 199 c 0,14,15
 287 293 287 293 345 364.5 c 128,-1,16
 403 436 403 436 494 459 c 1,17,-1
 494 672 l 1,18,-1
 291 672 l 2,19,20
 262 672 262 672 262 643 c 0,21,22
 262 616 262 616 291 616 c 0,23,24
 352 616 352 616 352 555 c 256,25,26
 352 494 352 494 291 494 c 256,27,28
 230 494 230 494 184.5 538 c 128,-1,29
 139 582 139 582 139 643 c 0,30,31
 139 706 139 706 184 750.5 c 128,-1,32
 229 795 229 795 291 795 c 2,33,-1
 494 795 l 1,34,-1
 494 969 l 1,35,36
 404 992 404 992 345.5 1064.5 c 128,-1,37
 287 1137 287 1137 287 1231 c 0,38,39
 287 1342 287 1342 364.5 1419.5 c 128,-1,40
 442 1497 442 1497 555 1497 c 0,41,42
 666 1497 666 1497 743.5 1419 c 128,-1,43
 821 1341 821 1341 821 1231 c 0,44,45
 821 1137 821 1137 763 1064 c 128,-1,46
 705 991 705 991 616 969 c 1,47,-1
 616 795 l 1,48,-1
 813 795 l 2,49,50
 842 795 842 795 842 823 c 256,51,52
 842 852 842 852 813 852 c 0,53,54
 752 852 752 852 752 913 c 256,55,56
 752 974 752 974 813 975 c 256,57,58
 874 975 874 975 919.5 929.5 c 128,-1,59
 965 884 965 884 965 823 c 0,0,1
698 1231 m 0,60,61
 698 1290 698 1290 656 1332 c 128,-1,62
 614 1374 614 1374 555 1374 c 0,63,64
 494 1374 494 1374 452 1332 c 128,-1,65
 410 1290 410 1290 410 1231 c 0,66,67
 410 1170 410 1170 452 1127.5 c 128,-1,68
 494 1085 494 1085 555 1085 c 0,69,70
 614 1085 614 1085 656 1127.5 c 128,-1,71
 698 1170 698 1170 698 1231 c 0,60,61
698 199 m 0,72,73
 698 258 698 258 656 300 c 128,-1,74
 614 342 614 342 555 342 c 0,75,76
 494 342 494 342 452 300 c 128,-1,77
 410 258 410 258 410 199 c 0,78,79
 410 138 410 138 452 95.5 c 128,-1,80
 494 53 494 53 555 53 c 0,81,82
 614 53 614 53 656 95.5 c 128,-1,83
 698 138 698 138 698 199 c 0,72,73
EndSplineSet
Validated: 1
EndChar

